<svg width="305" height="274" viewBox="0 0 305 274" fill="none" xmlns="http://www.w3.org/2000/svg">
<path id="Vector 2" d="M174.891 222.278C176.889 224.189 181.001 226.213 181.078 229.447C181.13 231.64 181.895 233.98 181.496 236.175C181.229 237.641 180.158 240.151 178.868 240.939C178.007 241.465 176.209 241.781 175.554 242.436C173.414 244.576 173.03 249.603 174.449 252.086C175.101 253.229 176.262 253.809 176.757 254.984C177.315 256.309 177.542 257.318 177.542 258.74C177.542 260.119 177.1 261.506 177.1 262.939C177.1 263.809 177.553 261.239 177.984 260.484C178.904 258.874 180.713 257.62 182.06 256.408C183.102 255.47 184.6 255.089 185.522 254.321C187.049 253.048 189.082 252.699 190.802 251.89C191.457 251.581 192.135 251.366 192.766 251.006C193.369 250.661 193.495 249.676 194.116 249.262C198.112 246.599 202.4 243.995 201.826 238.262C201.73 237.302 200.973 237.45 200.525 236.765C199.698 235.5 199.672 233.299 199.641 231.854C199.608 230.358 199.641 228.857 199.641 227.36C199.641 226.135 200.38 224.261 200.869 223.162C201.706 221.279 199.134 224.128 199.101 224.168C197.315 226.294 194.873 228.416 193.846 231.068C191.915 236.058 190.36 239.56 190.36 244.916C190.36 246.3 190.36 247.683 190.36 249.066C190.36 251.886 189.734 254.26 190.261 257.095C190.605 258.943 191.243 261.085 190.581 262.939C188.801 267.921 193.982 268.454 196.695 270.674C197.757 271.543 199.423 271.857 200.427 272.761C201.923 274.108 201.891 268.79 201.826 267.924C201.523 263.826 201.057 259.843 200.967 255.72C200.896 252.455 199.199 249.412 199.199 246.07C199.199 242.743 199.657 238.983 200.427 235.733C201.228 232.349 203.859 230.013 204.994 226.894C205.414 225.738 207.07 224.023 208.038 223.26C210.128 221.614 211.675 219.171 213.956 217.735C219.089 214.503 224.455 212.845 230.211 210.983C233.289 209.987 236.725 209.92 239.713 208.822C243.761 207.335 246.765 205.118 249.78 201.971C252.081 199.57 254.607 197.709 256.508 195.023C259.112 191.344 261.991 187.309 263.727 183.114C264.808 180.5 266.523 178.317 267.705 175.772C268.987 173.01 269.997 170.215 271.781 167.719C274.349 164.124 276.118 159.963 278.754 156.448C283.004 150.781 285.384 143.607 285.384 136.461C285.384 130.711 285.897 125.18 286.243 119.47C286.734 111.37 284.837 104.143 282.977 96.3648C281.049 88.3014 279.28 80.3826 277.649 72.2282C275.739 62.6773 277.757 52.7743 271.24 44.7768C268.941 41.9547 266.838 39.0088 264.513 36.2075C263.113 34.5217 262.065 32.3164 260.388 30.9038C258.8 29.5667 257.299 28.1245 256.017 26.4841C253.622 23.4186 250.745 21.0159 248.012 18.283C246.578 16.8483 244.45 13.1955 242.316 12.8075C237.142 11.8667 231.841 14.1089 226.749 14.1089C221.586 14.1089 214.608 14.6005 212.925 20.4929C211.243 26.3794 211.191 34.2922 213.809 39.9642C215.307 43.2105 216.708 44.1546 220.561 42.9353C223.185 42.1048 225.226 37.9792 225.717 35.2744C226.441 31.2926 228.707 25.923 233.403 27.368C237.845 28.7349 241.185 30.9038 246.073 30.9038C249.027 30.9038 251.982 30.9038 254.937 30.9038C258.314 30.9038 260.821 32.1297 264.022 33.2855C269.023 35.0917 273.85 37.259 278.361 40.087C281.319 41.9409 282.953 45.0603 284.721 47.9443C286.856 51.429 286.709 55.5812 286.709 59.5338C286.709 61.786 286.612 63.4189 283.91 63.1186C280.274 62.7146 278.004 60.8605 275.12 58.748C272.935 57.1474 269.521 55.5863 268.048 53.1497C265.615 49.1218 264.6 44.1539 263.727 39.5714C262.839 34.9088 260.07 28.2519 254.47 28.7185C251.572 28.96 248.647 30.202 248.356 33.261C248.036 36.6238 249.351 40.4487 250.247 43.6719C250.769 45.5533 251.453 46.2291 252.874 47.6496C254.61 49.3856 257.71 51.5561 259.97 52.5604C261.992 53.4588 263.045 57.2803 263.972 58.9445C265.064 60.9025 266.002 62.8153 266.354 65.1075C266.644 66.9889 266.596 69.5403 265.397 71.1232C262.91 74.4051 259.591 70.0208 257.638 68.2995C253.918 65.023 252.602 59.9875 249.878 55.9489C247.991 53.1502 244.247 52.2974 241.211 51.48C238.246 50.6818 233.954 50.817 230.923 50.7925C227.404 50.7642 223.883 50.7925 220.365 50.7925C214.522 50.7925 208.46 49.9473 203.398 53.4689C193.963 60.0325 190.765 75.5622 198.978 84.407C201.299 86.9068 202.859 89.8452 205.73 91.8959C208.666 93.9931 210.02 97.2727 213.121 99.1639C216.381 101.152 219.288 104.623 223.36 104.713C225.881 104.769 228.248 105.276 230.112 103.412C236.923 96.601 237.661 85.3831 236.325 76.4269C235.263 69.3119 234.008 51.9687 224.22 50.8171C222.111 50.5691 216.193 50.9006 215.11 53.0024C213.781 55.5822 213.347 60.928 214.03 63.757C214.871 67.2433 218.595 70.9459 221.101 73.3822C223.608 75.8198 227.955 75.3197 230.775 77.1144C233.088 78.586 226.959 77.7528 225.717 77.7528C221.22 77.7528 216.935 79.518 212.728 80.9203C209.668 81.9403 204.315 82.9257 201.851 85.2663C200.799 86.2656 198.439 90.3742 200.108 91.6258C205.296 95.5169 211.933 80.6234 215.306 78.4403C220.632 74.9943 228.523 75.1254 234.557 76.1814C240.141 77.1587 245.651 75.7466 250.91 74.1188C254.172 73.1092 257.171 72.0072 260.609 72.0072C262.205 72.0072 260.151 72.272 259.651 72.3509C257.693 72.6601 255.769 73.3336 253.807 73.7751C249.368 74.7738 246.622 74.6951 243.249 77.8756C241.105 79.8969 237.982 80.4991 240.106 83.744C241.833 86.3826 244.557 89.3297 245.14 92.5343C246.007 97.3058 247.918 102.097 248.651 107.046C249.655 113.824 249.537 120.7 250.443 127.499C250.652 129.066 249.655 129.577 249.584 130.789C249.438 133.271 249.704 135.503 248.945 137.886C248.168 140.329 248.303 143.034 247.374 145.473C246.099 148.82 245.479 152.616 244.943 156.154C244.627 158.237 243.406 159.986 242.954 162.071C242.277 165.2 241.138 168.152 240.057 171.156C238.617 175.156 239.103 179.969 237.847 184.096C237.201 186.218 236.989 186.411 236.079 184.023C235.061 181.351 235.549 178.621 235.883 175.871C236.243 172.898 237.96 163.877 234.532 161.948C230.044 159.424 224.412 160.427 219.775 161.752C217.161 162.499 214.365 164.153 212.065 165.656C210.614 166.605 207.326 168.007 206.688 169.708C204.58 175.328 200.253 179.745 202.317 186.281C204.356 192.736 211.622 193.991 217.565 193.991C221.769 193.991 221.607 181.671 217.492 180.757C215.371 180.286 211.76 184.878 211.574 186.92C211.336 189.541 211.322 191.794 213.637 193.378C216.944 195.64 220.14 197.474 223.999 198.313C226.958 198.956 229.434 200.057 232.2 201.063C233.426 201.509 237.666 204.157 234.311 204.157C231.959 204.157 229.319 204.316 227.043 203.666C225.189 203.136 223.822 201.461 222.28 200.375C220.534 199.147 219.141 198.032 217.344 196.864C212.409 193.656 207.195 190.898 201.139 190.898C199.946 190.898 194.261 189.925 194.878 192.469C195.246 193.99 196.425 195.731 196.989 197.282C197.417 198.458 199.485 199.315 200.525 199.835C201.9 200.523 202.638 201.165 203.864 202.168C205.168 203.235 209.458 205.391 210.248 202.978C211.323 199.699 209.698 195.531 207.621 192.936C206.974 192.127 206.271 198.251 206.271 199.393C206.271 200.937 206.028 202.534 204.257 202.855C203.489 202.995 202.98 203.687 202.195 203.715C200.424 203.778 198.954 203.303 197.382 202.487C196.579 202.07 193.513 198.31 193.429 198.534C192.147 201.953 191.442 203.644 192.913 207.152C193.141 207.695 195.27 211.543 194.558 212.112C191.463 214.589 185.795 195.98 185.056 192.469C184.224 188.52 182.99 184.796 182.502 180.732C181.974 176.333 181.962 171.298 181.962 166.859C181.962 164.142 182.556 160.743 181.422 158.192C181.175 157.637 180.107 155.703 179.482 155.564C170.973 153.674 167.554 170.159 166.714 175.871C165.768 182.302 163.452 188.526 161.877 194.826C160.741 199.368 158.884 205.443 156.082 209.264C152.349 214.354 148.866 219.824 144.591 224.488C142.459 226.813 141.173 229.969 139.336 232.541C138.487 233.73 136.767 234.122 135.58 234.874C134.179 235.761 132.847 236.837 131.332 237.526C127.941 239.067 124.567 240.688 121.24 242.166C120.756 242.381 127.549 246.264 128.042 246.586C130.419 248.142 133.135 249.888 135.776 250.981C139.071 252.345 142.043 253.141 145.475 254.1C146.857 254.486 147.677 255.512 149.011 255.868C150.934 256.38 152.849 256.918 154.781 257.414C157.752 258.179 160.983 258.114 163.841 259.305C166.295 260.327 169.021 261.043 171.576 261.785C176.763 263.291 182.2 262.939 187.536 262.939C190.785 262.939 194.034 262.939 197.284 262.939C198.103 262.939 201.51 262.241 202.17 262.571C203.776 263.374 198.68 263.44 196.989 264.044C195.088 264.723 191.87 265.076 189.819 265.149C187.048 265.248 184.413 266.191 181.692 266.45C175.854 267.006 169.699 266.475 163.841 266.475C161.136 266.475 158.156 266.852 155.542 266.131C154.869 265.945 154.134 266.195 153.479 266.008C153.416 265.99 157.79 265.198 158.587 265.173C163.074 265.033 167.322 266.475 171.797 266.475C173.458 266.475 178.403 266.811 176.781 266.45C171.254 265.222 166.214 262.939 160.551 262.939C157.351 262.939 154.4 261.693 151.27 261.613C147.862 261.526 144.481 261.171 141.08 261.171C134.012 261.171 126.881 260.729 119.767 260.729C116.61 260.729 113.2 260.348 110.117 261.073C108.044 261.561 107.484 260.135 106.581 258.495C104.884 255.408 103.611 252.144 101.179 249.533C98.9934 247.185 96.5989 243.957 95.1392 241.135C93.7794 238.506 90.2059 238.312 87.5765 238.189C81.3066 237.895 75.2293 236.421 68.9155 236.421C63.2075 236.421 57.5808 237.305 51.875 237.305C45.834 237.305 40.4341 236.053 34.5399 234.874C28.6831 233.702 22.9742 232.565 18.6535 228.244C15.2132 224.804 17.3852 218.562 19.9303 215.452C21.5311 213.495 20.0903 211.637 19.3164 209.804C18.5741 208.046 18.1255 206.336 17.082 204.771C15.1451 201.865 11.6923 198.132 14.7003 194.851C16.4101 192.986 21.1594 190.98 23.6379 190.898C26.5052 190.802 29.0728 191.156 30.8323 193.795C32.1308 195.743 34.5321 196.371 35.3256 198.411C35.8336 199.717 33.5678 201.624 32.6001 202.168C30.776 203.194 28.4442 203.042 26.388 203.371C24.4661 203.679 22.4828 204.599 20.5441 204.599C19.3871 204.599 22.629 203.594 23.687 203.126C24.8493 202.611 26.4654 201.652 27.7139 201.505C29.3557 201.312 25.8394 195.825 25.504 195.416C24.1739 193.79 22.4636 192.709 20.7406 191.683C19.4486 190.914 18.2776 188.973 16.8856 188.663C15.1411 188.276 12.2932 184.758 10.919 183.384C9.87892 182.344 9.17564 180.752 8.04615 179.848C4.38999 176.923 17.9218 174.38 19.3164 173.882C20.9431 173.301 19.3052 170.998 18.4325 170.125C16.739 168.431 13.9124 167.712 11.8275 166.589C9.1796 165.163 8.14346 161.383 6.843 158.83C5.71829 156.622 3.80768 154.522 2.96347 152.201C2.0955 149.814 0.123211 145.391 1.44112 142.944C3.80448 138.555 9.27389 134.129 13.9882 132.557C15.6685 131.997 17.5017 130.65 18.8745 129.562C20.6884 128.124 22.5184 127.074 24.129 125.363C24.5535 124.912 25.7366 124.561 25.9215 123.914C26.4179 122.177 27.9196 120.208 29.0398 118.758C31.0193 116.196 32.2097 113.24 33.7296 110.434C35.3016 107.532 36.5825 104.576 37.6337 101.423C39.0457 97.187 40.0742 91.8914 42.2744 88.0409C44.0287 84.9709 45.1439 81.3432 45.933 77.9001C46.8274 73.997 48.8932 69.9036 50.5 66.2616C53.9735 58.3883 58.4659 49.7456 65.9445 45.0223C71.2878 41.6476 77.9897 39.8474 82.322 35.1025C84.0133 33.2501 85.7187 31.3882 87.6748 29.8234C91.3559 26.8785 94.5861 27.6531 98.6749 26.0176C101.366 24.9413 103.956 23.304 105.648 20.9349C107.442 18.4239 101.921 18.1521 100.836 18.1112C100.24 18.0887 96.2896 17.462 96.7597 18.8723C96.9084 19.3184 97.6939 19.9458 97.9874 20.3947C99.2616 22.3434 103.011 23.3903 105.28 23.3903C110.258 23.3903 115.006 22.5063 119.816 22.5063C122.535 22.5063 125.874 22.0167 128.533 22.7028C133.33 23.9409 138.306 25.6194 142.774 27.7854C146.326 29.5078 149.87 30.4771 153.283 32.5735C156.434 34.5093 159.462 36.8943 162.27 39.3013C164.447 41.1673 167.044 43.6268 168.703 45.9308C170.163 47.9586 171.355 48.9898 171.355 51.701C171.355 55.4351 170.059 58.7446 167.721 61.5963C164.535 65.4811 161.654 65.9565 156.745 66.237C149.105 66.6736 141.856 65.5694 134.376 64.1499C129.128 63.1538 124.128 60.2803 119.693 57.3239C114.908 54.1336 110.762 50.5137 106.336 46.8639C103.38 44.4264 99.8442 41.3472 97.7419 38.0981C92.806 30.47 101.259 17.2027 109.675 17.2027C111.378 17.2027 108.595 15.5656 108.595 17.3991C108.595 19.8815 109.643 20.4584 111.517 21.4505C114.373 22.9627 116.81 23.2077 119.202 25.6001C120.587 26.9853 121.909 28.5092 123.425 29.7498C125.271 31.2598 126.738 31.5284 127.821 33.7766C128.802 35.8156 129.159 37.9998 130.153 39.9888C131.913 43.5076 135.366 46.445 138.207 49.0492C140.105 50.7889 142.024 52.1953 144.493 53.1006C148.647 54.6238 151.978 57.5589 155.91 59.4355C158.35 60.5999 159.821 62.6264 162.073 63.9535C164.746 65.5283 167.224 67.3666 169.931 68.9134C173.705 71.0704 178.621 73.1261 181.888 75.9849C182.723 76.7152 181.807 77.4599 180.98 77.6546C178.82 78.1628 175.574 77.076 173.614 76.1323C171.53 75.1291 169.516 73.9749 167.623 72.6456C164.966 70.7803 162.815 67.9133 160.011 66.3107C154.928 63.4061 150.194 60.8834 145.622 57.2257C144.33 56.1922 143.741 54.3754 142.381 53.4689C141.424 52.831 140.283 52.6371 139.287 52.0939C136.888 50.7854 135.274 49.1341 133.198 47.4532C131.227 45.8581 134.411 46.8543 135.359 47.0358C138.752 47.6855 141.772 48.4366 145.008 49.6385C146.486 50.1875 151.746 51.7609 150.926 54.4265C149.972 57.5278 142.084 56.5382 139.827 56.5382C136.186 56.5382 129.751 55.5909 127.379 59.0181C126.261 60.632 125.69 63.0294 125.144 64.8865C124.384 67.4707 123.261 69.8183 122.394 72.3509C121.14 76.0163 119.732 80.2095 120.135 84.1369C120.639 89.052 124.099 95.0358 127.059 98.8693C130.28 103.04 136.33 105.279 141.473 105.573C147.256 105.903 154.453 104.606 158.98 100.637C163.377 96.7821 162.957 91.1545 162.957 85.8802C162.957 83.6823 162.707 81.7689 162.073 79.668C161.008 76.136 157.592 76.0028 154.265 75.6412C149.695 75.1444 145.39 75.913 141.448 78.293C132.854 83.482 127.792 91.801 122.713 100.097C120.189 104.22 117.394 108.45 115.765 113.012C114.181 117.445 114.34 122.718 114.34 127.352C114.34 130.329 115.013 132.654 117.238 134.767C120.272 137.65 124.8 136.977 128.655 136.977C129.495 136.977 132.979 136.42 133.689 137.075C134.76 138.064 135.083 140.82 135.113 142.183C135.153 143.974 135.114 145.816 137.323 145.816C141.447 145.816 159.866 135.998 151 131.01C147.667 129.136 144.629 130.257 141.644 132.557C138.336 135.107 135.051 137.6 131.823 140.267C125.865 145.189 120.712 150.495 115.298 155.908C111.333 159.873 106.85 162.724 103.217 166.81C102.151 168.01 97.8078 170.125 101.965 170.125C105.88 170.125 102.08 169.753 100.615 169.02C97.1833 167.304 88.2166 168.93 87.1591 163.643C86.3551 159.623 88.5984 156.071 91.7016 153.772C93.0249 152.792 95.3356 148.862 95.3356 147.314C95.3356 143.393 94.1695 136.435 96.6615 133.196C98.9799 130.182 101.589 127.389 103.93 124.381C104.539 123.598 105.738 121.676 104.617 120.968C101.789 119.182 100.182 116.197 97.1035 114.657C87.791 110.001 103.477 103.421 107.465 101.619C109.419 100.737 113.412 99.5862 109.822 98.0835C108.365 97.4736 106.653 96.8573 105.28 96.0947C103.167 94.9206 101.571 94.652 101.523 91.7977C101.477 89.0017 101.833 85.6209 103.807 83.4494C106.748 80.2143 109.713 77.7274 113.358 75.2974C116.564 73.1606 112.261 70.0776 110.363 68.496C107.891 66.4363 105.149 64.6235 103.291 61.9401C101.207 58.9298 105.369 54.526 107.441 52.8551C109.264 51.3844 111.847 50.7192 113.456 49.0247C115.619 46.7483 113.27 44.2087 111.173 43.2299C107.312 41.4279 103.318 40.3662 99.4607 38.6629C95.883 37.0831 91.6523 35.7655 87.6993 35.7655C83.9167 35.7655 80.3312 34.8815 76.5272 34.8815C72.3697 34.8815 72.795 36.7261 72.795 40.2834C72.795 42.7812 72.8874 45.5836 71.4446 47.7478C68.5175 52.1384 65.6562 54.9361 61.3038 57.8641C58.3242 59.8685 55.1076 62.3622 51.8259 63.8062C48.6652 65.1969 46.6168 68.3089 44.8526 71.1232C43.0887 73.937 41.2985 76.2875 40.1137 79.4471C38.4675 83.8369 34.4461 86.878 32.3546 91.0611C31.3678 93.0347 31.2946 95.2332 33.4595 96.3157C36.5532 97.8625 36.9953 95.0166 36.9953 92.5098C36.9953 89.9413 36.5809 86.8935 37.4373 84.4315C37.7229 83.6102 38.3499 88.81 38.4194 89.4896C38.5389 90.658 38.3268 93.035 39.8681 93.1973C42.0841 93.4305 45.1476 90.6895 47.2834 89.9316C51.5732 88.4094 54.6538 87.535 59.1921 88.3602C63.5639 89.155 67.3993 90.57 71.862 90.57C73.7165 90.57 72.3946 90.57 71.4691 90.57C69.6346 90.57 67.7418 90.4373 65.9199 90.6682C62.7963 91.0642 59.8828 92.3096 56.8349 92.9763C54.1095 93.5725 51.0092 93.2964 48.2901 92.8781C47.1936 92.7094 45.7878 92.5939 44.7298 93.0009C43.155 93.6066 47.0486 93.2218 47.6272 93.2218C51.9732 93.2218 56.3193 93.2218 60.6654 93.2218C63.1856 93.2218 66.7282 93.4664 68.3753 95.7018C69.067 96.6406 71.6526 102.565 70.9289 103.289C70.235 103.983 67.3478 100.969 67.074 100.49C65.2087 97.2257 65.2836 93.1084 62.8261 89.9807C61.9801 88.904 60.7388 88.581 59.806 87.6481C58.9799 86.8221 59.0201 85.6182 57.989 85.0454C56.9118 84.4469 55.4579 84.3058 54.2322 84.3824C53.8409 84.4069 57.1089 86.2037 57.6207 86.5186C58.8158 87.2541 60.4604 88.1086 61.844 88.3602C64.7429 88.8872 67.4033 89.6861 70.3396 89.6861C72.1019 89.6861 72.7142 89.6861 70.4133 89.6861C66.2315 89.6861 62.4123 90.5069 58.3082 90.9629C55.5957 91.2643 53.6709 91.5411 50.8929 91.012C47.5039 90.3665 44.5187 90.3088 42.3726 93.3937C39.3202 97.7816 39.9288 103.169 40.9976 107.979C41.2304 109.026 42.9517 111.003 43.5267 111.932C44.5722 113.621 46.9683 113.553 43.5758 113.553C39.457 113.553 34.9715 114.23 31.8881 111.146C31.1147 110.373 31.4636 110.883 33.1158 110.901C35.5682 110.927 37.9806 111.343 40.4329 111.343C41.1797 111.343 41.7348 111.129 42.4463 110.925C44.2563 110.408 38.68 110.854 36.7989 110.925C35.9187 110.958 33.6823 110.844 33.1158 111.883C32.713 112.621 34.9421 113.331 35.3256 113.651C37.3757 115.359 40.2939 116.028 42.8392 116.425C47.9339 117.221 53.8928 115.417 58.8238 116.867C60.7675 117.439 64.3903 117.642 66.3128 117.432C67.8027 117.269 69.1991 117.088 70.7079 117.088C72.1226 117.088 67.8968 117.423 66.4847 117.506C63.8169 117.663 61.1268 117.481 58.4555 117.53C55.7678 117.58 60.8646 118.424 61.5002 118.512C63.3588 118.771 66.5551 119.142 67.9579 120.428C68.9119 121.302 72.0671 123.136 69.2593 123.276C67.6673 123.356 65.6861 124.347 64.152 124.823C59.3709 126.307 54.0146 129.022 48.9777 129.022C47.6354 129.022 46.2931 129.022 44.9508 129.022C43.645 129.022 45.4278 129.022 45.8102 129.022C47.4313 129.022 49.0187 128.257 50.4263 127.499C50.9631 127.21 54.1119 125.244 53.8885 124.946C52.6105 123.242 50.8751 123.013 49.567 121.704C46.6199 118.757 42.9515 117.906 39.4262 116.008C36.2865 114.317 46.4632 117.175 49.9598 117.874C54.2796 118.738 58.6179 119.581 62.9489 120.379C64.1971 120.608 65.4995 120.747 66.7056 121.164C68.0828 121.641 64.5772 121.852 64.152 121.95C61.9159 122.464 59.6261 122.705 57.4733 123.521C55.8058 124.154 53.9887 125.044 52.1697 125.044C48.7748 125.044 46.6181 119.957 50.5982 121.066C54.0563 122.03 57.04 122.788 60.3462 124.111C63.2374 125.267 61.9207 125.199 59.7814 124.16C57.5017 123.053 56.091 121.298 54.134 119.642C50.8883 116.896 48.2439 116.774 44.1651 116.646C41.7392 116.571 39.4908 114.719 36.9462 114.436C34.7861 114.196 29.7261 112.91 27.6157 114.191C25.4043 115.534 24.0031 117.05 22.0174 118.611C20.9728 119.431 19.5456 121.703 18.4325 121.95C16.5535 122.368 14.4859 125.708 13.9882 127.45C13.0954 130.575 9.41873 132.477 7.82516 135.209C6.18897 138.014 4.79344 140.836 3.20901 143.779C1.26208 147.394 7.18198 150.238 8.0707 153.158C8.64433 155.043 10.8463 157.088 10.919 158.977C10.9584 160.002 11.4999 161.632 12.4413 162.169C13.1005 162.546 13.53 163.92 13.9146 164.527C14.3993 165.291 15.0359 165.235 15.7807 165.607C16.9968 166.215 18.3143 166.488 19.5374 167.031C20.441 167.433 21.3533 167.892 22.1647 168.455C23.1995 169.174 24.0919 168.854 25.0621 169.339C26.6576 170.137 22.3936 172.027 21.9683 172.31C19.8622 173.714 13.5708 173.624 13.5708 176.509C13.5708 181.459 15.9524 183.249 20.2004 185.373C23.8545 187.2 28.2191 188.663 30.3657 192.42C31.4137 194.254 32.5807 196.283 33.3613 198.313C33.6073 198.952 34.2377 199.688 33.1158 199.688C30.1488 199.688 28.0971 198.019 26.388 195.784C22.5032 190.704 15.5709 188.141 10.035 185.373C8.08054 184.396 4.65543 183.268 3.40544 181.518C1.20242 178.434 8.94738 180.506 10.4524 180.757C12.5034 181.099 14.6173 182.362 16.4191 183.482C18.4775 184.762 20.5624 185.953 22.6558 187.165C24.2032 188.061 25.4734 189.755 27.0509 190.456C28.3359 191.027 30.1918 193.986 30.7095 195.317C31.3443 196.95 26.6528 197.294 25.7496 197.552C22.9643 198.348 19.2263 197.12 16.4436 198.19C15.4997 198.553 12.566 198.719 12.1467 199.737C11.8757 200.395 14.055 201.392 14.6757 201.53C16.1828 201.864 16.9673 202.831 18.6289 202.831C22.6339 202.831 21.4795 202.934 20.6423 205.655C20.3867 206.485 20.03 207.268 19.8566 208.135C19.5753 209.541 20.9211 209.381 21.4281 210.344C22.141 211.699 21.3571 214.594 19.9794 215.206C17.229 216.428 13.3291 217.393 12.0239 220.264C11.0938 222.31 11.8029 225.924 11.8029 228.171C11.8029 230.705 11.947 232.393 13.8654 234.211C18.2456 238.361 26.8237 238.342 32.2564 240.153C35.0748 241.092 37.7614 241.658 40.8257 241.724C43.3909 241.78 45.7474 240.84 48.2901 240.84C55.743 240.84 63.1383 239.957 70.6097 239.957C77.8358 239.957 86.9517 239.055 93.5677 242.363C96.8067 243.982 100.942 243.733 103.07 246.807C105.801 250.752 106.533 255.32 108.816 259.379C110.102 261.665 124.418 270.958 125.365 266.696C125.779 264.835 124.948 262.728 124.948 260.827C124.948 258.548 124.506 256.515 124.506 254.247C124.506 251.035 124.511 248.137 125.291 245.015C126.062 241.932 127.356 239.138 127.821 235.979C128.063 234.329 128.612 233.182 129.269 231.657C130.131 229.656 130.63 226.824 132.019 225.126C133.823 222.921 134.739 219.754 136.906 217.858C138.631 216.348 140.15 214.853 142.185 213.782C142.788 213.464 142.986 212.996 143.732 212.996C144.826 212.996 142.526 218.771 142.16 219.65C141.663 220.844 141.017 221.968 140.515 223.162C140.129 224.079 141.781 219.529 142.086 218.791C143.345 215.754 145.115 213.796 147.022 211.253C149.821 207.52 151.123 202.799 153.872 199.05C155.149 197.309 156.206 194.342 156.966 192.273C158.151 189.046 159.046 185.985 159.839 182.549C160.288 180.603 159.818 171.941 161.533 171.205C163.58 170.328 157.923 173.85 156.377 175.453C153.801 178.124 152.325 181.252 150.337 184.293C148.697 186.801 147.946 189.773 146.948 192.567C145.562 196.447 143.09 199.85 142.16 204.034C141.277 208.008 139.472 212.554 134.696 212.554C132.458 212.554 129.816 209.942 128.042 208.675C126.356 207.471 125.442 206.2 124.334 204.353C121.973 200.418 124.878 194.031 125.365 189.891C125.52 188.573 125.79 186.336 126.716 185.348C127.64 184.362 125.794 188.054 124.727 188.884C124.123 189.354 123.105 189.104 122.394 189.13C121.12 189.175 121.193 190.108 120.528 190.898C119.591 192.011 119.424 194.524 120.503 195.514C123.104 197.897 125.288 201.168 128.287 203.076C132.379 205.68 139.047 206.897 142.627 202.806C147.437 197.309 136.03 199.737 133.615 199.737C132.75 199.737 130.782 199.277 131.332 200.719C131.907 202.229 133.031 203.263 134.327 204.157C135.337 204.853 135.827 205.705 136.66 206.539C137.751 207.629 136.424 206.642 135.997 206.097C134.317 203.95 132.019 200.571 132.019 197.748C132.019 195.686 130.068 195.553 128.582 194.63C127.652 194.053 126.334 193.855 125.66 192.911C125.54 192.743 128.563 193.107 129.146 193.107C129.41 193.107 131.105 193.749 130.841 193.893C129.085 194.851 126.278 190.034 125.684 189.081C123.163 185.035 124.64 179.878 125.733 175.625C126.97 170.816 133.464 168.889 137.716 168.259C141.35 167.72 144.904 167.276 148.544 167.007C151.147 166.814 154.174 166.881 156.671 166.049C157.754 165.688 158.981 165.091 160.084 164.846C161.834 164.457 165.146 165.11 166.248 163.397C167.173 161.957 168.313 159.811 167.794 157.995C167.154 155.754 164.224 157.385 162.81 157.995C160.79 158.868 159.363 161.828 158.341 163.667C156.856 166.341 155.234 169.56 153.234 171.893C152.163 173.142 151.586 174.795 150.828 176.239C149.721 178.347 148.201 180.124 146.825 182.058C145.643 183.72 144.356 185.199 143.314 186.92C142.146 188.85 139.68 189.379 138.207 190.996C136.651 192.704 135.471 192.917 133.591 193.991C131.819 195.004 131.087 199.947 131.135 201.751C131.197 204.036 139.812 198.462 141.104 197.306C142.132 196.387 143.068 195.47 143.854 194.335C144.289 193.708 144.082 192.522 144.493 191.782C144.816 191.199 145.665 191.346 146.138 190.873C147.233 189.778 147.917 188.259 149.06 187.116C151.204 184.972 153.449 182.363 155.346 180.045C157.089 177.914 160.465 176.948 161.803 174.569C162.187 173.888 162.762 171.72 162.761 171.746C162.632 174.969 160.096 177.84 159.888 181.174C159.701 184.161 160.09 187.04 159.422 189.965C158.581 193.641 158.791 196.925 157.433 200.547C156.644 202.651 155.46 204.626 154.658 206.71C154.072 208.235 152.672 210.026 151.687 211.449C150.103 213.737 148.492 216.85 146.261 218.545C145.807 218.89 141.96 223.006 141.743 222.842C139.931 221.484 142.238 216.685 140.957 214.764C140.752 214.456 138.123 218.276 137.765 218.717C136.635 220.109 135.323 221.369 134.45 222.941C133.003 225.545 131.202 228.23 130.055 230.97C129.619 232.011 127.529 237.185 130.129 236.126C133.197 234.876 136.575 233.942 139.533 232.541C143.331 230.742 147.196 228.696 149.698 224.979C150.942 223.131 151.739 221.449 153.234 219.847C154.402 218.595 158.199 218.742 159.864 218.742C161.325 218.742 162.588 219.184 164.062 219.184C164.614 219.184 167.249 220.02 165.953 220.068C160.111 220.284 153.591 219.055 148.372 222.376C146.528 223.55 147.099 227.79 146.162 229.57C145.374 231.068 145.482 233.173 146.261 234.653C148.714 239.315 153.408 241.41 158.439 239.613C159.597 239.199 160.718 238.481 161.828 238.164C163.806 237.599 159.182 234.659 158.98 234.456C155.873 231.349 150.443 226.516 145.72 229.889C142.469 232.212 139.533 235.674 139.533 239.907C139.533 244.254 142.625 244.694 145.278 247.274C147.086 249.031 149.497 250.095 151.638 251.399C153.969 252.818 156.375 254.1 159.176 254.1C164.436 254.1 167.777 251.787 171.306 247.937C173.577 245.459 173.637 241.681 173.565 238.483C173.553 237.972 173.07 236.751 172.607 237.722C171.405 240.246 170.051 242.797 168.998 245.383C167.164 249.884 160.691 253.784 156.18 255.327C152.345 256.639 150.225 254.053 147.12 252.135C144.526 250.533 142.023 250.564 139.091 250.564C136.313 250.564 132.867 249.025 130.693 251.276C128.819 253.217 126.797 256.367 126.716 259.207C126.666 260.956 126.432 262.006 128.238 262.522C128.698 262.653 129.375 263.844 129.809 264.167C131.192 265.194 132.891 265.709 134.573 265.935C140.269 266.699 145.83 267.887 151.638 267.334C154.313 267.079 151.147 266.851 150.287 266.72C147.637 266.318 144.74 266.001 142.185 265.149C138.586 263.95 135.391 261.512 132.093 259.698C129.759 258.414 130.749 254.106 131.479 251.988C132.32 249.549 137.266 250.312 139.336 250.588C142.829 251.054 144.631 254.101 146.506 256.751C147.886 258.702 148.701 261.513 150.803 262.915C152.204 263.849 150.372 262.993 149.796 262.497C147.962 260.915 146.254 258.797 144.689 256.948C142.059 253.839 138.155 255.14 134.647 256.309C132.805 256.923 130.136 260.186 131.332 255.966C131.754 254.474 132.703 253.199 133.1 251.669C133.608 249.709 132.519 249.077 131.405 247.716C129.46 245.337 129.809 239.959 129.809 237.206C129.809 233.589 132.182 229.846 134.205 226.967C136.817 223.249 139.15 219.578 141.939 215.992C144.839 212.263 148.221 209.263 150.779 205.311C152.923 201.997 154.627 198.359 156.573 194.924C160.039 188.808 162.951 183.002 164.283 175.969C165.435 169.892 165.548 163.837 167.917 158.044C169.87 153.27 167.341 168.345 166.96 173.489C166.849 174.986 166.852 176.579 166.935 178.08C167.036 179.9 168.149 174.639 168.605 172.875C170.467 165.659 173.192 159.456 173.565 152.004C173.616 150.977 175.115 148.131 176.069 150.04C178.833 155.568 181.426 162.163 181.52 168.455C181.528 168.98 181.873 172.88 180.955 172.605C178.141 171.761 176.267 167.542 173.663 165.951C170.532 164.037 170.004 160.174 169.047 157.062C168.506 155.304 168.399 153.787 168.236 152.004C168.068 150.149 167.709 149.138 166.886 151.562C166.365 153.096 164.38 156.396 164.48 157.995C164.514 158.537 166.656 156.752 166.837 156.424C168.531 153.344 168.261 149.653 168.261 146.283C168.261 145.26 168.957 140.522 168.163 139.727C164.342 135.907 156.522 138.016 151.908 139.285C148.518 140.217 143.652 142.66 141.325 145.375C141.086 145.654 140.407 146.851 141.153 147.044C142.792 147.469 144.125 145.448 145.278 144.687C146.124 144.129 147.245 144.157 147.93 143.386C149.595 141.512 149.602 145.666 149.698 146.578C149.853 148.048 150.384 149.324 150.926 150.678C151.22 151.414 150.335 150.415 150.238 149.843C149.402 144.916 150.229 141.205 150.582 136.437C150.997 130.834 157.375 134.876 159.618 136.093C160.595 136.623 161.621 137.137 162.564 137.714C163.385 138.215 164.307 140.299 164.971 140.488C166.708 140.985 168.135 142.63 168.605 144.392C168.981 145.803 170.049 146.737 170.495 148.075C170.994 149.572 171.588 151.311 172.435 152.643C173.226 153.885 173.565 158.388 173.565 156.915C173.565 155.459 172.309 154.467 172.239 152.986C172.173 151.614 171.68 151.562 173.344 151.562C175.064 151.562 176.449 151.965 178.009 152.667C181.125 154.069 183.015 158.547 185.056 161.187C187.039 163.754 187.708 166.116 187.708 169.339C187.708 170.485 187.944 168.121 188.592 167.473C190.578 165.487 190.682 163.736 189.476 161.065C187.82 157.399 186.689 153.383 185.94 149.451C185.929 149.393 184.189 153.37 183.951 154.165C183.51 155.633 182.846 157.13 182.846 158.683C182.846 159.281 182.639 163.893 183.288 161.335C183.98 158.606 184.866 156.032 185.67 153.355C185.773 153.011 185.745 150.532 186.578 151.366C189.313 154.1 189.928 159.005 191.784 162.268C193.115 164.609 194.56 166.861 195.884 169.216C197.293 171.722 198.337 174.681 199.985 177C201.188 178.693 203.258 179.463 204.478 181.395C206.244 184.191 207.859 186.361 211.034 187.804C212.643 188.535 215.253 190.713 215.527 192.494C215.942 195.189 212.481 192.681 211.476 192.076C209.306 190.77 207.486 187.812 206.172 185.692C204.127 182.394 203.304 178.389 203.152 174.594C203.014 171.129 202.293 167.769 202.293 164.281C202.293 161.793 202.596 159.203 203.422 156.841C204.404 154.035 205.31 150.014 207.695 148.026C209.096 146.858 210.328 145.659 210.666 143.803C210.816 142.979 210.69 142.037 210.69 141.2C210.69 140.682 210.836 137.325 210.887 137.37C216.753 142.546 217.021 150.264 217.86 157.504C218.237 160.758 218.204 163.939 218.204 167.228C218.204 171.039 218.769 174.309 219.333 178.08C219.374 178.353 219.913 182.009 219.063 180.168C218.22 178.341 217.952 176.168 217.786 174.176C217.523 171.014 215.498 170.096 212.802 168.455C209.445 166.412 208.026 163.848 205.411 161.114C202.921 158.511 201.301 155.646 201.409 151.759C201.44 150.655 204.813 151.727 205.411 152.225C208.44 154.749 210.788 155.957 212.9 159.518C214.034 161.429 215.42 163.33 216.411 165.312C216.943 166.375 218.368 168.357 216.657 168.357C214.769 168.357 212.862 167.24 211.083 166.687C208.546 165.9 206.338 165.184 204.503 163.152C202 160.381 200.186 156.942 199.395 153.33C198.584 149.621 198.712 146.095 198.217 142.379C197.803 139.274 197.712 136.125 197.898 132.975C198.259 126.836 202.225 131.999 202.98 135.111C204.212 140.184 203.706 145.26 204.085 150.384C204.287 153.107 205.42 156.308 203.275 158.535C197.563 164.467 188.01 153.018 186.038 148.517C184.992 146.13 183.095 141.557 183.976 138.917C184.409 137.617 184.277 136.543 185.498 135.897C186.582 135.323 187.67 134.637 188.69 133.981C189.423 133.51 191.419 133.883 192.25 133.883C195.156 133.883 198.061 133.883 200.967 133.883C204.277 133.883 200.659 132.199 199.346 131.673C196.02 130.343 191.174 130.239 188.42 132.754C186.813 134.221 187.52 136.069 187.168 138.008C186.994 138.965 186.435 143.982 185.842 144.392C184.688 145.191 182.611 142.478 182.159 141.79C180.953 139.952 180.375 138.202 179.998 136.044C179.351 132.349 179.31 127.843 179.31 124.062C179.31 122.07 178.138 114.932 179.998 113.749C183.683 111.404 189.878 111.785 194.092 111.785C196.905 111.785 198.912 112.038 201.532 112.693C204.775 113.504 209.709 113.265 212.556 114.878C216.495 117.11 220.374 118.761 224.195 121.213C227.174 123.126 230.785 124.47 234.09 125.682C237.383 126.89 240.722 129.468 243.494 131.673C245.8 133.507 246.832 135.793 247.816 138.499C248.149 139.414 248.678 141.061 248.16 141.986C247.847 142.544 244.444 140.696 243.74 140.415C241.852 139.66 237.844 137.952 236.57 136.314C235.838 135.372 237.533 133.984 236.914 132.508C235.739 129.705 233.385 124.201 229.72 123.742C227.955 123.522 231.854 130.322 232.691 131.673C233.649 133.221 235.336 134.129 235.809 136.019C236.041 136.946 235.893 137.986 236.546 138.77C237.411 139.808 237.394 144.027 237.552 145.375C237.944 148.704 238.467 151.737 238.976 155.049C239.359 157.535 241.265 159.331 241.972 161.629C242.421 163.09 242.03 165.737 241.604 167.228C241.503 167.579 240.979 166.806 240.793 166.491C239.614 164.486 238.76 162.328 238.093 160.107C236.812 155.848 235.266 151.612 233.476 147.535C230.703 141.219 227.876 135.52 223.802 129.979C220.582 125.6 218.765 120.19 216.436 115.32C215.869 114.135 213.93 109.872 214.717 108.494C215.364 107.362 219.003 108.714 219.677 109.133C226.852 113.586 233.012 118.884 240.843 122.294C244.056 123.693 253.838 127.643 247.03 131.821C242.671 134.495 240.745 131.256 238.043 127.843C236.283 125.619 238.261 119.403 239.173 116.99C240.625 113.147 247.438 93.2906 238.289 94.646C235.419 95.0712 233.81 97.5481 232.126 99.6059C229.997 102.208 226.294 104.346 223.311 105.793C223.137 105.878 219.872 107.161 219.873 107.169C220.014 108.152 224.217 108.256 225.03 108.47C230.472 109.902 232.065 114.67 235.441 118.66C236.447 119.849 233.934 119.205 233.329 119.004C231.046 118.243 228.714 117.28 227.264 115.296C225.071 112.295 223.469 110.328 219.579 111.097C214.989 112.004 211.714 114.452 208.088 117.285C205.377 119.402 202.179 121.755 200.525 124.847C199.604 126.569 197.876 131.027 200.328 132.312C203.911 134.188 206.662 138.711 209.119 141.839C211.27 144.577 213.993 146.489 215.748 149.573C216.826 151.466 218.253 154.296 220.315 155.368C222.946 156.736 226.578 159.518 229.695 159.518C231.934 159.518 230.381 146.135 230.137 145.129C229.247 141.466 227.952 138.515 226.135 135.16C223.481 130.261 219.833 127.3 215.896 123.62C213.704 121.571 211.155 120.689 208.235 120.158C204.709 119.516 204.679 121.413 206.369 124.504C207.322 126.248 208.377 127.592 209.782 128.997C212.158 131.374 213.698 134.417 215.552 137.198C218.849 142.144 224.012 144.973 227.387 149.794C228.831 151.857 233.479 146.73 234.557 146.037C237.261 144.299 236.344 140.121 239.222 138.057C244.178 134.504 247.383 130.09 250.91 125.388C252.993 122.61 256.437 119.987 259.307 118.193C261.809 116.63 263.777 115.216 265.2 112.423C267.063 108.766 266.625 103.025 266.796 99.0902C267.08 92.5718 266.006 85.7464 264.807 79.3734C264.513 77.8079 264.349 70.012 261.738 71.1724C260.98 71.5095 261.102 72.6648 261.075 73.3331C260.958 76.2575 260.243 79.1364 260.191 82.0743C260.034 91.0516 261.364 101.156 259.209 110.017C258.297 113.768 254.506 118.759 251.646 121.238C249.785 122.851 250.468 126.674 250.468 128.923C250.468 135.72 249.459 143.071 252.137 149.5C253.51 152.795 254.595 156.55 256.655 159.493C258.267 161.795 260.189 164.504 261.173 167.129C262.223 169.928 263.057 172.747 263.702 175.65C263.933 176.686 263.727 177.965 263.727 179.014C263.727 181.797 261.627 177.749 260.977 176.951C256.853 171.89 252.341 164.054 246.146 161.384C244.473 160.662 242.615 160.384 240.892 159.788C239.274 159.228 239.181 158.876 241.014 159.763C243.594 161.011 246.692 163.249 248.16 165.803C251.377 171.403 252.936 177.931 256.312 183.384C258.133 186.326 262.453 193.844 266.281 193.991C268.931 194.093 269.81 190.715 269.423 188.59C268.429 183.121 266.732 177.636 265.151 172.286C263.761 167.582 261.356 163.689 260.437 158.83C259.615 154.489 260.191 149.529 260.191 145.129C260.191 141.488 260.083 137.513 260.903 133.957C261.405 131.783 261.541 125.471 263.481 123.816C268.479 119.553 274.557 120.182 280.767 120.182C284.485 120.182 285.465 122.608 287.863 125.289C291.378 129.217 293.783 133.576 296.335 138.205C299.923 144.714 303.791 152.449 303.946 160.058C304.077 166.448 303.281 173.492 299.87 179.063C294.83 187.296 285.23 192.224 275.758 192.224C273.105 192.224 270.522 191.177 267.877 190.947C264.829 190.682 261.937 190.156 258.963 189.351C252.791 187.679 248.128 184.417 243.494 180.29C240.527 177.648 237.822 174.6 235.465 171.402C232.414 167.261 232.467 162.336 228.909 158.535C226.778 156.258 226.126 153.651 223.065 152.667C220.415 151.815 216.751 150.458 214.472 148.812C212.866 147.652 212.594 147.495 214.889 147.805C217.29 148.13 219.255 148.905 221.568 149.573C224.886 150.532 227.827 151.351 230.383 153.772C232.65 155.92 235.34 158.026 238.387 158.879C242.223 159.953 246.043 159.873 249.928 160.745C251.617 161.125 252.724 162.177 254.274 162.808C255.747 163.408 257.33 163.686 258.841 164.158C261.297 164.926 265.035 163.103 267.164 161.826C271.764 159.066 270.206 152.278 269.915 147.904C269.796 146.125 267.881 142.725 267.705 146.258C267.546 149.427 267.812 152.742 270.406 147.879C272.481 143.987 274.051 139.471 276.642 135.897C279.281 132.257 281.922 128.481 284.352 124.725C286.284 121.739 288.252 118.548 289.018 115.026C290.968 106.052 292.184 96.9981 292.013 87.7709C291.965 85.1581 291.281 82.6144 290.024 80.3801C287.564 76.006 280.489 75.5461 276.249 74.4135C273.539 73.6893 270.782 73.9781 268.073 73.3331C265.935 72.8241 263.61 72.8067 261.517 73.5541C258.681 74.5669 256.178 76.3086 253.365 77.4091C247.6 79.6649 246.354 84.5948 242.512 88.8021C239.867 91.6989 237.86 95.9764 234.581 98.2309C232.276 99.8157 230.208 101.633 228.271 103.731C228.185 103.824 231.365 102.724 231.856 102.479C235.726 100.544 239.679 97.8997 242.979 95.1371C244.872 93.5524 247.175 92.6388 248.847 90.7664C250.439 88.9835 252.032 87.2001 253.562 85.3646C254.706 83.9907 257.651 81.959 259.283 81.7551C261.289 81.5043 261.699 85.3194 261.861 86.7396C262.191 89.6433 254.725 91.6485 252.702 92.5589C251.345 93.1694 250.002 93.7039 248.602 94.204C247.396 94.6345 251.708 92.6317 252.334 92.3379C255.598 90.8065 259.955 87.9111 263.015 91.6504C263.757 92.558 266.03 93.2218 267.263 93.2218C268.777 93.2218 270.012 91.7835 271.216 91.0611C273.212 89.8632 275.545 89.4567 277.6 88.3847C278.481 87.9248 279.705 87.9943 280.325 87.1325C281.397 85.6445 274.605 90.6213 274.089 91.012C273.408 91.5275 270.066 93.3525 270.381 94.7687C270.757 96.4626 273.777 98.0124 275.071 98.9184C276.756 100.098 278.056 101.354 279.294 102.945C280.993 105.13 286.303 109.118 285.359 112.423C285.159 113.122 279.631 112.669 279.098 112.669C277.739 112.669 276.38 112.669 275.022 112.669C272.084 112.669 269.233 111.118 266.526 110.066C261.634 108.163 257.103 105.476 252.187 103.633C248.219 102.145 244.124 100.068 240.622 97.6661C235.972 94.4779 230.971 91.8619 226.061 89.1459C222.038 86.9204 217.556 85.6699 213.318 83.9159C204.261 80.1685 195.044 76.4669 185.547 74.0206C177.068 71.8366 169.841 66.4435 162.957 61.2034C159.98 58.9371 157.741 55.4193 154.658 53.4198C149.808 50.2741 143.649 49.0701 139.091 45.4889C138.437 44.975 137.677 43.7326 137.421 42.9353C135.86 38.0796 133.125 34.7393 128.827 32.0333C125.926 30.2064 123.414 27.8032 120.356 26.1894C117.318 24.5858 114.218 22.6968 111.05 21.3769C106.922 19.6569 113.525 22.4454 114.537 22.8501C117.655 24.0974 119.981 25.9477 122.738 27.7854C125.997 29.9584 127.271 32.9867 129.564 36.0847C129.834 36.4502 133.753 40.4708 133.689 40.529C131.636 42.3956 123.915 37.2327 122.345 36.453C116.23 33.4156 110.831 30.6187 103.93 30.4618C95.2463 30.2645 86.5182 30.4618 77.9023 30.4618C76.8961 30.4618 75.5789 30.3953 77.1902 31.1002C79.2067 31.9824 81.8374 31.9968 83.9917 32.2297C85.8234 32.4277 87.664 32.5622 89.4918 32.7699C93.3189 33.2048 96.4042 35.3104 100.099 36.1092C103.262 36.7931 105.95 38.5253 109.012 39.4731C110.778 40.0198 112.257 40.4693 113.898 41.2901C115.937 42.3095 117.062 46.2703 117.778 48.2389C118.011 48.8802 107.142 49.486 105.943 49.172C103.39 48.5034 102.544 46.4597 101.818 44.1138C100.769 40.7241 99.2421 37.3741 96.7597 34.7342C93.1436 30.8885 96.6757 40.9264 97.3245 42.1741C99.424 46.2117 101.095 50.1976 103.438 54.181C106.212 58.8956 110.591 59.2394 115.47 60.5405C122.981 62.5434 130.046 64.9554 137.814 66.0651C145.376 67.1455 152.848 66.6569 160.379 65.6232C164.111 65.1109 167.814 64.4345 171.551 63.9535C173.319 63.726 176.416 63.3259 177.444 61.5472C179.026 58.8093 178.461 53.6323 177.714 50.6452C177.097 48.1764 176.459 46.0087 175.087 43.8683C174 42.1719 172.949 39.8169 171.355 38.5155C170.183 37.5591 168.243 37.2426 166.886 36.6494C154.704 31.3263 142.724 25.521 129.466 23.3903C125.942 22.824 122.418 22.9483 118.858 22.9483C115.983 22.9483 112.101 23.6506 109.331 22.7273C108.336 22.3955 109.909 20.8679 110.363 20.4929C110.839 20.0997 111.714 20.3302 112.278 20.1983C113.393 19.9372 114.409 19.1469 115.47 18.725C117.798 17.7993 120.306 18.0866 122.762 18.0866C125.314 18.0866 128.052 17.8039 130.571 18.3076C136.846 19.5627 143.274 20.081 149.551 21.426C153.604 22.2945 156.256 26.0984 159.422 28.473C161.47 30.0091 163.087 31.6086 165.511 32.5735C168.738 33.8584 172.346 34.4668 175.431 36.0601C178.004 37.3894 180.536 38.8222 183.092 40.1852C184.335 40.8485 185.861 41.3002 186.799 42.3951C189.028 44.9958 192.462 46.4414 195.761 47.1585C200.427 48.1727 205.116 49.0313 209.905 49.4666C216.237 50.0423 220.686 49.3686 226.454 46.5692C228.914 45.3756 231.437 44.3115 233.918 43.1562C235.989 42.1925 239.104 41.7765 240.744 40.1361C243.447 37.4333 241.293 32.1799 239.959 29.2341C237.438 23.6703 229.462 23.5465 224.342 23.8568C219.474 24.1519 220.654 32.1031 221.641 35.0289C222.351 37.1301 223.597 38.9448 224.612 40.8973C225.541 42.6834 226.428 45.133 224.588 41.9777C220.903 35.6601 219.767 27.5784 215.306 21.6715C214.621 20.7642 213.058 19.1579 212.974 21.2295C212.835 24.6381 213.48 28.1109 213.981 31.4685C214.415 34.384 215.208 38.2878 214.226 41.1183C213.514 43.1717 211.497 39.9498 210.887 39.3258C208.829 37.2223 207.114 37.0048 204.355 36.453C199.658 35.5135 196.406 34.9027 191.833 36.7968C185.712 39.3316 180.818 37.6965 174.596 35.7655C167.606 33.5962 164.943 29.608 164.038 22.7028C163.643 19.6921 163.071 16.8024 162.564 13.8879C161.76 9.26016 170.115 13.8471 171.649 15.1401C176.509 19.2363 181.216 23.3462 186.21 27.2698C188.311 28.9205 192.356 31.9998 192.913 34.7833C193.731 38.8748 183.708 37.3793 181.962 36.8459C179.572 36.1156 177.767 34.5386 175.971 32.8681C173.899 30.9404 170.927 29.9604 169.047 27.8591C166.173 24.6478 162.186 20.6917 163.006 15.975C163.579 12.6802 164.883 11.2741 167.917 13.2249C170.883 15.1316 174.191 15.4891 177.641 15.8522C179.034 15.9989 176.903 15.3005 176.511 14.9928C175.608 14.2833 175.409 12.7711 174.449 12.2428C173.515 11.7295 169.919 11.2991 169.538 12.5374C168.321 16.492 165.734 20.774 168.948 24.4215C171.408 27.2119 176.683 27.8384 178.132 23.7831C178.949 21.4937 179.944 15.8227 177.886 13.7651C176.223 12.1016 181.66 16.8498 182.625 18.9951C183.482 20.9003 184.484 22.803 185.891 24.3724C187.919 26.6359 189.493 28.5771 191.293 31.0511C193.418 33.9736 185.139 26.1025 184.589 22.5309C184.294 20.6106 184.166 18.5436 183.386 16.7607C183.297 16.5569 186.655 19.0668 187.118 19.7563C190.142 24.253 192.032 29.1629 195.835 33.0891C199.721 37.1008 204.937 41.18 208.038 45.8326C208.655 46.7567 209.259 47.7228 209.733 48.73C209.982 49.2603 208.689 48.1447 208.309 47.6987C207.077 46.2553 206.623 44.5365 206.025 42.7634C204.345 37.7869 205.009 33.2279 203.815 28.2029C203.58 27.2115 199.509 18.0866 202.563 18.0866C204.855 18.0866 208.042 17.2857 209.61 19.3143C211.149 21.3064 211.697 24.7983 212.213 27.1716C212.921 30.4315 213.733 33.6645 214.447 36.9195C214.572 37.4883 215.234 42.3253 214.766 39.9397C214.323 37.6789 213.784 35.5787 213.784 33.261C213.784 28.6996 213.659 24.2139 213.367 19.6826C213.013 14.1985 214.492 11.1435 219.481 8.70699C225.541 5.74727 234.976 7.19341 240.892 9.93469C245.944 12.2758 250.881 14.7387 255.747 17.3745C257.76 18.4648 260.062 18.8374 261.959 20.1983C263.51 21.3111 264.703 23.2337 266.477 23.9305C268.179 24.599 269.895 25.4977 271.511 26.2631C273.758 27.3275 273.049 29.5043 272.026 31.3458C270.245 34.5514 263.408 30.8438 261.492 29.848C259.544 28.835 257.831 25.7456 256.508 24.0287C254.699 21.6822 252.804 18.8389 250.271 17.2027C247.198 15.2171 240.327 11.8699 236.374 13.6669C233.578 14.9377 230.385 14.6017 227.387 14.5508C221.71 14.4546 216.011 13.3278 210.666 11.457C207.969 10.5132 205.284 10.0608 202.44 9.78736C199.244 9.48003 197.136 7.88364 194.288 6.44802C188.914 3.7384 183.023 2.03504 177.076 1.29168C170.197 0.43186 163.758 1.66423 156.917 2.51938C150.648 3.30297 144.548 4.38292 138.379 5.78506C134.176 6.74019 130.345 7.78356 126.028 8.01948C120.41 8.3265 114.684 8.47163 109.086 9.00164C103.731 9.50859 97.875 9.94812 93.1503 12.783C87.9967 15.8751 84.2714 20.0728 80.6523 24.7653C76.1811 30.5628 72.7442 36.9321 68.6454 42.9598C65.5732 47.4778 61.1172 50.5734 57.6698 54.7703C56.4614 56.2414 54.9412 57.8704 54.0849 59.5829C53.9326 59.8874 54.8258 59.6237 55.0916 59.411C56.8204 58.0279 58.3166 56.3747 59.806 54.7457C61.7881 52.5778 63.622 50.2924 65.6253 48.1407C70.7813 42.6028 75.3402 39.0762 82.1747 35.6182C86.4454 33.4573 90.907 31.6349 95.0655 29.2587C97.0176 28.1432 97.3274 28.01 97.791 30.7074C98.7487 36.2796 97.9495 46.6671 103.733 49.8104C110.099 53.27 116.921 56.3879 123.646 59.0427C126.587 60.2034 128.63 62.0948 131.921 62.382C136.279 62.7625 140.667 62.7966 145.033 63.0695C151.988 63.5042 159.566 64.4628 166.223 66.5808C173.32 68.839 179.246 73.0891 185.252 77.36C187.919 79.256 191.401 80.1645 193.895 82.1725C200.03 87.1105 204.794 93.0728 210.003 98.8202C210.312 99.1619 211.476 100.719 210.199 99.4831C206.005 95.4245 204.521 91.3458 203.619 85.782C202.896 81.3266 202.664 76.8977 202.096 72.4492C201.666 69.0796 199.28 64.4058 201.409 61.2525C205.569 55.0898 211.305 54.1584 218.277 53.518C224.394 52.9563 229.651 51.8519 233.403 57.2257C235.556 60.3103 235.441 63.4395 235.441 67.0473C235.441 73.4342 236.536 81.31 233.771 87.3289C230.86 93.6657 220.388 92.9056 215.822 89.2932C211.646 85.9887 199.187 76.0263 203.619 78.9805C205.727 80.3859 206.921 83.9335 208.382 85.9539C212.864 92.1491 218.698 95.1867 226.061 96.3648C230.151 97.0192 234.154 98.1206 238.24 98.8202C240.366 99.1842 250.041 100.894 241.972 99.9005C234.574 98.9896 227.167 98.1087 219.775 97.175C215.783 96.6707 212.001 95.8737 207.965 95.8737C202.841 95.8737 197.386 96.4815 192.324 95.6772C189.824 95.2801 189.203 94.2604 188.15 97.1996C186.373 102.157 184.054 106.789 181.741 111.515C180.81 113.417 179.346 114.718 178.181 116.45C177.149 117.982 175.032 120.606 174.891 122.392C174.461 127.827 176.557 133.438 180.612 136.953C182.229 138.355 183.614 139.271 184.859 141.102C186.776 143.921 187.003 142.998 189.034 140.12C193.704 133.499 196.46 127.503 204.454 125.044C210.364 123.225 212.371 116.571 216.436 112.669C218.248 110.929 220.729 110.199 222.501 108.323C222.901 107.899 224.423 106.529 222.722 107.34C220.118 108.583 217.541 110.047 215.184 111.711C210.361 115.115 206.168 120.016 201.065 122.932C199.624 123.755 196.003 120.88 195.27 119.838C193.062 116.7 190.484 113.021 190.335 109.084C190.192 105.292 190.109 101.479 189.476 97.7398C188.942 94.5922 188.922 92.2168 190.949 89.637C192.349 87.8546 195.654 83.4985 198.315 83.4985C199.339 83.4985 199.711 88.6549 199.813 89.3914C200.426 93.8197 199.641 98.3256 198.953 102.7C198.231 107.3 197.748 111.69 197.971 116.352C198.145 119.974 199.199 123.529 199.199 127.155C199.199 129.847 196.918 122.255 196.179 119.666C194.977 115.46 194.96 111.23 194.755 106.923C194.585 103.356 194.337 99.8626 194.337 96.2665C194.337 93.2513 194.674 90.0946 192.815 87.5253C191.065 85.1078 189.047 83.072 186.726 81.2149C185.51 80.2428 181.376 76.0064 183.313 79.7908C186.95 86.9006 193.302 92.0143 198.61 97.838C202.138 101.71 206.372 104.536 210.764 107.316C213.567 109.09 215.72 111.531 218.376 113.503C219.24 114.145 220.08 114.764 220.856 115.517C221.52 116.162 223.681 117.36 222.771 117.53C220.834 117.893 217.493 116.218 215.994 115.468C211.321 113.131 207.154 109.918 203.471 106.235C201.312 104.076 199.259 101.831 197.038 99.7287C195.136 97.9279 192.618 96.2241 191.244 93.9339C188.904 90.0352 187.056 85.6093 185.252 81.4359C184.186 78.9673 181.843 71.3832 181.962 74.0697C182.107 77.3202 184.053 80.3108 184.516 83.5476C184.917 86.3581 185.768 92.2013 182.601 93.8602C178.543 95.9855 169.403 95.5759 165.314 94.2531C161.159 92.9088 157.56 90.0401 153.799 87.9182C151.342 86.5321 148.654 85.6381 146.383 83.9159C144.763 82.6867 140.543 78.469 144.738 78.6368C146.38 78.7025 149.532 78.8952 150.877 79.889C153.336 81.707 155.554 84.4409 157.678 86.6414C160.37 89.4294 163.291 91.6886 166.149 94.3022C168.182 96.1613 169.797 98.4308 171.846 100.244C176.356 104.237 178.426 111.829 178.426 117.825C178.426 122.579 177.948 127.751 179.752 132.263C180.628 134.452 182.551 135.938 182.944 138.254C183.417 141.035 184.132 142.408 187.069 140.857C191.443 138.546 192.728 133.901 194.607 129.709C195.597 127.501 197.437 125.549 198.61 123.423C200.001 120.901 199.665 118.112 199.641 115.32C199.506 99.3731 196.934 83.2057 197.873 67.2437C198.075 63.8054 200.469 57.9657 203.766 56.3172C208.229 54.0858 211.428 53.2529 214.717 49.3193C217.898 45.5143 219.17 39.3388 221.396 35.0043C222.293 33.2572 223.877 31.9523 224.735 30.1181C225.701 28.0521 225.789 27.8739 228.124 28.4484C232.886 29.62 237.245 29.4065 242.046 29.6024C244.931 29.7202 248.081 29.8468 250.91 30.4618C252.055 30.7109 251.352 38.1309 251.352 39.2522C251.352 47.8602 252.324 56.2012 253.218 64.7392C253.572 68.1202 255.372 70.409 258.079 72.4737C258.572 72.8493 262.333 75.5494 262.843 73.7014C264.805 66.5895 264.069 58.297 257.588 54.0337C257.148 53.7437 253.121 50.8869 252.727 51.9711C251.781 54.5718 253.174 58.2854 252.825 61.0316C252.64 62.483 251.949 63.7466 251.401 65.083C250.547 67.1663 250.021 70.1137 248.602 71.909C247.268 73.5955 242.948 73.7774 241.039 73.9224C237.763 74.1712 234.557 65.337 234.557 62.4802C234.557 59.2894 241.57 59.4388 243.396 56.8819C246.776 52.1501 249.406 43.9349 247.742 38.3191C247.046 35.9709 246.278 33.8123 244.28 32.3279C243.141 31.4818 242.701 31.5511 243.298 33.0154C244.255 35.3643 251.75 34.8815 253.684 34.8815C259.401 34.8815 265.584 36.0368 270.602 38.8593C271.908 39.5941 273.13 41.7993 273.819 43.0335C275.405 45.876 277.052 48.8605 278.287 51.8729C280.127 56.3558 281.174 61.5249 282.535 66.2124C284.49 72.9449 287.276 78.1755 285.629 85.6592C284.964 88.6818 283.79 91.5194 283.002 94.4986C282.323 97.0622 282.756 99.6548 281.872 102.233C281.29 103.931 281.35 105.623 280.669 107.316C279.498 110.23 278.369 113.144 277.33 116.106C275.355 121.737 273.01 128.726 267.901 132.263C262.78 135.808 256.583 137.309 250.861 139.531C248.47 140.459 246.344 141.852 244.133 143.116C243.062 143.727 246.592 143.429 247.767 143.803C250.322 144.616 250.083 147.281 252.137 148.91C254.681 150.927 256.347 156.938 257.76 159.812C258.777 161.882 259.089 163.975 259.847 166.098C260.365 167.546 260.815 168.999 261.075 170.518C261.251 171.542 261.038 173.705 261.615 174.594C261.895 175.025 262.479 174.024 262.843 173.661C264.388 172.116 265.584 170.288 266.87 168.529C268.788 165.905 272.503 163.1 273.671 160.009C274.657 157.399 275.121 154.868 276.888 152.643C281.012 147.449 268.286 162.772 264.562 168.259C262.546 171.228 260.32 174.683 259.651 178.277C258.294 185.571 255.653 191.908 252.751 198.706C251.846 200.827 250.96 206.197 248.356 207.251C245.315 208.481 241.449 208.232 238.24 209.018C232.705 210.375 227.272 212.153 221.74 213.536C216.997 214.722 210.087 217.206 207.13 221.271C205.499 223.513 204.471 226.351 203.717 229.005C202.933 231.765 201.661 234.332 200.967 237.108C200.776 237.872 200.615 238.631 200.549 239.416C200.421 240.96 200.693 236.322 200.77 234.776C200.959 231.011 201.009 227.159 201.63 223.432C201.857 222.071 202.244 220.827 202.244 219.429C202.244 218.524 202.245 216.626 200.967 216.434C199.418 216.201 198.24 222.422 197.971 223.604C196.843 228.569 195.971 233.132 194.092 237.992C192.689 241.621 190.744 244.969 189.476 248.649C188.967 250.124 188.642 251.253 190.654 250.367C194.511 248.67 197.617 247.35 200.672 244.573C202.216 243.17 199.979 248.688 199.739 250.76C199.421 253.509 198.575 257.309 199.494 259.993C200.502 262.936 201.657 265.851 202.882 268.709C203.257 269.585 202.941 271.242 202.514 269.962C199.653 261.379 204.326 252.232 205.043 243.787C205.497 238.443 206.393 222.39 206.393 227.753C206.393 228.782 207.301 225.907 207.744 224.979C208.915 222.52 210.195 220.136 211.525 217.76C212.185 216.581 212.893 214.968 213.882 213.978C217.449 210.412 223.827 210.313 228.369 209.239C233.769 207.963 239.598 205.648 244.035 202.291C247.564 199.62 249.595 196.19 252.678 193.107"/>
</svg>
