<svg width="360" height="313" viewBox="0 0 360 313" fill="none" xmlns="http://www.w3.org/2000/svg">
<rect opacity="0.5" y="3" width="360" height="310" fill="#EE6C4D"/>
<g clip-path="url(#clip0_192_10395)">
<path d="M68.1376 142.33C56.9704 137.738 48.0184 129.14 43.1142 118.296C40.3703 112.154 39.0307 105.493 38.2679 98.8304C37.5196 92.2939 37.3668 85.3988 40.2401 79.4533C41.8132 76.198 44.2209 73.3972 47.2284 71.3239C50.236 69.2505 53.7408 67.9754 57.4014 67.6227C61.062 67.27 64.7535 67.8517 68.1161 69.3113C71.4788 70.7708 74.3979 73.0584 76.589 75.951C78.4749 78.4407 79.8009 81.4282 79.8347 84.5277C79.9057 91.0292 74.5662 96.2468 72.2238 102.331C69.8032 108.618 70.6756 115.584 71.0872 122.291C71.4987 128.998 71.2378 136.269 67.0813 141.615" fill="#F2F2F2"/>
<path d="M268.421 224.54C280.214 221.835 290.505 214.82 297.188 204.929C300.94 199.321 303.395 192.972 305.282 186.527C307.134 180.204 308.459 173.431 306.639 167.1C305.642 163.633 303.745 160.478 301.133 157.943C298.521 155.407 295.282 153.578 291.733 152.632C288.184 151.687 284.445 151.658 280.881 152.548C277.317 153.438 274.049 155.216 271.396 157.711C269.112 159.858 267.296 162.587 266.734 165.637C265.557 172.036 269.933 178.052 271.206 184.434C272.522 191.028 270.475 197.754 268.926 204.3C267.378 210.846 266.397 218.057 269.584 224.008" fill="#F2F2F2"/>
<path d="M178.481 214.1C161.671 214.152 145.316 208.755 131.969 198.751C118.9 188.975 109.352 175.377 104.71 159.928L105.375 159.739C114.762 191.347 144.824 213.423 178.481 213.423C188.544 213.441 198.511 211.494 207.796 207.696L208.063 208.321C198.693 212.154 188.636 214.119 178.481 214.1Z" fill="#E6E6E6"/>
<path d="M251.147 116.615C241.162 85.3591 211.959 64.3592 178.48 64.3592C168.56 64.3416 158.732 66.2335 149.557 69.9272L149.294 69.3006C161.568 64.3792 174.933 62.6481 188.091 64.2755C201.25 65.9028 213.755 70.8334 224.394 78.5885C237.341 88.0851 246.927 101.311 251.807 116.412L251.147 116.615Z" fill="#E6E6E6"/>
<path d="M271.907 237.814C240.425 237.814 214.813 212.738 214.813 181.916C214.813 151.093 240.425 126.017 271.907 126.017C303.388 126.017 329 151.093 329 181.916C329 212.738 303.388 237.814 271.907 237.814ZM271.907 126.695C240.807 126.695 215.506 151.467 215.506 181.916C215.506 212.365 240.807 237.137 271.907 237.137C303.007 237.137 328.308 212.365 328.308 181.916C328.308 151.467 303.007 126.695 271.907 126.695Z" fill="#3F3D56"/>
<path d="M86.0934 153.797C54.612 153.797 29 128.721 29 97.8986C29 67.0759 54.612 42 86.0934 42C117.575 42 143.187 67.0759 143.187 97.8986C143.187 128.721 117.575 153.797 86.0934 153.797ZM86.0934 42.6776C54.9936 42.6776 29.692 67.4496 29.692 97.8986C29.692 128.348 54.9936 153.12 86.0934 153.12C117.193 153.12 142.495 128.348 142.495 97.8986C142.495 67.4496 117.193 42.6776 86.0934 42.6776Z" fill="#3F3D56"/>
<path d="M81.654 98.2127L76.6123 107.8L81.5904 110.594C81.5904 110.594 85.0055 99.825 85.106 99.4163C85.621 99.2103 86.0599 98.856 86.3647 98.4004C86.6696 97.9448 86.826 97.4094 86.8132 96.8648C86.8004 96.3203 86.6192 95.7925 86.2933 95.351C85.9675 94.9096 85.5124 94.5754 84.9884 94.3927C84.4643 94.21 83.8959 94.1873 83.3585 94.3277C82.821 94.4682 82.3397 94.765 81.9783 95.1791C81.6169 95.5931 81.3924 96.1048 81.3345 96.6465C81.2766 97.1882 81.388 97.7344 81.654 98.2127V98.2127Z" fill="#A0616A"/>
<path d="M55.7803 99.5171C58.0292 107.675 66.1128 112.856 72.8254 119.068C73.652 119.352 74.53 119.464 75.4033 119.397C76.2766 119.33 77.126 119.085 77.8972 118.678C78.6683 118.271 79.3443 117.711 79.8818 117.034C80.4193 116.357 80.8066 115.577 81.0189 114.745L83.2814 106.077L77.531 105.926L75.1513 108.458L67.4514 103.086L55.7803 99.5171Z" fill="#3F3D56"/>
<path d="M263.419 190.601C264.395 190.664 265.308 191.097 265.963 191.809C266.618 192.52 266.964 193.454 266.927 194.411C266.916 194.605 266.889 194.799 266.846 194.989L277.933 201.827L271.803 204.482L262.215 197.581C261.424 197.344 260.735 196.857 260.256 196.197C259.776 195.537 259.534 194.74 259.566 193.931C259.589 193.47 259.704 193.019 259.905 192.602C260.106 192.185 260.389 191.811 260.738 191.502C261.087 191.192 261.494 190.953 261.937 190.797C262.38 190.642 262.85 190.573 263.321 190.595C263.353 190.597 263.386 190.599 263.419 190.601Z" fill="#FFB6B6"/>
<path d="M274.11 198.719L271.362 204.27L282.227 211.115C283 211.606 283.888 211.896 284.808 211.956C285.727 212.016 286.647 211.845 287.481 211.459C288.493 210.985 289.321 210.201 289.839 209.225C290.357 208.25 290.537 207.136 290.353 206.052L286.827 186.347C286.591 184.968 285.823 183.73 284.683 182.888C283.543 182.046 282.116 181.664 280.697 181.82C279.301 181.97 278.023 182.656 277.144 183.728C276.264 184.801 275.856 186.171 276.009 187.538C276.015 187.591 276.022 187.644 276.029 187.698C276.056 187.887 276.093 188.075 276.14 188.26L279.989 202.274L274.11 198.719Z" fill="#EE6C4D"/>
<path d="M264.235 200.969L260.144 190.633C260.005 190.28 260.014 189.886 260.17 189.539C260.327 189.192 260.617 188.92 260.978 188.783L263.279 187.91C263.641 187.773 264.043 187.782 264.397 187.935C264.751 188.089 265.029 188.373 265.17 188.727L269.261 199.062C269.4 199.416 269.391 199.81 269.235 200.157C269.078 200.504 268.788 200.776 268.427 200.913L266.126 201.786C265.764 201.923 265.362 201.914 265.008 201.76C264.654 201.607 264.376 201.323 264.235 200.969Z" fill="#3F3D56"/>
<path d="M261.457 189.208C261.262 189.282 261.106 189.429 261.021 189.616C260.937 189.803 260.932 190.015 261.007 190.205L265.098 200.541C265.174 200.732 265.324 200.885 265.515 200.968C265.706 201.05 265.922 201.055 266.117 200.981L268.418 200.108C268.612 200.034 268.769 199.888 268.853 199.701C268.938 199.514 268.943 199.302 268.867 199.111L264.776 188.775C264.7 188.585 264.551 188.431 264.36 188.349C264.169 188.266 263.952 188.261 263.757 188.335L261.457 189.208Z" fill="#EE6C4D"/>
<path d="M273.338 222.537H288.875V207.324H273.338V222.537Z" fill="#FFB8B8"/>
<path d="M236.491 252.126L230.557 250.171L227.253 265.985L231.274 267.309L236.491 252.126Z" fill="#FFB6B6"/>
<path d="M247.015 249.117L240.922 250.527L246.652 265.663L250.78 264.707L247.015 249.117Z" fill="#FFB6B6"/>
<path d="M288.318 226.511C291.432 246.837 249.961 234.82 249.961 234.82L236.958 252.382L229.346 251.027C229.346 251.027 232.771 240.484 238.888 226.35C241.605 220.074 272.452 221.607 272.452 221.607L273.093 216.686L290.74 216.347L288.318 226.511Z" fill="#2F2E41"/>
<path d="M248.652 230.459L237.357 230.713C239.168 245.961 240.764 252.043 240.764 252.043L247.339 250.01L248.652 230.459Z" fill="#2F2E41"/>
<path d="M279.441 182.604L282.569 178.668L287.03 178.479L287.475 182.181L289.686 183.179C291.893 191.388 292.234 199.972 290.684 208.325C290.388 208.598 290.172 208.944 290.057 209.326C289.943 209.708 289.935 210.114 290.034 210.5L290.177 211.059L290.164 211.08C289.693 211.807 289.534 212.685 289.72 213.526L290.775 215.363C291.154 216.023 291.381 216.756 291.441 217.511C291.501 218.267 291.393 219.026 291.123 219.735C290.853 220.445 290.429 221.089 289.879 221.622C289.329 222.155 288.667 222.565 287.94 222.822C281.451 225.125 275.368 225.982 270.868 219.52L269.453 197.002L279.441 182.604Z" fill="#EE6C4D"/>
<path d="M282.718 179.713C287.274 179.713 290.966 176.098 290.966 171.638C290.966 167.178 287.274 163.562 282.718 163.562C278.163 163.562 274.47 167.178 274.47 171.638C274.47 176.098 278.163 179.713 282.718 179.713Z" fill="#FFB8B8"/>
<path d="M286.859 161.902C290.351 161.968 293.121 165.14 293.046 168.987C295.63 171.627 294.776 174.858 292.616 178.313C288.666 178.762 287.744 178.949 284.279 180.332L283.823 178.244L282.788 180.963C281.908 181.361 281.034 181.797 280.167 182.272C279.544 179.473 279.698 176.753 281.373 174.384C282.861 172.279 279.24 169.78 276.65 170.133L276.688 168.2L276.038 170.122C275.028 170.848 273.912 170.585 272.767 170.06V170.06C270.91 160.612 285.286 158.028 286.859 161.902Z" fill="#2F2E41"/>
<path d="M233.101 269.984L230.457 269.646L230.311 267.142L228.777 269.431L221.765 268.534C221.429 268.491 221.115 268.344 220.871 268.115C220.626 267.885 220.462 267.585 220.404 267.258C220.346 266.931 220.396 266.594 220.548 266.297C220.699 266 220.943 265.758 221.244 265.607L227.349 262.537L227.679 260.066L233.522 261.163L233.101 269.984Z" fill="#2F2E41"/>
<path d="M252.298 268.559L249.653 268.892L248.86 266.507L247.972 269.104L240.959 269.987C240.622 270.03 240.281 269.966 239.985 269.805C239.688 269.644 239.452 269.394 239.311 269.093C239.169 268.791 239.13 268.453 239.199 268.128C239.268 267.803 239.441 267.508 239.693 267.286L244.796 262.793L244.471 260.322L250.408 259.924L252.298 268.559Z" fill="#2F2E41"/>
<path d="M264.413 192.491C265.389 192.553 266.302 192.986 266.957 193.698C267.613 194.409 267.958 195.343 267.921 196.3C267.91 196.495 267.883 196.688 267.84 196.878L278.927 203.717L272.798 206.371L263.209 199.47C262.418 199.233 261.729 198.747 261.25 198.086C260.771 197.426 260.528 196.629 260.56 195.82C260.583 195.359 260.699 194.908 260.9 194.491C261.101 194.075 261.383 193.701 261.732 193.391C262.081 193.081 262.488 192.842 262.931 192.686C263.374 192.531 263.845 192.462 264.315 192.485C264.347 192.486 264.38 192.488 264.413 192.491Z" fill="#FFB6B6"/>
<path d="M275.105 200.609L272.357 206.159L283.222 213.004C283.995 213.496 284.883 213.785 285.803 213.846C286.723 213.906 287.643 213.735 288.476 213.349C289.488 212.874 290.316 212.09 290.834 211.115C291.352 210.14 291.532 209.026 291.348 207.941L287.822 188.236C287.586 186.858 286.818 185.62 285.678 184.778C284.538 183.936 283.111 183.554 281.692 183.71C281.001 183.784 280.331 183.991 279.722 184.318C279.112 184.645 278.574 185.087 278.139 185.618C277.703 186.149 277.379 186.759 277.184 187.412C276.99 188.066 276.928 188.75 277.004 189.427C277.01 189.481 277.017 189.534 277.024 189.587C277.051 189.777 277.088 189.965 277.135 190.15L280.984 204.164L275.105 200.609Z" fill="#EE6C4D"/>
<path d="M67.2061 199.538L70.6912 201.077L78.4137 188.648L73.2701 186.376L67.2061 199.538Z" fill="#A0616A"/>
<path d="M65.4434 203.043L76.1602 207.777L76.2213 207.644C76.7204 206.561 76.7596 205.328 76.3302 204.216C75.9009 203.105 75.0383 202.206 73.9321 201.717L73.9318 201.717L72.6443 199.399L68.3218 199.239L67.3863 198.826L65.4434 203.043Z" fill="#2F2E41"/>
<path d="M110.37 182.636L114.051 181.624L111.817 167.242L106.384 168.735L110.37 182.636Z" fill="#A0616A"/>
<path d="M111.318 186.431L122.637 183.32L122.597 183.18C122.269 182.036 121.49 181.066 120.432 180.484C119.374 179.902 118.123 179.756 116.955 180.077L116.954 180.077L114.447 179.109L111.029 181.706L110.041 181.977L111.318 186.431Z" fill="#2F2E41"/>
<path d="M54.66 140.611C54.7541 143.277 60.5457 150.47 63.5917 151.502C64.1094 151.677 64.412 151.774 64.412 151.774L65.4722 151.46L78.3105 147.657C80.5586 148.952 87.2646 149.61 92.7671 149.939C97.1467 150.2 99.5879 152.442 99.5879 152.442C100.88 162.063 104.605 169.076 108.9 177.696L114.055 176.819L109.185 144.71C109.08 144.016 108.769 143.369 108.291 142.847C107.813 142.325 107.189 141.952 106.496 141.775L71.4633 132.803C71.4633 132.803 69.5312 132.461 65.4565 134.385C58.7482 137.554 54.5927 138.671 54.66 140.611Z" fill="#2F2E41"/>
<path d="M61.3546 140.095C60.1797 142.502 61.9208 151.501 64.1353 153.794L64.7231 154.186L64.9219 154.287C66.2503 158.686 80.5057 171.553 80.5057 171.553C75.6905 177.559 71.3993 184.886 69.4846 193.095L75.0524 195.087L90.7252 172.18C91.1357 171.58 91.3511 170.872 91.3431 170.15C91.335 169.428 91.1038 168.725 90.68 168.134L84.2861 159.217L73.8676 139.458C66.4229 139.233 62.2106 138.344 61.3546 140.095Z" fill="#2F2E41"/>
<path d="M54.8701 141.659C54.8529 141.659 54.4448 140.613 54.4365 140.611C54.2978 140.573 52.4193 140.391 52.8418 137.346L53.3822 133.995L52.8546 131.036L51.9671 130.167L53.3935 128.771L52.5193 122.437L52.1837 109.756C51.3414 105.4 51.5613 101.416 55.6419 99.4974L60.32 95.2491L65.6432 95.186L71.6825 98.6914L74.6085 104.403L75.7434 119.881L76.5909 121.817L76.5183 121.881C76.5127 121.886 75.9481 122.386 75.6945 122.661C75.5716 122.831 75.8021 124.107 76.0867 125.19L76.4517 127.864L75.532 128.507L76.7278 129.89L79.9877 135.285L79.7924 135.238C79.5724 135.184 77.5223 138.197 55.0208 141.547C54.917 141.563 54.9133 141.659 54.8701 141.659Z" fill="#3F3D56"/>
<path d="M80.6353 108.161L78.7726 107.209C78.4803 107.06 78.2607 106.803 78.1618 106.495C78.0629 106.186 78.0929 105.853 78.2451 105.566L82.705 97.198C82.8579 96.9119 83.1205 96.6968 83.4351 96.6C83.7498 96.5032 84.0908 96.5326 84.3834 96.6817L86.2462 97.6333C86.5384 97.783 86.7581 98.0401 86.857 98.3482C86.9559 98.6563 86.9259 98.9902 86.7736 99.2766L82.3138 107.645C82.1609 107.931 81.8983 108.146 81.5836 108.243C81.269 108.34 80.9279 108.31 80.6353 108.161Z" fill="#3F3D56"/>
<path d="M83.9382 96.9971C83.7805 96.9167 83.5967 96.9009 83.4271 96.9531C83.2576 97.0052 83.1161 97.1211 83.0337 97.2753L78.5738 105.643C78.4918 105.798 78.4756 105.978 78.5289 106.144C78.5822 106.31 78.7006 106.448 78.8581 106.529L80.7208 107.481C80.8785 107.561 81.0623 107.577 81.2318 107.525C81.4014 107.472 81.5429 107.357 81.6253 107.202L86.0851 98.8343C86.1672 98.6799 86.1833 98.5 86.1301 98.3339C86.0768 98.1679 85.9584 98.0294 85.8009 97.9487L83.9382 96.9971Z" fill="#EE6C4D"/>
<path d="M64.1803 94.0436C68.3838 94.0436 71.7914 90.7073 71.7914 86.5919C71.7914 82.4764 68.3838 79.1401 64.1803 79.1401C59.9769 79.1401 56.5693 82.4764 56.5693 86.5919C56.5693 90.7073 59.9769 94.0436 64.1803 94.0436Z" fill="#A0616A"/>
<path d="M60.4371 91.3913C60.1035 91.1315 59.6872 90.9946 59.261 91.0046C59.1288 91.0258 59.0027 91.0744 58.891 91.147C58.7794 91.2195 58.6848 91.3145 58.6134 91.4255C58.5738 91.4744 58.5223 91.5127 58.4637 91.5371C58.4051 91.5616 58.3412 91.5713 58.2778 91.5654C57.4657 91.5943 55.7347 90.1193 55.6163 87.2732C55.5601 85.9205 54.7335 83.6317 56.0494 82.3921C56.1376 81.8918 57.1651 76.7212 61.797 76.5787C66.539 76.4311 69.6957 77.3638 70.454 79.1332C70.9806 80.5381 71.381 81.9852 71.6505 83.4582L71.8095 84.3341L71.438 83.5223C71.431 83.5071 70.7533 82.0537 69.4966 81.5689C69.4762 81.8054 69.4148 82.0368 69.315 82.2531C68.9049 83.1232 67.8712 83.6909 66.6815 83.6997C65.8594 83.6749 65.0488 83.5043 64.2889 83.196C64.375 83.3176 64.4233 83.4609 64.428 83.6087C64.4327 83.7565 64.3937 83.9026 64.3156 84.0292C64.2375 84.1558 64.1237 84.2575 63.9879 84.3222C63.8521 84.387 63.7 84.4118 63.5501 84.3938L63.3301 84.3671C63.2608 84.3586 63.1907 84.3741 63.1318 84.411C63.073 84.4479 63.0292 84.5038 63.0081 84.5689C62.9869 84.6341 62.9897 84.7045 63.016 84.7678C63.0423 84.8312 63.0905 84.8835 63.1521 84.9158L63.3458 85.0171L63.1107 85.1285C62.1645 85.5417 61.3848 86.2504 60.8937 87.1435C60.4025 88.0367 60.2274 89.0641 60.3959 90.065L60.67 91.5743L60.4371 91.3913Z" fill="#2F2E41"/>
<path d="M180.941 206.538C180.733 206.548 180.527 206.494 180.351 206.385C180.175 206.276 180.038 206.116 179.957 205.928C179.877 205.74 179.857 205.532 179.902 205.333C179.946 205.133 180.052 204.952 180.205 204.814L180.275 204.543C180.265 204.521 180.256 204.499 180.247 204.478C180.037 203.993 179.686 203.579 179.237 203.289C178.788 202.999 178.262 202.846 177.724 202.847C177.186 202.849 176.661 203.007 176.214 203.3C175.767 203.594 175.419 204.01 175.213 204.496C174.39 206.437 173.342 208.382 173.083 210.435C172.97 211.342 173.018 212.262 173.225 213.153C171.291 209.023 170.287 204.535 170.281 199.991C170.28 198.851 170.345 197.712 170.475 196.579C170.582 195.65 170.73 194.728 170.92 193.813C171.956 188.845 174.182 184.188 177.413 180.226C178.977 179.391 180.242 178.106 181.037 176.545C181.325 175.984 181.529 175.385 181.642 174.767C181.465 174.789 181.286 174.803 181.109 174.815C181.054 174.818 180.997 174.82 180.942 174.823L180.921 174.824C180.727 174.833 180.535 174.786 180.367 174.69C180.2 174.594 180.064 174.453 179.977 174.283C179.889 174.113 179.854 173.923 179.875 173.734C179.896 173.545 179.972 173.366 180.094 173.218C180.17 173.126 180.246 173.035 180.323 172.943C180.438 172.801 180.557 172.663 180.673 172.521C180.686 172.508 180.699 172.493 180.71 172.479C180.843 172.317 180.976 172.159 181.109 171.997C180.867 171.628 180.54 171.319 180.155 171.094C178.822 170.329 176.982 170.859 176.019 172.04C175.053 173.22 174.871 174.877 175.206 176.352C175.536 177.608 176.082 178.799 176.82 179.875C176.748 179.966 176.673 180.053 176.6 180.144C175.279 181.808 174.127 183.595 173.161 185.479C173.396 183.368 173.115 181.233 172.343 179.249C171.56 177.4 170.093 175.843 168.801 174.245C167.249 172.325 164.066 173.163 163.793 175.596C163.79 175.62 163.787 175.643 163.785 175.667C163.977 175.773 164.165 175.886 164.349 176.005C164.579 176.156 164.758 176.371 164.862 176.624C164.965 176.876 164.989 177.153 164.929 177.419C164.868 177.684 164.728 177.926 164.525 178.112C164.323 178.297 164.067 178.419 163.793 178.46L163.765 178.465C163.833 179.142 163.954 179.813 164.126 180.472C164.625 182.313 165.508 184.033 166.718 185.524C167.927 187.015 169.439 188.245 171.157 189.137C171.27 189.194 171.38 189.251 171.493 189.305C170.522 191.997 169.914 194.801 169.682 197.647C169.551 199.326 169.559 201.012 169.705 202.69L169.697 202.631C169.326 200.765 168.31 199.082 166.819 197.865C164.604 196.084 161.475 195.428 159.086 193.996C158.832 193.836 158.537 193.751 158.235 193.751C157.934 193.75 157.638 193.834 157.383 193.992C157.129 194.15 156.925 194.377 156.798 194.645C156.67 194.912 156.623 195.21 156.663 195.503C156.666 195.524 156.67 195.545 156.673 195.565C157.029 195.707 157.376 195.871 157.711 196.055C157.903 196.161 158.091 196.274 158.275 196.393C158.506 196.544 158.685 196.76 158.788 197.012C158.892 197.264 158.915 197.541 158.855 197.807C158.795 198.072 158.654 198.314 158.452 198.5C158.249 198.686 157.994 198.807 157.719 198.849L157.691 198.853C157.671 198.856 157.653 198.859 157.633 198.862C158.242 200.284 159.096 201.594 160.158 202.733C161.47 204.111 163.056 205.213 164.819 205.97C166.581 206.727 168.483 207.124 170.408 207.136H170.411C170.934 209.359 171.691 211.522 172.67 213.592H180.739C180.768 213.504 180.794 213.414 180.82 213.326C180.073 213.372 179.323 213.328 178.587 213.196C179.186 212.476 179.785 211.751 180.383 211.032C180.397 211.019 180.409 211.005 180.421 210.99C180.725 210.622 181.031 210.256 181.335 209.888L181.335 209.888C181.351 208.759 181.219 207.634 180.942 206.538L180.941 206.538Z" fill="#E6E6E6"/>
<path d="M219.73 84.0316C219.886 84.1671 219.995 84.3462 220.043 84.5447C220.092 84.7431 220.076 84.9513 220 85.141C219.923 85.3307 219.789 85.4928 219.615 85.6053C219.441 85.7177 219.236 85.7752 219.028 85.7698L218.785 85.9163C218.776 85.9381 218.767 85.9599 218.758 85.9818C218.563 86.4723 218.52 87.0085 218.634 87.523C218.749 88.0375 219.017 88.5073 219.403 88.8734C219.79 89.2395 220.278 89.4857 220.807 89.5809C221.336 89.6761 221.882 89.6161 222.376 89.4086C224.35 88.5809 226.487 87.9045 228.135 86.6109C228.863 86.0387 229.485 85.3473 229.972 84.5673C228.412 88.8462 225.931 92.7469 222.697 96.0048C221.885 96.8216 221.026 97.5932 220.126 98.316C219.387 98.908 218.623 99.467 217.835 99.9929C213.551 102.842 208.638 104.656 203.499 105.286C201.784 104.815 199.962 104.871 198.28 105.445C197.673 105.65 197.101 105.94 196.579 106.306C196.722 106.41 196.86 106.523 196.994 106.635C197.036 106.671 197.079 106.708 197.121 106.744L197.136 106.757C197.281 106.883 197.386 107.048 197.437 107.231C197.489 107.415 197.485 107.608 197.427 107.79C197.368 107.971 197.258 108.132 197.108 108.253C196.958 108.374 196.776 108.45 196.583 108.472C196.463 108.486 196.343 108.499 196.224 108.513C196.04 108.535 195.856 108.554 195.672 108.576C195.653 108.577 195.634 108.578 195.615 108.581C195.405 108.605 195.196 108.628 194.986 108.653C194.897 109.083 194.91 109.528 195.025 109.952C195.435 111.411 197.13 112.288 198.662 112.101C200.195 111.915 201.507 110.854 202.318 109.568C202.977 108.443 203.435 107.217 203.673 105.942C203.79 105.927 203.906 105.915 204.023 105.9C206.156 105.611 208.254 105.119 210.289 104.43C208.616 105.781 207.295 107.501 206.434 109.45C205.676 111.309 205.617 113.427 205.403 115.454C205.145 117.89 208.022 119.465 209.953 117.909C209.972 117.894 209.99 117.879 210.009 117.863C209.947 117.656 209.893 117.447 209.846 117.237C209.788 116.971 209.814 116.694 209.92 116.442C210.025 116.191 210.206 115.977 210.438 115.828C210.671 115.678 210.944 115.602 211.221 115.607C211.499 115.612 211.768 115.7 211.995 115.858L212.018 115.874C212.452 115.342 212.843 114.779 213.19 114.189C214.145 112.53 214.739 110.695 214.935 108.801C215.132 106.906 214.926 104.992 214.332 103.179C214.292 103.061 214.253 102.946 214.211 102.83C216.825 101.565 219.26 99.9727 221.455 98.0931C222.745 96.9803 223.942 95.7672 225.033 94.4656L224.997 94.5141C223.932 96.1031 223.46 98.0032 223.66 99.8936C223.977 102.682 225.75 105.29 226.44 107.948C226.508 108.236 226.659 108.499 226.874 108.706C227.09 108.912 227.361 109.054 227.657 109.115C227.952 109.176 228.259 109.152 228.541 109.048C228.823 108.943 229.069 108.762 229.25 108.525C229.262 108.508 229.275 108.491 229.287 108.474C229.133 108.128 229.002 107.774 228.893 107.413C228.831 107.206 228.777 106.997 228.73 106.786C228.672 106.52 228.698 106.243 228.804 105.992C228.909 105.741 229.09 105.526 229.323 105.377C229.555 105.228 229.828 105.151 230.105 105.157C230.383 105.162 230.653 105.249 230.879 105.407L230.902 105.423C230.918 105.435 230.933 105.445 230.949 105.457C231.528 104.022 231.849 102.501 231.901 100.959C231.944 99.0754 231.593 97.2026 230.871 95.4559C230.148 93.7092 229.069 92.1254 227.699 90.8015L227.697 90.7996C228.908 88.8506 229.908 86.7838 230.682 84.6324L224.903 79.1182C224.82 79.1613 224.737 79.2084 224.656 79.2534C225.223 79.7309 225.729 80.2747 226.162 80.8725C225.22 80.9785 224.275 81.0885 223.333 81.1945C223.314 81.195 223.295 81.1966 223.276 81.1992C222.796 81.2553 222.316 81.3074 221.836 81.3635L221.836 81.3637C221.02 82.1607 220.312 83.0573 219.73 84.0313L219.73 84.0316Z" fill="#E6E6E6"/>
<path d="M80.6136 106.146L73.3369 114.24L77.4692 118.138C77.4692 118.138 83.4625 108.509 83.6618 108.137C84.2125 108.06 84.7264 107.821 85.1355 107.452C85.5445 107.083 85.8295 106.601 85.9527 106.07C86.0759 105.539 86.0316 104.984 85.8254 104.478C85.6193 103.972 85.2612 103.539 84.7985 103.237C84.3357 102.935 83.7902 102.777 83.2339 102.785C82.6777 102.793 82.137 102.966 81.6834 103.281C81.2298 103.596 80.8847 104.039 80.6936 104.551C80.5026 105.062 80.4747 105.618 80.6136 106.146Z" fill="#A0616A"/>
<path d="M55.1953 101.235C55.3452 109.683 61.8948 116.638 66.8581 124.265C67.5891 124.737 68.4127 125.055 69.2764 125.199C70.1401 125.342 71.0248 125.307 71.874 125.097C72.7232 124.886 73.5182 124.505 74.2081 123.976C74.898 123.448 75.4678 122.784 75.8808 122.028L80.2334 114.16L74.6941 112.642L71.7556 114.53L65.6256 107.482L55.1953 101.235Z" fill="#3F3D56"/>
</g>
<defs>
<clipPath id="clip0_192_10395">
<rect width="300" height="228" fill="white" transform="translate(29 42)"/>
</clipPath>
</defs>
</svg>
