<svg width="504" height="405" viewBox="0 0 504 405" fill="none" xmlns="http://www.w3.org/2000/svg">
<g clip-path="url(#clip0_424_10302)">
<path d="M444.961 281.253C444.416 280.59 444.009 279.804 443.769 278.95C443.53 278.095 443.464 277.194 443.576 276.308C443.688 275.423 443.975 274.575 444.417 273.825C444.86 273.074 445.446 272.44 446.136 271.966L441.725 250.783L451.347 254.74L454.061 274.249C454.709 275.575 454.892 277.116 454.575 278.58C454.258 280.044 453.463 281.33 452.342 282.193C451.22 283.057 449.849 283.438 448.489 283.264C447.129 283.091 445.874 282.376 444.961 281.253V281.253Z" fill="#FFB8B8"/>
<path d="M444.295 264.442L435.836 246.467L436.98 201.205L437.524 202.463C438.157 203.93 452.999 238.465 451.941 250.027L453.637 260.592L444.295 264.442Z" fill="#3F3D56"/>
<path d="M438.78 397.286H445.563L448.789 368.53L438.778 368.53L438.78 397.286Z" fill="#FFB8B8"/>
<path d="M437.05 394.851L450.408 394.85H450.409C452.666 394.85 454.831 395.836 456.428 397.59C458.024 399.345 458.921 401.725 458.921 404.206V404.51L437.05 404.511L437.05 394.851Z" fill="#2F2E41"/>
<path d="M371.761 391.619L378.296 393.616L388.415 366.862L378.769 363.914L371.761 391.619Z" fill="#FFB8B8"/>
<path d="M370.688 388.766L383.557 392.699L383.558 392.699C385.733 393.364 387.579 394.951 388.689 397.112C389.8 399.272 390.084 401.829 389.479 404.22L389.405 404.513L368.333 398.073L370.688 388.766Z" fill="#2F2E41"/>
<path d="M432.018 386.074L418.328 278.345L388.762 385.465L365.514 376.74L398.834 233.303L399.053 233.286L433.958 230.617L459.177 377.367L432.018 386.074Z" fill="#2F2E41"/>
<path d="M428.398 182.539C428.398 182.539 415.672 175.242 398.521 178.283C398.521 178.283 389.392 202.49 398.521 212.126L401.011 236.357C401.011 236.357 424.248 251.559 431.994 233.924L430.887 213.857C430.887 213.857 436.42 204.232 431.994 197.187C429.341 192.882 428.075 187.726 428.398 182.539V182.539Z" fill="#EE6C4D"/>
<path d="M430.01 292.752L432.243 241.813L425.922 181.215L426.212 181.167C434.504 179.793 437.163 195.493 437.272 196.162L451.705 285.85L430.01 292.752Z" fill="#3F3D56"/>
<path d="M401.871 293.283L376.356 290.167L376.363 289.861C376.454 285.709 378.65 188.097 384.803 181.183C390.993 174.229 402.674 177.238 403.168 177.37L403.414 177.435L401.315 218.739L401.871 293.283Z" fill="#3F3D56"/>
<path d="M406.57 234.942C405.797 235.221 404.978 235.31 404.171 235.203C403.363 235.097 402.587 234.797 401.896 234.324C401.206 233.852 400.618 233.219 400.174 232.47C399.73 231.721 399.441 230.874 399.327 229.989L379.925 225.811L387.124 217.755L404.445 222.957C405.811 222.846 407.166 223.288 408.255 224.202C409.343 225.115 410.089 226.435 410.351 227.913C410.613 229.39 410.373 230.921 409.676 232.217C408.979 233.513 407.874 234.482 406.57 234.942V234.942Z" fill="#FFB8B8"/>
<path d="M396.217 230.053L389.895 228.559C380.562 231.644 364.271 220.784 357.687 215.959C356.448 215.052 356.046 213.253 356.493 210.615C357.152 206.924 359.003 203.62 361.704 201.311L384.893 181.103L390.746 180.027L392.484 190.855L377.71 208.296L399.459 221.307L396.217 230.053Z" fill="#3F3D56"/>
<path d="M393.715 169.116V155.075C393.715 149.135 395.862 143.438 399.684 139.237C403.505 135.037 408.689 132.677 414.093 132.677C419.498 132.677 424.681 135.037 428.503 139.237C432.325 143.438 434.472 149.135 434.472 155.075V169.116C434.471 169.913 434.182 170.678 433.669 171.242C433.156 171.806 432.46 172.124 431.734 172.124H396.452C395.726 172.124 395.031 171.806 394.518 171.242C394.004 170.678 393.716 169.913 393.715 169.116V169.116Z" fill="#2F2E41"/>
<path d="M413.275 171.986C421.526 171.986 428.216 164.634 428.216 155.564C428.216 146.495 421.526 139.143 413.275 139.143C405.023 139.143 398.334 146.495 398.334 155.564C398.334 164.634 405.023 171.986 413.275 171.986Z" fill="#FFB8B8"/>
<path d="M397.925 155.501C397.782 155.32 397.677 155.107 397.615 154.877C397.554 154.647 397.538 154.406 397.569 154.169L399.339 140.623C399.374 140.347 399.471 140.085 399.621 139.861C399.772 139.637 399.97 139.458 400.2 139.34C409.233 134.693 418.394 134.687 427.428 139.322C427.667 139.447 427.873 139.638 428.026 139.877C428.178 140.115 428.271 140.393 428.297 140.683L429.478 154.247C429.498 154.479 429.474 154.713 429.407 154.934C429.34 155.155 429.232 155.358 429.09 155.531C428.947 155.703 428.773 155.841 428.58 155.935C428.386 156.029 428.176 156.078 427.964 156.078H424.968C424.679 156.077 424.396 155.986 424.152 155.815C423.908 155.644 423.713 155.401 423.59 155.113L422.297 152.068C422.213 151.871 422.073 151.709 421.899 151.607C421.724 151.504 421.524 151.467 421.328 151.501C421.132 151.535 420.952 151.638 420.814 151.794C420.677 151.951 420.589 152.152 420.564 152.368L420.309 154.613C420.263 155.017 420.084 155.389 419.806 155.659C419.528 155.928 419.171 156.077 418.8 156.078H399.075C398.857 156.078 398.641 156.026 398.443 155.927C398.245 155.827 398.068 155.682 397.925 155.501Z" fill="#2F2E41"/>
<path d="M335.18 26.9893H0V256.396H335.18V26.9893Z" fill="#E6E6E6"/>
<path d="M83.8649 71.1836H22.4766V115.041H83.8649V71.1836Z" fill="white"/>
<path d="M160.144 71.1836H98.7559V115.041H160.144V71.1836Z" fill="white"/>
<path d="M236.425 71.1836H175.036V115.041H236.425V71.1836Z" fill="white"/>
<path d="M312.704 71.1836H251.315V115.041H312.704V71.1836Z" fill="white"/>
<path d="M83.8649 133.258H22.4766V177.116H83.8649V133.258Z" fill="white"/>
<path d="M160.144 133.258H98.7559V177.116H160.144V133.258Z" fill="white"/>
<path d="M236.425 133.258H175.036V177.116H236.425V133.258Z" fill="white"/>
<path d="M312.704 133.258H251.315V177.116H312.704V133.258Z" fill="white"/>
<path d="M83.8649 195.334H22.4766V239.191H83.8649V195.334Z" fill="white"/>
<path d="M160.144 195.334H98.7559V239.191H160.144V195.334Z" fill="white"/>
<path d="M236.425 195.334H175.036V239.191H236.425V195.334Z" fill="white"/>
<path d="M312.704 195.334H251.315V239.191H312.704V195.334Z" fill="white"/>
<path d="M87.7854 53.9781C92.871 53.9781 96.9936 49.4468 96.9936 43.8572C96.9936 38.2676 92.871 33.7363 87.7854 33.7363C82.6998 33.7363 78.5771 38.2676 78.5771 43.8572C78.5771 49.4468 82.6998 53.9781 87.7854 53.9781Z" fill="white"/>
<path d="M240.029 53.978C245.114 53.978 249.237 49.4468 249.237 43.8572C249.237 38.2676 245.114 33.7363 240.029 33.7363C234.943 33.7363 230.82 38.2676 230.82 43.8572C230.82 49.4468 234.943 53.978 240.029 53.978Z" fill="white"/>
<path d="M91.4691 0H84.1025V46.5562H91.4691V0Z" fill="#E6E6E6"/>
<path d="M243.711 0H236.345V46.5562H243.711V0Z" fill="#E6E6E6"/>
<path d="M295.891 93.1124C295.888 96.7765 294.682 100.316 292.495 103.081C290.307 105.846 287.285 107.651 283.985 108.163C280.684 108.676 277.325 107.862 274.527 105.871C271.728 103.88 269.677 100.846 268.75 97.3265C267.824 93.8067 268.084 90.0377 269.483 86.7119C270.883 83.3862 273.327 80.7271 276.367 79.2233C279.407 77.7195 282.838 77.472 286.031 78.5262C289.224 79.5804 291.963 81.8656 293.746 84.9618C295.15 87.4001 295.894 90.2269 295.891 93.1124V93.1124Z" fill="#EE6C4D"/>
<path d="M293.746 84.962L280.081 99.9786C279.222 98.5172 274.438 91.7254 274.438 91.7254C275.051 91.0442 275.705 90.4094 276.396 89.8251L280.364 95.6398L292.146 82.6899C292.744 83.39 293.279 84.1508 293.746 84.962V84.962Z" fill="white"/>
<path d="M143.333 155.187C143.329 158.851 142.123 162.39 139.936 165.155C137.749 167.921 134.727 169.725 131.426 170.238C128.125 170.75 124.767 169.936 121.968 167.945C119.169 165.954 117.118 162.92 116.192 159.401C115.265 155.881 115.526 152.112 116.925 148.786C118.324 145.46 120.768 142.801 123.808 141.298C126.848 139.794 130.28 139.546 133.472 140.6C136.665 141.655 139.405 143.94 141.187 147.036C142.591 149.474 143.335 152.301 143.333 155.187V155.187Z" fill="#EE6C4D"/>
<path d="M141.187 147.037L127.522 162.054C126.663 160.592 121.878 153.801 121.878 153.801C122.491 153.119 123.146 152.485 123.837 151.9L127.804 157.715L139.587 144.765C140.184 145.465 140.72 146.226 141.187 147.037V147.037Z" fill="white"/>
<path d="M67.0526 155.187C67.0494 158.851 65.8433 162.391 63.6559 165.156C61.4685 167.921 58.4467 169.725 55.1457 170.238C51.8448 170.75 48.4864 169.936 45.6878 167.945C42.8891 165.955 40.8381 162.921 39.9116 159.401C38.9851 155.881 39.2453 152.112 40.6446 148.786C42.0438 145.46 44.4879 142.801 47.5279 141.298C50.5679 139.794 53.9996 139.546 57.1923 140.6C60.3851 141.655 63.1245 143.94 64.9071 147.036C66.311 149.474 67.055 152.301 67.0526 155.187V155.187Z" fill="#EE6C4D"/>
<path d="M64.9075 147.037L51.2424 162.054C50.3835 160.592 45.5986 153.801 45.5986 153.801C46.2118 153.119 46.8662 152.485 47.5573 151.9L51.5251 157.715L63.3073 144.765C63.9047 145.465 64.4405 146.226 64.9075 147.037V147.037Z" fill="white"/>
<path d="M526.392 404.999H294.625C294.464 404.999 294.309 404.929 294.195 404.803C294.081 404.678 294.017 404.508 294.017 404.331C294.017 404.153 294.081 403.983 294.195 403.858C294.309 403.733 294.464 403.662 294.625 403.662H526.392C526.554 403.662 526.708 403.733 526.822 403.858C526.936 403.983 527.001 404.153 527.001 404.331C527.001 404.508 526.936 404.678 526.822 404.803C526.708 404.929 526.554 404.999 526.392 404.999Z" fill="#3F3D56"/>
</g>
<defs>
<clipPath id="clip0_424_10302">
<rect width="527" height="405" fill="white"/>
</clipPath>
</defs>
</svg>
