<svg width="545" height="395" viewBox="0 0 545 395" fill="none" xmlns="http://www.w3.org/2000/svg">
<g clip-path="url(#clip0_424_10345)">
<path d="M71.1008 173.818C50.8137 165.862 34.5509 150.966 25.6416 132.18C20.6569 121.539 18.2233 109.999 16.8377 98.4565C15.4782 87.1322 15.2007 75.1869 20.4203 64.8865C23.2782 59.2468 27.6521 54.3945 33.1159 50.8026C38.5796 47.2106 44.9467 45.0015 51.5968 44.3904C58.2469 43.7794 64.9531 44.7873 71.0619 47.3159C77.1707 49.8445 82.4738 53.8075 86.4543 58.8189C89.8804 63.1322 92.2892 68.3079 92.3507 73.6776C92.4796 84.9412 82.7796 93.9805 78.5242 104.521C74.1267 115.413 75.7117 127.481 76.4592 139.101C77.2068 150.72 76.733 163.317 69.1819 172.579" fill="#F2F2F2"/>
<path d="M434.947 316.243C456.371 311.557 475.067 299.403 487.207 282.268C494.023 272.551 498.484 261.552 501.912 250.387C505.276 239.433 507.683 227.698 504.376 216.729C502.566 210.724 499.12 205.258 494.375 200.866C489.629 196.473 483.746 193.304 477.298 191.665C470.85 190.027 464.058 189.977 457.583 191.519C451.108 193.061 445.171 196.142 440.351 200.464C436.203 204.183 432.903 208.911 431.883 214.196C429.744 225.282 437.694 235.705 440.007 246.76C442.397 258.185 438.678 269.837 435.865 281.177C433.053 292.518 431.27 305.012 437.061 315.32" fill="#F2F2F2"/>
<path d="M271.557 298.155C241.02 298.246 211.309 288.895 187.06 271.564C163.318 254.627 145.972 231.069 137.54 204.305L138.748 203.978C155.801 258.737 210.414 296.981 271.557 296.981C289.839 297.014 307.944 293.641 324.813 287.06L325.298 288.143C308.275 294.784 290.006 298.188 271.557 298.155Z" fill="#E6E6E6"/>
<path d="M403.568 129.267C385.428 75.1182 332.377 38.7369 271.557 38.7369C253.535 38.7064 235.682 41.984 219.013 48.3832L218.535 47.2977C240.833 38.7714 265.112 35.7724 289.017 38.5918C312.922 41.4111 335.64 49.953 354.967 63.3884C378.487 79.8409 395.902 102.755 404.768 128.917L403.568 129.267Z" fill="#E6E6E6"/>
<path d="M441.28 339.24C384.089 339.24 337.561 295.797 337.561 242.398C337.561 188.999 384.089 145.556 441.28 145.556C498.472 145.556 545 188.999 545 242.398C545 295.797 498.472 339.24 441.28 339.24ZM441.28 146.73C384.782 146.73 338.818 189.647 338.818 242.398C338.818 295.15 384.782 338.066 441.28 338.066C497.778 338.066 543.743 295.15 543.743 242.398C543.743 189.647 497.778 146.73 441.28 146.73Z" fill="#3F3D56"/>
<path d="M103.72 193.684C46.5284 193.684 0 150.241 0 96.8418C0 43.443 46.5284 0 103.72 0C160.911 0 207.439 43.443 207.439 96.8418C207.439 150.241 160.911 193.684 103.72 193.684ZM103.72 1.17384C47.2218 1.17384 1.25721 44.0904 1.25721 96.8418C1.25721 149.593 47.2218 192.51 103.72 192.51C160.218 192.51 206.182 149.593 206.182 96.8418C206.182 44.0904 160.218 1.17384 103.72 1.17384Z" fill="#3F3D56"/>
<path d="M95.6552 97.3861L86.4961 113.995L95.5397 118.836C95.5397 118.836 101.744 100.179 101.926 99.4713C102.862 99.1143 103.659 98.5006 104.213 97.7113C104.767 96.922 105.051 95.9943 105.028 95.051C105.005 94.1077 104.675 93.1931 104.083 92.4284C103.491 91.6636 102.665 91.0846 101.713 90.7681C100.761 90.4515 99.728 90.4123 98.7516 90.6556C97.7752 90.8988 96.9009 91.4131 96.2443 92.1305C95.5877 92.8478 95.1799 93.7343 95.0747 94.6728C94.9695 95.6112 95.1719 96.5574 95.6552 97.3861V97.3861Z" fill="#A0616A"/>
<path d="M48.6514 99.6455C52.737 113.779 67.4222 122.755 79.6168 133.517C81.1184 134.009 82.7134 134.203 84.2999 134.087C85.8864 133.97 87.4295 133.546 88.8304 132.841C90.2313 132.136 91.4593 131.166 92.4358 129.993C93.4123 128.82 94.1159 127.469 94.5016 126.028L98.6117 111.01L88.1653 110.749L83.8421 115.136L69.8538 105.829L48.6514 99.6455Z" fill="#3F3D56"/>
<path d="M425.86 257.445C427.634 257.554 429.292 258.304 430.483 259.537C431.673 260.769 432.301 262.387 432.233 264.045C432.214 264.382 432.165 264.717 432.086 265.046L452.228 276.894L441.092 281.492L423.673 269.536C422.236 269.126 420.984 268.284 420.114 267.14C419.243 265.996 418.803 264.615 418.862 263.213C418.903 262.415 419.112 261.633 419.478 260.911C419.843 260.189 420.357 259.542 420.99 259.005C421.623 258.469 422.364 258.054 423.169 257.784C423.974 257.515 424.828 257.396 425.682 257.435C425.741 257.438 425.801 257.441 425.86 257.445Z" fill="#FFB6B6"/>
<path d="M445.283 271.509L440.291 281.125L460.028 292.984C461.433 293.835 463.047 294.337 464.717 294.441C466.388 294.546 468.059 294.249 469.572 293.581C471.412 292.759 472.916 291.4 473.857 289.71C474.798 288.021 475.126 286.091 474.79 284.212L468.386 250.074C467.956 247.686 466.562 245.541 464.49 244.083C462.419 242.624 459.827 241.962 457.249 242.233C454.713 242.492 452.391 243.681 450.794 245.538C449.196 247.396 448.455 249.77 448.732 252.138C448.743 252.23 448.755 252.323 448.769 252.415C448.818 252.743 448.885 253.068 448.971 253.39L455.963 277.668L445.283 271.509Z" fill="#EE6C4D"/>
<path d="M427.345 275.408L419.913 257.501C419.659 256.888 419.676 256.206 419.961 255.605C420.245 255.004 420.773 254.533 421.429 254.295L425.608 252.782C426.265 252.546 426.995 252.562 427.639 252.827C428.283 253.092 428.787 253.585 429.042 254.198L436.475 272.104C436.729 272.717 436.711 273.399 436.427 274C436.143 274.601 435.615 275.072 434.959 275.31L430.779 276.823C430.123 277.06 429.393 277.044 428.749 276.778C428.105 276.513 427.6 276.02 427.345 275.408Z" fill="#3F3D56"/>
<path d="M422.296 255.031C421.942 255.16 421.658 255.414 421.505 255.738C421.352 256.062 421.342 256.429 421.479 256.759L428.912 274.666C429.049 274.996 429.321 275.261 429.668 275.404C430.015 275.547 430.408 275.556 430.762 275.428L434.942 273.916C435.295 273.788 435.58 273.534 435.733 273.21C435.886 272.886 435.895 272.518 435.759 272.188L428.326 254.282C428.189 253.952 427.917 253.686 427.57 253.543C427.223 253.4 426.829 253.391 426.476 253.519L422.296 255.031Z" fill="#EE6C4D"/>
<path d="M443.88 312.771H472.106V286.417H443.88V312.771Z" fill="#FFB8B8"/>
<path d="M376.942 364.033L366.162 360.646L360.159 388.044L367.464 390.338L376.942 364.033Z" fill="#FFB6B6"/>
<path d="M396.06 358.821L384.991 361.265L395.4 387.486L402.9 385.83L396.06 358.821Z" fill="#FFB6B6"/>
<path d="M471.094 319.656C476.752 354.872 401.413 334.052 401.413 334.052L377.791 364.477L363.962 362.13C363.962 362.13 370.185 343.864 381.298 319.379C386.233 308.505 442.272 311.162 442.272 311.162L443.436 302.636L475.495 302.049L471.094 319.656Z" fill="#2F2E41"/>
<path d="M399.035 326.497L378.517 326.938C381.806 353.353 384.706 363.891 384.706 363.891L396.649 360.369L399.035 326.497Z" fill="#2F2E41"/>
<path d="M454.97 243.591L460.651 236.772L468.756 236.444L469.564 242.857L473.58 244.586C477.59 258.809 478.209 273.68 475.394 288.151C474.856 288.624 474.463 289.223 474.255 289.885C474.047 290.547 474.033 291.25 474.212 291.919L474.473 292.888L474.449 292.924C473.594 294.182 473.304 295.705 473.642 297.161L475.559 300.343C476.247 301.487 476.66 302.758 476.77 304.066C476.879 305.374 476.681 306.689 476.191 307.919C475.701 309.149 474.93 310.264 473.931 311.187C472.932 312.111 471.73 312.82 470.408 313.266C458.62 317.255 447.57 318.741 439.395 307.546L436.824 268.533L454.97 243.591Z" fill="#EE6C4D"/>
<path d="M460.921 238.583C469.197 238.583 475.906 232.319 475.906 224.592C475.906 216.865 469.197 210.601 460.921 210.601C452.645 210.601 445.937 216.865 445.937 224.592C445.937 232.319 452.645 238.583 460.921 238.583Z" fill="#FFB8B8"/>
<path d="M468.444 207.726C474.788 207.84 479.82 213.335 479.683 219.999C484.378 224.574 482.826 230.171 478.903 236.156C471.726 236.934 470.051 237.258 463.757 239.655L462.928 236.037L461.049 240.748C459.449 241.437 457.862 242.192 456.287 243.015C455.155 238.167 455.435 233.454 458.478 229.349C461.181 225.703 454.603 221.373 449.898 221.985L449.967 218.636L448.786 221.965C446.952 223.224 444.923 222.768 442.843 221.859V221.859C439.47 205.49 465.586 201.014 468.444 207.726Z" fill="#2F2E41"/>
<path d="M370.784 394.972L365.981 394.387L365.716 390.048L362.928 394.014L350.19 392.461C349.579 392.386 349.01 392.132 348.565 391.734C348.121 391.336 347.824 390.816 347.719 390.249C347.613 389.683 347.704 389.1 347.979 388.585C348.253 388.07 348.697 387.651 349.244 387.389L360.335 382.07L360.933 377.79L371.549 379.691L370.784 394.972Z" fill="#2F2E41"/>
<path d="M405.656 392.503L400.852 393.08L399.411 388.948L397.799 393.447L385.057 394.978C384.447 395.051 383.827 394.94 383.288 394.661C382.75 394.383 382.321 393.95 382.064 393.428C381.807 392.905 381.736 392.32 381.861 391.757C381.986 391.194 382.3 390.683 382.758 390.298L392.029 382.515L391.439 378.233L402.223 377.544L405.656 392.503Z" fill="#2F2E41"/>
<path d="M427.668 260.719C429.442 260.827 431.1 261.577 432.29 262.81C433.481 264.043 434.109 265.66 434.041 267.319C434.022 267.655 433.972 267.99 433.894 268.32L454.035 280.167L442.9 284.765L425.48 272.81C424.043 272.4 422.792 271.557 421.921 270.413C421.051 269.269 420.611 267.888 420.669 266.486C420.711 265.689 420.92 264.907 421.285 264.185C421.65 263.463 422.164 262.815 422.798 262.279C423.431 261.742 424.171 261.327 424.976 261.058C425.781 260.788 426.635 260.67 427.489 260.708C427.549 260.711 427.608 260.714 427.668 260.719Z" fill="#FFB6B6"/>
<path d="M447.09 274.782L442.099 284.399L461.836 296.257C463.24 297.108 464.854 297.61 466.525 297.715C468.195 297.819 469.867 297.523 471.38 296.854C473.22 296.032 474.724 294.674 475.665 292.984C476.606 291.294 476.933 289.364 476.598 287.486L470.193 253.348C469.763 250.959 468.369 248.815 466.298 247.356C464.226 245.897 461.635 245.235 459.057 245.506C457.801 245.634 456.585 245.992 455.477 246.559C454.369 247.127 453.392 247.892 452.601 248.812C451.81 249.731 451.221 250.788 450.868 251.92C450.514 253.052 450.402 254.238 450.54 255.411C450.551 255.504 450.563 255.596 450.577 255.688C450.625 256.016 450.693 256.342 450.779 256.663L457.77 280.941L447.09 274.782Z" fill="#EE6C4D"/>
<path d="M69.4072 272.927L75.7385 275.594L89.7677 254.062L80.4235 250.126L69.4072 272.927Z" fill="#A0616A"/>
<path d="M66.2051 279L85.674 287.2L85.7851 286.971C86.6917 285.094 86.7628 282.958 85.9829 281.033C85.203 279.107 83.6359 277.55 81.6262 276.703L81.6258 276.703L79.2868 272.686L71.4343 272.41L69.7348 271.694L66.2051 279Z" fill="#2F2E41"/>
<path d="M147.822 243.645L154.508 241.893L150.45 216.976L140.58 219.563L147.822 243.645Z" fill="#A0616A"/>
<path d="M149.545 250.221L170.108 244.831L170.035 244.588C169.439 242.606 168.024 240.926 166.102 239.918C164.18 238.91 161.907 238.656 159.785 239.212L159.784 239.212L155.228 237.536L149.02 242.034L147.225 242.504L149.545 250.221Z" fill="#2F2E41"/>
<path d="M46.6167 170.838C46.7877 175.458 57.3091 187.92 62.8426 189.707C63.7832 190.011 64.3329 190.178 64.3329 190.178L66.2588 189.634L89.5819 183.046C93.6658 185.289 105.849 186.429 115.845 187C123.801 187.452 128.236 191.336 128.236 191.336C130.583 208.003 137.35 220.154 145.153 235.088L154.518 233.567L145.671 177.94C145.48 176.739 144.915 175.617 144.046 174.713C143.178 173.809 142.044 173.163 140.786 172.855L77.1426 157.312C77.1426 157.312 73.6328 156.719 66.2303 160.053C54.0436 165.543 46.4945 167.478 46.6167 170.838Z" fill="#2F2E41"/>
<path d="M58.7777 169.945C56.6432 174.115 59.8063 189.706 63.8292 193.678L64.8971 194.357L65.2581 194.532C67.6714 202.154 93.5687 224.446 93.5687 224.446C84.8211 234.851 77.0255 247.544 73.5471 261.766L83.6619 265.217L112.134 225.531C112.88 224.491 113.271 223.265 113.257 222.014C113.242 220.763 112.822 219.546 112.052 218.522L100.437 203.073L81.5095 168.842C67.985 168.453 60.3326 166.912 58.7777 169.945Z" fill="#2F2E41"/>
<path d="M46.9973 172.655C46.966 172.655 46.2246 170.843 46.2096 170.839C45.9575 170.773 42.545 170.459 43.3124 165.183L44.2943 159.378L43.3358 154.252L41.7234 152.746L44.3147 150.327L42.7267 139.354L42.117 117.384C40.5867 109.838 40.9863 102.936 48.3993 99.6118L56.8979 92.2519L66.5684 92.1426L77.5397 98.2155L82.8554 108.11L84.9172 134.925L86.4566 138.279L86.3248 138.39C86.3146 138.399 85.289 139.265 84.8282 139.741C84.6051 140.037 85.0237 142.247 85.5408 144.123L86.2038 148.755L84.533 149.87L86.7053 152.266L92.6276 161.612L92.2728 161.53C91.8731 161.437 88.1487 166.657 47.271 172.461C47.0824 172.488 47.0758 172.655 46.9973 172.655Z" fill="#3F3D56"/>
<path d="M93.8047 114.621L90.4207 112.972C89.8898 112.713 89.4907 112.267 89.3111 111.734C89.1315 111.2 89.1859 110.621 89.4625 110.125L97.5646 95.6278C97.8424 95.1321 98.3194 94.7595 98.891 94.5918C99.4627 94.4241 100.082 94.4749 100.614 94.7332L103.998 96.3819C104.529 96.6413 104.928 97.0867 105.107 97.6204C105.287 98.1541 105.233 98.7326 104.956 99.2289L96.8539 113.726C96.5761 114.222 96.0991 114.595 95.5275 114.762C94.9558 114.93 94.3363 114.879 93.8047 114.621Z" fill="#3F3D56"/>
<path d="M99.8047 95.2799C99.5183 95.1408 99.1844 95.1133 98.8764 95.2037C98.5683 95.2941 98.3113 95.4949 98.1616 95.762L90.0595 110.259C89.9105 110.527 89.8812 110.839 89.978 111.126C90.0748 111.414 90.2898 111.654 90.5759 111.794L93.9599 113.442C94.2463 113.581 94.5802 113.609 94.8883 113.518C95.1963 113.428 95.4534 113.227 95.6031 112.96L103.705 98.4628C103.854 98.1954 103.883 97.8836 103.787 97.596C103.69 97.3084 103.475 97.0684 103.189 96.9286L99.8047 95.2799Z" fill="#EE6C4D"/>
<path d="M63.9116 90.1633C71.5479 90.1633 77.7383 84.3834 77.7383 77.2535C77.7383 70.1237 71.5479 64.3438 63.9116 64.3438C56.2754 64.3438 50.085 70.1237 50.085 77.2535C50.085 84.3834 56.2754 90.1633 63.9116 90.1633Z" fill="#A0616A"/>
<path d="M57.1108 85.5684C56.5046 85.1183 55.7484 84.8811 54.9741 84.8984C54.7339 84.9353 54.5048 85.0194 54.302 85.1451C54.0992 85.2709 53.9274 85.4354 53.7978 85.6278C53.7257 85.7123 53.6323 85.7788 53.5258 85.8211C53.4193 85.8634 53.3032 85.8802 53.188 85.87C51.7127 85.9202 48.568 83.3647 48.353 78.434C48.2508 76.0906 46.7491 72.1253 49.1397 69.9777C49.2999 69.111 51.1666 60.1531 59.5811 59.9062C68.1958 59.6506 73.9305 61.2663 75.3081 64.3319C76.2648 66.7657 76.9921 69.2728 77.4818 71.8247L77.7706 73.3421L77.0956 71.9357C77.0829 71.9094 75.8518 69.3914 73.5688 68.5515C73.5318 68.9613 73.4202 69.3622 73.2388 69.7369C72.4939 71.2442 70.616 72.2279 68.4547 72.2431C66.9613 72.2002 65.4886 71.9045 64.1082 71.3705C64.2645 71.5811 64.3523 71.8294 64.3609 72.0855C64.3695 72.3416 64.2986 72.5945 64.1567 72.8138C64.0149 73.0332 63.8081 73.2095 63.5613 73.3216C63.3146 73.4337 63.0384 73.4768 62.766 73.4457L62.3664 73.3993C62.2405 73.3846 62.113 73.4115 62.0062 73.4754C61.8993 73.5393 61.8197 73.6361 61.7813 73.749C61.7429 73.8619 61.748 73.9838 61.7958 74.0936C61.8436 74.2033 61.931 74.294 62.0429 74.3499L62.3948 74.5255L61.9677 74.7184C60.2488 75.4343 58.8325 76.662 57.9401 78.2094C57.0478 79.7568 56.7298 81.5366 57.0359 83.2706L57.5338 85.8854L57.1108 85.5684Z" fill="#2F2E41"/>
<path d="M276.027 285.055C275.649 285.071 275.274 284.978 274.955 284.789C274.635 284.6 274.385 284.324 274.239 283.998C274.093 283.672 274.058 283.312 274.138 282.966C274.219 282.621 274.411 282.307 274.689 282.067L274.815 281.598C274.799 281.56 274.782 281.523 274.765 281.485C274.384 280.645 273.746 279.929 272.93 279.426C272.115 278.924 271.159 278.658 270.181 278.661C269.204 278.664 268.25 278.937 267.439 279.445C266.627 279.953 265.995 280.674 265.62 281.517C264.125 284.88 262.22 288.249 261.752 291.806C261.545 293.378 261.632 294.971 262.009 296.515C258.496 289.36 256.672 281.584 256.66 273.713C256.66 271.738 256.777 269.764 257.012 267.801C257.207 266.192 257.476 264.595 257.821 263.008C259.704 254.402 263.747 246.335 269.617 239.47C272.458 238.023 274.756 235.797 276.201 233.093C276.724 232.121 277.094 231.083 277.299 230.012C276.978 230.051 276.653 230.076 276.332 230.095C276.232 230.1 276.127 230.105 276.027 230.11L275.99 230.112C275.638 230.126 275.288 230.046 274.984 229.88C274.68 229.713 274.433 229.468 274.274 229.174C274.116 228.88 274.051 228.55 274.089 228.223C274.127 227.895 274.265 227.585 274.488 227.329C274.626 227.17 274.764 227.011 274.903 226.853C275.113 226.607 275.329 226.367 275.539 226.122C275.563 226.098 275.586 226.074 275.607 226.048C275.849 225.768 276.09 225.494 276.332 225.214C275.891 224.575 275.298 224.039 274.598 223.649C272.176 222.325 268.834 223.242 267.085 225.288C265.33 227.333 264.999 230.203 265.608 232.759C266.208 234.934 267.199 236.998 268.54 238.862C268.409 239.019 268.272 239.171 268.141 239.328C265.74 242.211 263.647 245.307 261.892 248.571C262.319 244.914 261.81 241.215 260.407 237.778C258.984 234.575 256.319 231.877 253.971 229.108C251.152 225.781 245.37 227.233 244.873 231.45C244.869 231.49 244.864 231.531 244.859 231.572C245.208 231.756 245.549 231.951 245.883 232.157C246.303 232.418 246.628 232.792 246.816 233.23C247.004 233.667 247.046 234.147 246.937 234.607C246.828 235.066 246.572 235.485 246.204 235.807C245.836 236.129 245.372 236.34 244.874 236.412L244.823 236.419C244.947 237.592 245.166 238.755 245.479 239.897C246.386 243.086 247.989 246.065 250.187 248.648C252.385 251.232 255.131 253.363 258.252 254.909C258.457 255.007 258.657 255.105 258.862 255.198C257.099 259.862 255.994 264.721 255.573 269.651C255.334 272.56 255.348 275.482 255.615 278.388L255.599 278.285C254.926 275.053 253.08 272.137 250.371 270.029C246.348 266.943 240.664 265.807 236.323 263.326C235.862 263.05 235.326 262.902 234.778 262.901C234.229 262.9 233.692 263.045 233.23 263.319C232.767 263.594 232.398 263.986 232.166 264.45C231.934 264.913 231.849 265.429 231.921 265.937C231.927 265.973 231.933 266.009 231.939 266.045C232.586 266.291 233.216 266.575 233.825 266.894C234.174 267.078 234.515 267.272 234.849 267.479C235.269 267.74 235.594 268.114 235.782 268.551C235.97 268.989 236.012 269.468 235.903 269.928C235.794 270.388 235.538 270.807 235.17 271.129C234.802 271.451 234.338 271.662 233.84 271.733L233.789 271.741C233.752 271.746 233.72 271.751 233.684 271.756C234.789 274.22 236.341 276.489 238.27 278.462C240.654 280.85 243.536 282.759 246.738 284.071C249.94 285.382 253.395 286.07 256.891 286.09H256.897C257.846 289.941 259.221 293.69 261 297.276H275.66C275.712 297.123 275.759 296.966 275.807 296.814C274.45 296.894 273.088 296.818 271.75 296.589C272.838 295.343 273.926 294.087 275.013 292.841C275.038 292.817 275.06 292.793 275.082 292.767C275.633 292.129 276.19 291.497 276.742 290.859L276.742 290.858C276.772 288.903 276.531 286.953 276.027 285.055L276.027 285.055Z" fill="#E6E6E6"/>
<path d="M346.492 72.8174C346.775 73.0522 346.974 73.3625 347.061 73.7063C347.149 74.0501 347.121 74.4108 346.982 74.7395C346.843 75.0681 346.599 75.3489 346.283 75.5438C345.967 75.7386 345.595 75.8381 345.217 75.8288L344.775 76.0826C344.759 76.1204 344.743 76.1582 344.727 76.1961C344.372 77.046 344.293 77.9749 344.502 78.8662C344.71 79.7575 345.196 80.5714 345.898 81.2057C346.601 81.84 347.488 82.2664 348.449 82.4314C349.41 82.5963 350.402 82.4925 351.299 82.1328C354.885 80.6989 358.767 79.5271 361.761 77.2859C363.084 76.2948 364.213 75.0969 365.097 73.7455C362.265 81.1586 357.758 87.9164 351.883 93.5606C350.407 94.9755 348.847 96.3123 347.211 97.5646C345.869 98.5903 344.482 99.5586 343.049 100.47C335.267 105.406 326.342 108.549 317.006 109.639C313.889 108.824 310.58 108.921 307.524 109.916C306.422 110.271 305.382 110.773 304.434 111.407C304.693 111.587 304.945 111.782 305.189 111.977C305.264 112.038 305.343 112.103 305.418 112.165L305.447 112.188C305.71 112.407 305.9 112.693 305.993 113.01C306.087 113.328 306.08 113.663 305.974 113.977C305.868 114.291 305.667 114.57 305.395 114.78C305.124 114.99 304.793 115.121 304.442 115.16C304.225 115.183 304.007 115.207 303.789 115.23C303.455 115.269 303.121 115.301 302.787 115.34C302.752 115.34 302.717 115.343 302.683 115.348C302.301 115.391 301.922 115.43 301.54 115.473C301.378 116.218 301.403 116.988 301.612 117.723C302.357 120.25 305.435 121.771 308.218 121.446C311.004 121.125 313.386 119.285 314.86 117.058C316.057 115.11 316.889 112.986 317.323 110.777C317.534 110.75 317.746 110.73 317.957 110.703C321.832 110.203 325.645 109.35 329.341 108.156C326.302 110.497 323.901 113.478 322.337 116.854C320.961 120.074 320.853 123.743 320.464 127.256C319.997 131.476 325.222 134.204 328.73 131.508C328.764 131.482 328.798 131.456 328.832 131.43C328.719 131.071 328.621 130.709 328.536 130.344C328.431 129.883 328.478 129.403 328.67 128.968C328.862 128.532 329.19 128.161 329.612 127.903C330.034 127.644 330.53 127.511 331.035 127.52C331.539 127.53 332.029 127.681 332.439 127.955L332.481 127.983C333.27 127.061 333.982 126.086 334.611 125.064C336.345 122.189 337.425 119.011 337.782 115.729C338.139 112.446 337.766 109.131 336.686 105.989C336.612 105.786 336.543 105.585 336.466 105.385C341.215 103.193 345.638 100.435 349.625 97.1783C351.97 95.2506 354.144 93.1489 356.126 90.8939L356.06 90.978C354.126 93.7309 353.268 97.0228 353.632 100.298C354.207 105.129 357.428 109.647 358.682 114.252C358.806 114.751 359.079 115.206 359.471 115.564C359.863 115.922 360.356 116.168 360.892 116.273C361.429 116.378 361.986 116.338 362.499 116.157C363.012 115.976 363.458 115.661 363.786 115.251C363.809 115.222 363.832 115.192 363.854 115.162C363.575 114.564 363.336 113.951 363.138 113.325C363.025 112.966 362.927 112.604 362.842 112.239C362.737 111.778 362.784 111.299 362.976 110.863C363.168 110.427 363.497 110.056 363.919 109.798C364.34 109.54 364.836 109.406 365.341 109.416C365.845 109.425 366.335 109.576 366.745 109.85L366.787 109.878C366.817 109.898 366.844 109.915 366.874 109.936C367.924 107.45 368.509 104.815 368.602 102.144C368.68 98.8801 368.044 95.6357 366.731 92.6096C365.419 89.5835 363.458 86.8396 360.97 84.5461L360.966 84.5427C363.165 81.1662 364.982 77.5856 366.388 73.8583L355.89 64.3052C355.739 64.3798 355.588 64.4615 355.44 64.5395C356.472 65.3668 357.39 66.3088 358.176 67.3445C356.466 67.5281 354.748 67.7187 353.038 67.9023C353.003 67.9032 352.968 67.9059 352.934 67.9105C352.062 68.0076 351.19 68.0979 350.318 68.1951L350.318 68.1954C348.835 69.5763 347.549 71.1295 346.492 72.8169L346.492 72.8174Z" fill="#E6E6E6"/>
<path d="M93.7642 111.13L80.5449 125.153L88.0519 131.906C88.0519 131.906 98.9397 115.225 99.3017 114.579C100.302 114.446 101.236 114.033 101.979 113.393C102.722 112.754 103.24 111.919 103.464 110.998C103.687 110.078 103.607 109.116 103.232 108.24C102.858 107.364 102.207 106.614 101.367 106.09C100.526 105.567 99.535 105.293 98.5245 105.307C97.514 105.321 96.5318 105.621 95.7077 106.167C94.8837 106.713 94.2567 107.48 93.9096 108.366C93.5626 109.252 93.5119 110.216 93.7642 111.13Z" fill="#A0616A"/>
<path d="M47.5889 102.622C47.8611 117.258 59.7595 129.307 68.7764 142.519C70.1042 143.338 71.6005 143.89 73.1695 144.138C74.7385 144.386 76.3458 144.326 77.8885 143.961C79.4312 143.597 80.8754 142.935 82.1287 142.02C83.3821 141.104 84.4171 139.954 85.1675 138.644L93.0748 125.015L83.0116 122.384L77.6734 125.655L66.5372 113.445L47.5889 102.622Z" fill="#3F3D56"/>
</g>
<defs>
<clipPath id="clip0_424_10345">
<rect width="545" height="395" fill="white"/>
</clipPath>
</defs>
</svg>
