<svg width="395" height="315" viewBox="0 0 395 315" fill="none" xmlns="http://www.w3.org/2000/svg">
<g clip-path="url(#clip0_424_10392)">
<path d="M348.165 19.1353H0.545941C0.400045 19.1323 0.261219 19.0749 0.15918 18.9756C0.0571421 18.8762 0 18.7428 0 18.6038C0 18.4648 0.0571421 18.3314 0.15918 18.232C0.261219 18.1327 0.400045 18.0753 0.545941 18.0723H348.165C348.311 18.0753 348.45 18.1327 348.552 18.232C348.654 18.3314 348.711 18.4648 348.711 18.6038C348.711 18.7428 348.654 18.8762 348.552 18.9756C348.45 19.0749 348.311 19.1323 348.165 19.1353Z" fill="#CACACA"/>
<path d="M12.8353 11.6938C16.1524 11.6938 18.8415 9.07603 18.8415 5.84688C18.8415 2.61774 16.1524 0 12.8353 0C9.51817 0 6.8291 2.61774 6.8291 5.84688C6.8291 9.07603 9.51817 11.6938 12.8353 11.6938Z" fill="#3F3D56"/>
<path d="M33.5843 11.6938C36.9015 11.6938 39.5905 9.07603 39.5905 5.84688C39.5905 2.61774 36.9015 0 33.5843 0C30.2672 0 27.5781 2.61774 27.5781 5.84688C27.5781 9.07603 30.2672 11.6938 33.5843 11.6938Z" fill="#3F3D56"/>
<path d="M54.3333 11.6938C57.6505 11.6938 60.3395 9.07603 60.3395 5.84688C60.3395 2.61774 57.6505 0 54.3333 0C51.0162 0 48.3271 2.61774 48.3271 5.84688C48.3271 9.07603 51.0162 11.6938 54.3333 11.6938Z" fill="#3F3D56"/>
<path d="M335.732 1.44922H320.993C320.701 1.45474 320.423 1.56913 320.219 1.76783C320.014 1.96652 319.899 2.23368 319.899 2.51192C319.899 2.79017 320.014 3.05733 320.219 3.25602C320.423 3.45472 320.701 3.56911 320.993 3.57463H335.732C336.024 3.56911 336.303 3.45472 336.507 3.25602C336.712 3.05733 336.826 2.79017 336.826 2.51192C336.826 2.23368 336.712 1.96652 336.507 1.76783C336.303 1.56913 336.024 1.45474 335.732 1.44922Z" fill="#3F3D56"/>
<path d="M335.732 5.43848H320.993C320.701 5.444 320.423 5.55839 320.219 5.75709C320.014 5.95578 319.899 6.22294 319.899 6.50119C319.899 6.77944 320.014 7.04659 320.219 7.24529C320.423 7.44398 320.701 7.55837 320.993 7.5639H335.732C336.024 7.55837 336.303 7.44398 336.507 7.24529C336.712 7.04659 336.826 6.77944 336.826 6.50119C336.826 6.22294 336.712 5.95578 336.507 5.75709C336.303 5.55839 336.024 5.444 335.732 5.43848Z" fill="#3F3D56"/>
<path d="M335.732 9.42188H320.993C320.701 9.4274 320.423 9.54179 320.219 9.74048C320.014 9.93918 319.899 10.2063 319.899 10.4846C319.899 10.7628 320.014 11.03 320.219 11.2287C320.423 11.4274 320.701 11.5418 320.993 11.5473H335.732C336.024 11.5418 336.303 11.4274 336.507 11.2287C336.712 11.03 336.826 10.7628 336.826 10.4846C336.826 10.2063 336.712 9.93918 336.507 9.74048C336.303 9.54179 336.024 9.4274 335.732 9.42188Z" fill="#3F3D56"/>
<path d="M330.228 37.0825H13.6057C11.8525 37.085 10.1718 37.7493 8.93212 38.9298C7.69241 40.1103 6.9948 41.7107 6.99219 43.3802V44.3958C6.9948 46.0653 7.69241 47.6657 8.93212 48.8462C10.1718 50.0267 11.8525 50.691 13.6057 50.6935H330.228C331.982 50.691 333.662 50.0267 334.902 48.8462C336.142 47.6657 336.839 46.0653 336.842 44.3958V43.3802C336.839 41.7107 336.142 40.1103 334.902 38.9298C333.662 37.7493 331.982 37.085 330.228 37.0825Z" fill="#F0F0F0"/>
<path d="M51.8159 46.4011H21.677C21.0027 46.4001 20.3563 46.1444 19.8798 45.69C19.4034 45.2356 19.1357 44.6197 19.1357 43.9775C19.1357 43.3354 19.4034 42.7195 19.8798 42.2651C20.3563 41.8107 21.0027 41.5549 21.677 41.554H51.8159C55.098 41.5104 55.1309 46.4451 51.8159 46.4011Z" fill="white"/>
<path d="M141.975 46.4011H111.836C111.162 46.4001 110.515 46.1444 110.039 45.69C109.563 45.2356 109.295 44.6197 109.295 43.9775C109.295 43.3354 109.563 42.7195 110.039 42.2651C110.515 41.8107 111.162 41.5549 111.836 41.554H141.975C145.257 41.5104 145.29 46.4451 141.975 46.4011Z" fill="white"/>
<path d="M232.133 46.4011H201.994C201.32 46.4001 200.674 46.1444 200.197 45.69C199.721 45.2356 199.453 44.6197 199.453 43.9775C199.453 43.3354 199.721 42.7195 200.197 42.2651C200.674 41.8107 201.32 41.5549 201.994 41.554H232.133C235.415 41.5104 235.448 46.4451 232.133 46.4011Z" fill="white"/>
<path d="M317.619 46.6628H287.481C286.806 46.6628 286.158 46.4074 285.681 45.9529C285.204 45.4984 284.936 44.882 284.936 44.2392C284.936 43.5965 285.204 42.9801 285.681 42.5256C286.158 42.0711 286.806 41.8157 287.481 41.8157H317.619C320.902 41.7721 320.934 46.7068 317.619 46.6628Z" fill="#98C1D9"/>
<path d="M270.597 37.0825H269.497V50.6935H270.597V37.0825Z" fill="white"/>
<path d="M156.823 238.532H27.6026C26.4512 238.531 25.3474 238.095 24.5332 237.32C23.7191 236.544 23.2611 235.493 23.2598 234.397V216.375C23.2611 215.279 23.7191 214.228 24.5332 213.452C25.3474 212.677 26.4512 212.241 27.6026 212.24H156.823C157.974 212.241 159.078 212.677 159.892 213.452C160.706 214.228 161.164 215.279 161.166 216.375V234.397C161.164 235.493 160.706 236.544 159.892 237.32C159.078 238.095 157.974 238.531 156.823 238.532Z" fill="#F0F0F0"/>
<path d="M144.268 235.743H30.5332C29.3819 235.742 28.278 235.305 27.4639 234.53C26.6497 233.755 26.1918 232.704 26.1904 231.607V219.167C26.1918 218.07 26.6497 217.019 27.4639 216.244C28.278 215.469 29.3819 215.033 30.5332 215.031H153.894C155.046 215.033 156.15 215.469 156.964 216.244C157.778 217.019 158.236 218.07 158.237 219.167V222.441C158.233 225.968 156.76 229.349 154.141 231.842C151.522 234.336 147.972 235.739 144.268 235.743Z" fill="white"/>
<path d="M105.036 224.104H53.0995C52.8025 224.104 52.5176 223.991 52.3075 223.791C52.0975 223.591 51.9795 223.32 51.9795 223.037C51.9795 222.754 52.0975 222.483 52.3075 222.283C52.5176 222.083 52.8025 221.971 53.0995 221.971H105.036C105.333 221.971 105.618 222.083 105.828 222.283C106.038 222.483 106.156 222.754 106.156 223.037C106.156 223.32 106.038 223.591 105.828 223.791C105.618 223.991 105.333 224.104 105.036 224.104Z" fill="#E6E6E6"/>
<path d="M131.327 228.466H53.0991C52.9518 228.466 52.8059 228.439 52.6697 228.386C52.5335 228.332 52.4097 228.254 52.3055 228.155C52.2012 228.055 52.1185 227.938 52.0621 227.808C52.0056 227.679 51.9766 227.54 51.9766 227.4C51.9766 227.259 52.0056 227.12 52.0621 226.991C52.1185 226.861 52.2012 226.744 52.3055 226.645C52.4097 226.545 52.5335 226.467 52.6697 226.414C52.8059 226.36 52.9518 226.333 53.0991 226.333H131.327C131.624 226.334 131.908 226.446 132.117 226.646C132.327 226.846 132.445 227.117 132.445 227.4C132.445 227.682 132.327 227.953 132.117 228.153C131.908 228.353 131.624 228.465 131.327 228.466Z" fill="#E6E6E6"/>
<path d="M165.078 191.62H17.7392C16.5635 191.619 15.4363 191.174 14.605 190.382C13.7737 189.591 13.306 188.517 13.3047 187.398V80.1494C13.306 79.0298 13.7737 77.9565 14.605 77.1649C15.4363 76.3733 16.5635 75.928 17.7392 75.9268H165.078C166.253 75.928 167.38 76.3733 168.212 77.1649C169.043 77.9565 169.511 79.0298 169.512 80.1494V187.398C169.511 188.517 169.043 189.591 168.212 190.382C167.38 191.174 166.253 191.619 165.078 191.62Z" fill="white"/>
<path d="M165.077 192.144H17.7391C16.4177 192.142 15.1508 191.642 14.2164 190.752C13.2821 189.862 12.7564 188.656 12.7549 187.397V80.1488C12.7564 78.8905 13.2821 77.6842 14.2165 76.7944C15.1509 75.9047 16.4177 75.4042 17.7391 75.4028H165.077C166.399 75.4042 167.666 75.9047 168.6 76.7944C169.534 77.6842 170.06 78.8905 170.062 80.1488V187.397C170.06 188.656 169.534 189.862 168.6 190.752C167.666 191.642 166.399 192.142 165.077 192.144ZM17.7391 76.4498C16.7092 76.4509 15.7218 76.841 14.9936 77.5344C14.2653 78.2279 13.8556 79.1681 13.8544 80.1489V187.397C13.8555 188.378 14.2652 189.318 14.9935 190.012C15.7218 190.705 16.7092 191.095 17.7391 191.097H165.077C166.107 191.095 167.095 190.705 167.823 190.012C168.551 189.318 168.961 188.378 168.962 187.397V80.1488C168.961 79.1681 168.551 78.2279 167.823 77.5344C167.095 76.841 166.107 76.4509 165.077 76.4498L17.7391 76.4498Z" fill="#F0F0F0"/>
<path d="M13.6455 171.204V187.397C13.6471 188.431 14.079 189.422 14.8464 190.153C15.6139 190.883 16.6543 191.295 17.7396 191.296H165.078C166.164 191.295 167.204 190.883 167.971 190.153C168.739 189.422 169.171 188.431 169.172 187.397V171.204H13.6455Z" fill="#F0F0F0"/>
<path d="M15.0332 76.6096L14.4404 77.4912L168.875 171.644L169.468 170.763L15.0332 76.6096Z" fill="#F0F0F0"/>
<path d="M169.312 76.6097L14.877 170.763L15.4697 171.644L169.904 77.4913L169.312 76.6097Z" fill="#F0F0F0"/>
<path d="M299.814 307.708L293.003 307.707L289.762 282.689L299.815 282.69L299.814 307.708Z" fill="#A0616A"/>
<path d="M299.632 305.588L292.364 302.777L292.15 302.693L288.136 305.588C285.934 305.588 283.817 306.397 282.226 307.847C280.635 309.298 279.694 311.277 279.599 313.372C279.588 313.487 279.588 313.608 279.588 313.728V313.995H301.55V305.588H299.632Z" fill="#2F2E41"/>
<path d="M283.862 301.672L277.437 303.824L265.66 281.248L275.143 278.072L283.862 301.672Z" fill="#A0616A"/>
<path d="M282.953 299.729L275.117 299.375L274.886 299.363L272.109 303.363C270.031 304.058 268.316 305.491 267.321 307.362C266.326 309.233 266.128 311.398 266.769 313.404C266.798 313.516 266.84 313.63 266.882 313.744L266.975 313.995L287.693 307.054L284.762 299.123L282.953 299.729Z" fill="#2F2E41"/>
<path d="M302.22 199.836C308.452 199.606 300.733 246.893 300.733 246.893C300.733 246.893 302.991 288.41 302.512 290.588C302.033 292.767 302.452 298.643 302.452 298.643C301.231 296.527 288.635 298.124 288.635 298.124L286.922 256.047L278.173 222.334L266.045 244.933L277.669 279.62C277.669 279.62 282.377 283.768 281.876 285.408C281.376 287.047 269.045 290.744 266.779 290.827C264.513 290.911 265.536 288.172 265.426 285.475C265.316 282.778 254.653 257.779 250.903 249.274C247.152 240.768 250.068 228.775 251.983 220.06C253.897 211.345 263.969 194.99 263.969 194.99C276.471 181.562 295.989 200.066 302.22 199.836Z" fill="#2F2E41"/>
<path d="M226.28 161.621C226.621 162.242 227.101 162.784 227.687 163.209C228.272 163.635 228.948 163.932 229.667 164.082C230.386 164.231 231.131 164.229 231.849 164.075C232.567 163.921 233.241 163.618 233.823 163.189L248.808 172.499L248.762 163.645L234.539 156.162C233.717 155.278 232.584 154.713 231.353 154.572C230.123 154.431 228.881 154.725 227.863 155.398C226.845 156.071 226.122 157.076 225.83 158.223C225.538 159.37 225.698 160.579 226.28 161.621Z" fill="#A0616A"/>
<path d="M298.984 207.417C283.531 207.417 275.015 204.471 270.492 201.841C264.963 198.625 264.016 195.234 263.979 195.09L263.968 195.049L264.506 188.6L264.741 188.098C265.826 185.786 265.97 183.172 265.145 180.765L265.128 180.716L265.133 180.664L268.746 136.038L281.533 132.05L285.253 128.49L301.815 128.262L304.123 132.717L317.18 137.398L310.765 173.758L307.69 178.806L308.928 184.304L308.919 184.353L304.885 207.283L304.663 207.292C302.673 207.377 300.78 207.418 298.984 207.417Z" fill="#3F3D56"/>
<path d="M259.005 179.576L252.943 176.153L252.563 175.631C251.791 174.573 250.77 173.703 249.581 173.089C248.392 172.476 247.068 172.136 245.716 172.098L245.646 172.096L237.296 167.421L240.757 157.766L253.847 161.448L262.972 139.857C263.473 138.671 264.31 137.641 265.389 136.881C266.469 136.121 267.748 135.661 269.086 135.552C270.423 135.443 271.766 135.69 272.965 136.264C274.165 136.839 275.173 137.719 275.878 138.807C276.6 139.943 276.975 141.25 276.959 142.578V156.706L276.905 156.776L259.005 179.576Z" fill="#3F3D56"/>
<path d="M299.536 199.113C299.666 198.423 299.953 197.768 300.377 197.195C300.801 196.622 301.352 196.145 301.99 195.796C302.629 195.448 303.34 195.237 304.074 195.179C304.807 195.121 305.545 195.216 306.236 195.459L317.591 182.292L320.341 190.75L309.136 201.957C308.631 203.034 307.728 203.898 306.599 204.384C305.47 204.871 304.193 204.946 303.01 204.595C301.826 204.244 300.819 203.493 300.179 202.482C299.539 201.472 299.31 200.273 299.536 199.113Z" fill="#A0616A"/>
<path d="M316.515 197.449L308.975 190.267L313.775 179.13L320.731 170.085C313.318 166.649 307.754 158.508 303.722 151.769L303.677 151.693L304.681 144.205C304.916 142.454 305.652 140.798 306.81 139.419C307.817 138.219 309.111 137.267 310.583 136.642C312.056 136.016 313.664 135.735 315.274 135.823C316.884 135.91 318.448 136.364 319.836 137.145C321.224 137.926 322.396 139.013 323.252 140.313L336.772 168.932L336.62 169.148L325.745 186.8L322.778 188.633L316.515 197.449Z" fill="#3F3D56"/>
<path d="M305.426 113.25C304.928 116.701 303.013 119.823 300.1 121.93C297.188 124.036 293.516 124.956 289.891 124.486C286.267 124.016 282.987 122.196 280.771 119.424C278.556 116.653 277.586 113.157 278.075 109.706L278.102 109.519C278.674 106.114 280.629 103.058 283.545 101.013C286.461 98.9673 290.104 98.0952 293.689 98.5848C297.274 99.0744 300.514 100.886 302.709 103.63C304.903 106.373 305.878 109.828 305.421 113.25L305.426 113.25Z" fill="#A0616A"/>
<path d="M301.914 120.019C302.622 118.648 303.35 117.177 303.151 115.66C302.952 114.144 301.39 112.695 299.857 113.145C298.94 113.415 298.247 114.277 297.289 114.321C295.97 114.382 295.214 112.945 294.803 111.75L293.132 106.883C291.526 108.074 289.664 108.914 287.679 109.341C285.694 109.768 283.634 109.773 281.647 109.354C280.094 109.016 278.526 108.357 277.616 107.114C276.705 105.87 276.711 103.94 277.96 103C278.572 102.538 279.387 102.363 279.972 101.871C280.335 101.566 280.585 101.157 280.686 100.706C280.786 100.255 280.731 99.785 280.529 99.3658C280.327 98.9467 279.989 98.6005 279.564 98.3787C279.14 98.1569 278.651 98.0711 278.171 98.1341L282.381 97.6331L281.127 95.4731C281.603 95.782 282.143 95.9928 282.71 96.0919C283.277 96.191 283.86 96.1762 284.421 96.0485C285.553 95.8543 286.62 95.4103 287.728 95.1141C290.413 94.4611 293.249 94.6607 295.804 95.6825C298.36 96.7044 300.495 98.4927 301.886 100.776C302.922 100.446 304.038 100.424 305.088 100.713C306.137 101.001 307.069 101.587 307.761 102.391C308.888 103.753 309.195 105.57 309.238 107.304C309.32 110.722 308.538 114.108 306.957 117.177C306.503 118.152 305.852 119.032 305.04 119.766C304.631 120.13 304.144 120.405 303.612 120.57C303.08 120.736 302.516 120.789 301.96 120.725" fill="#2F2E41"/>
<path d="M78.2697 106.497C78.4949 109.558 79.4419 112.531 81.0402 115.196C84.4087 120.829 90.1853 124.908 96.4068 127.332C104.18 130.361 112.844 130.454 121.093 129.779C128.755 129.152 136.339 127.698 144.029 127.398C149.976 127.217 155.929 127.352 161.86 127.803C173.367 128.581 184.826 130.024 196.212 131.773C199.295 132.241 202.372 132.744 205.443 133.282C205.733 133.306 206.02 133.357 206.3 133.433C206.356 133.455 206.446 133.438 206.497 133.469C206.589 133.524 206.122 133.328 206.405 133.551C206.8 133.945 207.152 134.377 207.456 134.839L211.661 139.992C212.867 141.47 213.986 143.265 215.545 144.43C216.644 145.238 217.969 145.719 219.355 145.811C220.74 145.903 222.123 145.602 223.329 144.946C224.589 144.188 225.593 143.102 226.223 141.815C227.191 140.126 228.344 138.54 229.665 137.084C234.668 131.527 241.621 128.109 247.436 123.433C250.253 121.26 252.657 118.644 254.543 115.696C256.153 113.029 257.153 110.069 257.48 107.009C258.176 100.794 256.174 94.4566 252.805 89.1697C249.142 83.4898 243.878 78.9024 237.614 75.9285C230.576 72.5141 222.788 70.851 214.981 70.0222C206.693 69.1423 198.308 69.145 189.98 69.2339C180.633 69.333 171.302 69.7244 161.989 70.4081C152.663 71.0955 143.374 72.0726 134.122 73.3393C125.244 74.5548 116.257 75.8217 107.567 77.9724C99.8895 79.8724 92.2339 82.8421 86.5011 88.223C81.4038 93.0073 77.8586 99.5544 78.2697 106.497Z" fill="#98C1D9"/>
<path d="M121.183 108.474C120.804 108.458 120.432 108.367 120.091 108.207C119.75 108.047 119.448 107.822 119.203 107.545C118.958 107.269 118.776 106.947 118.668 106.6C118.56 106.253 118.529 105.889 118.576 105.53L118.773 104.051C118.811 103.767 118.775 103.479 118.67 103.211C118.565 102.944 118.393 102.704 118.17 102.514L117.003 101.521C116.621 101.196 116.342 100.776 116.198 100.308C116.054 99.8398 116.05 99.3427 116.187 98.8727C116.324 98.4027 116.596 97.9787 116.973 97.6484C117.35 97.3182 117.817 97.0949 118.32 97.004L119.858 96.7259C120.152 96.6726 120.429 96.5519 120.664 96.3741C120.899 96.1964 121.085 95.9669 121.206 95.7055L121.837 94.3405C122.044 93.8943 122.378 93.512 122.801 93.2369C123.223 92.9618 123.719 92.8048 124.23 92.7837C124.742 92.7626 125.25 92.8782 125.696 93.1174C126.142 93.3566 126.509 93.7099 126.756 94.1374L127.508 95.4441C127.652 95.695 127.859 95.9087 128.109 96.0667C128.36 96.2247 128.647 96.3223 128.945 96.3511L130.502 96.5009C131.012 96.55 131.497 96.7339 131.902 97.0318C132.308 97.3297 132.618 97.7297 132.797 98.1866C132.976 98.6435 133.018 99.1391 132.917 99.6172C132.816 100.095 132.576 100.537 132.225 100.892L131.153 101.978C130.947 102.186 130.798 102.438 130.717 102.714C130.637 102.989 130.628 103.279 130.692 103.558L131.023 105.016C131.131 105.492 131.097 105.988 130.925 106.448C130.753 106.907 130.449 107.311 130.048 107.614C129.647 107.918 129.165 108.108 128.657 108.165C128.148 108.221 127.633 108.141 127.17 107.933L125.754 107.297C125.483 107.175 125.184 107.117 124.884 107.13C124.584 107.142 124.292 107.224 124.032 107.368L122.679 108.118C122.227 108.37 121.707 108.494 121.183 108.474Z" fill="white"/>
<path d="M143.226 107.865C142.527 107.834 141.867 107.553 141.377 107.079C141.081 106.78 140.86 106.421 140.731 106.029C140.602 105.637 140.568 105.222 140.632 104.816L140.813 103.459C140.852 103.17 140.816 102.876 140.709 102.604C140.602 102.331 140.427 102.087 140.199 101.893L139.117 100.972C138.798 100.713 138.543 100.389 138.372 100.024C138.201 99.6591 138.118 99.2626 138.128 98.8631C138.151 98.2714 138.385 97.7049 138.791 97.2564C139.197 96.808 139.751 96.5041 140.362 96.3946L141.882 96.1197C142.183 96.0654 142.465 95.9422 142.705 95.7609C142.944 95.5796 143.133 95.3455 143.257 95.0789L143.823 93.854C144.026 93.3891 144.359 92.9864 144.786 92.6903C145.214 92.3942 145.719 92.216 146.245 92.1756C146.762 92.1477 147.276 92.26 147.728 92.4994C148.18 92.7389 148.551 93.0956 148.798 93.5281L149.542 94.8196C149.689 95.0752 149.9 95.2929 150.155 95.4539C150.41 95.6149 150.703 95.7143 151.007 95.7436L152.45 95.8824C152.869 95.9136 153.275 96.0333 153.638 96.2329C154.002 96.4325 154.315 96.7068 154.553 97.036C154.898 97.528 155.058 98.1171 155.007 98.7069C154.955 99.2968 154.694 99.8524 154.268 100.283L153.208 101.356C152.999 101.568 152.847 101.825 152.765 102.105C152.683 102.386 152.674 102.681 152.738 102.966L153.044 104.311C153.142 104.7 153.148 105.104 153.062 105.495C152.976 105.886 152.799 106.254 152.546 106.572C152.163 107.04 151.624 107.369 151.018 107.506C150.412 107.642 149.775 107.578 149.212 107.323L147.811 106.695C147.535 106.571 147.231 106.512 146.926 106.525C146.621 106.538 146.323 106.621 146.059 106.767L144.722 107.509C144.269 107.761 143.75 107.885 143.226 107.865Z" fill="white"/>
<path d="M165.325 107.776C164.945 107.76 164.573 107.669 164.232 107.509C163.892 107.349 163.589 107.124 163.344 106.847C163.099 106.571 162.917 106.249 162.809 105.902C162.701 105.555 162.67 105.191 162.717 104.832L162.915 103.353C162.952 103.069 162.917 102.781 162.812 102.513C162.707 102.245 162.535 102.006 162.311 101.815L161.145 100.823C160.763 100.498 160.484 100.078 160.34 99.6096C160.195 99.1416 160.192 98.6445 160.329 98.1745C160.465 97.7045 160.738 97.2804 161.115 96.9502C161.492 96.6199 161.958 96.3967 162.461 96.3057L163.999 96.0276C164.294 95.9743 164.571 95.8536 164.806 95.6759C165.041 95.4981 165.227 95.2687 165.348 95.0072L165.979 93.6423C166.186 93.1961 166.519 92.8138 166.942 92.5387C167.365 92.2636 167.86 92.1066 168.372 92.0855C168.884 92.0643 169.391 92.1799 169.837 92.4191C170.284 92.6584 170.651 93.0117 170.897 93.4392L171.65 94.7459C171.794 94.9967 172 95.2104 172.251 95.3684C172.501 95.5265 172.788 95.6241 173.087 95.6529L174.644 95.8027C175.154 95.8517 175.639 96.0356 176.044 96.3335C176.45 96.6314 176.76 97.0315 176.939 97.4884C177.118 97.9453 177.16 98.4408 177.058 98.919C176.957 99.3971 176.718 99.8388 176.367 100.194L175.295 101.28C175.089 101.488 174.939 101.74 174.859 102.015C174.779 102.291 174.77 102.581 174.834 102.86L175.164 104.318C175.273 104.794 175.239 105.29 175.067 105.749C174.894 106.208 174.591 106.613 174.19 106.916C173.789 107.22 173.307 107.41 172.798 107.466C172.29 107.523 171.775 107.442 171.311 107.234L169.896 106.599C169.624 106.477 169.326 106.419 169.026 106.431C168.725 106.444 168.433 106.525 168.174 106.67L166.821 107.42C166.368 107.672 165.849 107.796 165.325 107.776Z" fill="white"/>
<path opacity="0.2" d="M186.821 107.22C186.441 107.204 186.069 107.113 185.729 106.953C185.388 106.793 185.085 106.568 184.84 106.292C184.595 106.015 184.413 105.693 184.305 105.346C184.198 104.999 184.166 104.635 184.214 104.276L184.411 102.797C184.448 102.513 184.413 102.225 184.308 101.958C184.203 101.69 184.031 101.45 183.807 101.26L182.641 100.267C182.259 99.9421 181.98 99.5219 181.836 99.0539C181.691 98.5859 181.688 98.0888 181.825 97.6188C181.962 97.1488 182.234 96.7247 182.611 96.3945C182.988 96.0643 183.454 95.841 183.957 95.7501L185.495 95.4719C185.79 95.4187 186.067 95.298 186.302 95.1202C186.537 94.9425 186.723 94.713 186.844 94.4516L187.475 93.0866C187.682 92.6404 188.015 92.2581 188.438 91.983C188.861 91.7079 189.356 91.5509 189.868 91.5298C190.38 91.5087 190.887 91.6243 191.334 91.8635C191.78 92.1027 192.147 92.456 192.393 92.8835L193.146 94.1902C193.29 94.4411 193.496 94.6547 193.747 94.8128C193.997 94.9708 194.284 95.0684 194.583 95.0972L196.14 95.247C196.65 95.2961 197.135 95.48 197.54 95.7779C197.946 96.0758 198.256 96.4758 198.435 96.9327C198.614 97.3896 198.656 97.8852 198.554 98.3633C198.453 98.8415 198.214 99.2832 197.863 99.6384L196.791 100.724C196.585 100.932 196.435 101.184 196.355 101.46C196.275 101.735 196.266 102.025 196.33 102.304L196.66 103.762C196.769 104.238 196.735 104.734 196.563 105.194C196.39 105.653 196.087 106.057 195.686 106.36C195.285 106.664 194.803 106.854 194.294 106.911C193.786 106.967 193.271 106.887 192.807 106.679L191.392 106.043C191.12 105.921 190.822 105.863 190.522 105.876C190.222 105.888 189.929 105.97 189.67 106.114L188.317 106.864C187.864 107.116 187.345 107.24 186.821 107.22Z" fill="black"/>
<path opacity="0.2" d="M208.317 106.665C207.937 106.649 207.565 106.558 207.225 106.398C206.884 106.238 206.581 106.013 206.336 105.736C206.092 105.46 205.909 105.138 205.802 104.791C205.694 104.444 205.662 104.08 205.71 103.721L205.907 102.242C205.945 101.958 205.909 101.67 205.804 101.402C205.699 101.135 205.527 100.895 205.303 100.704L204.137 99.7119C203.755 99.387 203.476 98.9667 203.332 98.4987C203.188 98.0307 203.184 97.5336 203.321 97.0636C203.458 96.5937 203.73 96.1696 204.107 95.8393C204.484 95.5091 204.95 95.2858 205.454 95.1949L206.991 94.9168C207.286 94.8635 207.563 94.7428 207.798 94.565C208.033 94.3873 208.219 94.1578 208.34 93.8964L208.971 92.5314C209.178 92.0852 209.511 91.703 209.934 91.4278C210.357 91.1527 210.852 90.9957 211.364 90.9746C211.876 90.9535 212.383 91.0691 212.83 91.3083C213.276 91.5475 213.643 91.9009 213.889 92.3284L214.642 93.6351C214.786 93.8859 214.993 94.0996 215.243 94.2576C215.493 94.4156 215.78 94.5133 216.079 94.5421L217.636 94.6918C218.146 94.7409 218.631 94.9248 219.036 95.2227C219.442 95.5206 219.752 95.9207 219.931 96.3776C220.11 96.8345 220.152 97.33 220.051 97.8082C219.949 98.2863 219.71 98.728 219.359 99.0832L218.287 100.169C218.081 100.377 217.931 100.629 217.851 100.905C217.771 101.18 217.762 101.47 217.826 101.749L218.157 103.207C218.265 103.683 218.231 104.179 218.059 104.638C217.886 105.098 217.583 105.502 217.182 105.805C216.781 106.109 216.299 106.299 215.79 106.356C215.282 106.412 214.767 106.331 214.304 106.124L212.888 105.488C212.616 105.366 212.318 105.308 212.018 105.321C211.718 105.333 211.425 105.415 211.166 105.559L209.813 106.309C209.36 106.561 208.841 106.685 208.317 106.665Z" fill="black"/>
<path d="M345.266 281.313L345.895 267.849C352.45 264.513 359.761 262.75 367.194 262.715C356.964 270.679 358.243 286.032 351.307 296.742C349.117 300.067 346.17 302.88 342.683 304.972C339.196 307.064 335.259 308.383 331.165 308.829L322.604 313.821C321.429 307.585 321.688 301.18 323.363 295.049C325.038 288.917 328.089 283.204 332.305 278.304C334.7 275.577 337.445 273.148 340.476 271.074C342.527 276.222 345.266 281.313 345.266 281.313Z" fill="#F2F2F2"/>
<path d="M394.345 315H164.89C164.716 315 164.55 314.934 164.427 314.818C164.304 314.701 164.235 314.542 164.235 314.377C164.235 314.211 164.304 314.053 164.427 313.936C164.55 313.819 164.716 313.753 164.89 313.753H394.345C394.519 313.753 394.686 313.819 394.808 313.936C394.931 314.053 395 314.211 395 314.377C395 314.542 394.931 314.701 394.808 314.818C394.686 314.934 394.519 315 394.345 315Z" fill="#CACACA"/>
</g>
<defs>
<clipPath id="clip0_424_10392">
<rect width="395" height="315" fill="white"/>
</clipPath>
</defs>
</svg>
