<svg width="128" height="123" viewBox="0 0 128 123" fill="none" xmlns="http://www.w3.org/2000/svg">
<path d="M47.8578 69.0394H44.8711V54.8602H47.8103V56.0447C48.6044 55.0652 49.8015 54.473 51.2118 54.473C54.0326 54.473 56.0474 56.6483 56.0474 59.7461C56.0474 62.8439 54.0563 65.0191 51.2118 65.0191C49.8133 65.0191 48.6518 64.4497 47.8459 63.4475L47.8578 69.0394ZM50.4059 57.0583C48.8533 57.0583 47.7392 58.2086 47.7392 59.7575C47.7392 61.3064 48.8533 62.4566 50.4059 62.4566C51.9585 62.4566 53.0726 61.3064 53.0726 59.7575C53.0726 58.1858 51.9348 57.0583 50.4059 57.0583Z" fill="black"/>
<path d="M57.7778 61.3747H60.3023C60.3023 62.3541 61.2623 63.0375 62.5541 63.0375C63.6445 63.0375 64.4385 62.5363 64.4385 61.8758C64.4148 59.9055 57.8726 61.853 57.8726 57.7302C57.8963 55.8169 59.7571 54.4388 62.246 54.4388C64.9719 54.4388 66.9393 55.8511 66.963 57.8213H64.3319C64.3082 57.0241 63.443 56.4661 62.246 56.4661C61.3097 56.4661 60.5749 56.9216 60.5749 57.5594C60.5512 59.4386 67.283 57.8897 67.2948 61.5683C67.2948 63.5955 65.3274 65.0647 62.4948 65.0647C59.7571 65.0647 57.7778 63.5158 57.7778 61.3747Z" fill="black"/>
<path d="M72.6163 64.6434H69.6296V54.8604H72.6163V64.6434Z" fill="black"/>
<path d="M83.1764 69.0395V63.4589C82.3823 64.4498 81.209 65.0306 79.8104 65.0306C76.9897 65.0306 74.9749 62.8553 74.9749 59.7576C74.9749 56.6598 76.9897 54.4845 79.8104 54.4845C81.2445 54.4845 82.4178 55.0767 83.2119 56.0562V54.8717H86.163V69.0509L83.1764 69.0395ZM80.6401 62.4453C82.1927 62.4453 83.3067 61.295 83.3067 59.7462C83.3067 58.1973 82.1927 57.047 80.6401 57.047C79.1112 57.047 77.9734 58.1745 77.9734 59.7462C77.9734 61.3064 79.0875 62.4453 80.6401 62.4453Z" fill="black"/>
<path d="M88.557 60.9762V54.8604H91.5437V60.4751C91.5437 61.6595 92.2548 62.5023 93.4281 62.5023C94.6015 62.5023 95.5615 61.6026 95.5615 60.3612V54.8604H98.5482V64.6434H95.6444V63.3223C94.9333 64.3701 93.7363 65.0192 92.397 65.0192C90.0978 65.0306 88.557 63.3223 88.557 60.9762Z" fill="black"/>
<path d="M108.705 61.5342L111.313 62.0923C110.779 63.7892 108.682 65.0306 106.276 65.0306C102.993 65.0306 100.67 62.8326 100.67 59.6778C100.67 56.6142 102.993 54.4845 106.276 54.4845C109.535 54.4845 111.763 56.6256 111.763 59.7234C111.763 59.9739 111.763 60.3726 111.727 60.5776L103.751 60.5548C104.012 61.9328 105.007 62.8326 106.359 62.8326C107.425 62.8326 108.338 62.2745 108.705 61.5342ZM108.741 58.8351C108.563 57.5937 107.567 56.6712 106.216 56.6712C104.901 56.6712 103.988 57.5253 103.727 58.8351H108.741Z" fill="#EE6C4D"/>
<path d="M71.1348 50.3275C72.1541 50.3275 72.8652 50.9995 72.8652 51.9333C72.8652 52.89 72.1541 53.562 71.1348 53.562C70.1156 53.562 69.4044 52.89 69.4044 51.9333C69.3926 50.9995 70.1156 50.3275 71.1348 50.3275Z" fill="#EE6C4D"/>
<path d="M23.5179 69.9995C23.0279 68.4015 22.2889 67.2106 21.3004 66.4261C19.8179 65.2496 17.4624 65.9811 16.5924 64.7671C15.7224 63.5532 17.2019 61.3212 17.7209 60.0043C18.2404 58.6873 15.7309 58.2218 16.0239 57.8478C16.2189 57.5983 17.4874 56.8793 19.8284 55.6899C20.4934 51.8965 22.9499 50 27.199 50C33.572 50 36 55.4029 36 58.8398C36 62.2762 33.06 65.9781 28.872 66.7766C28.4975 67.3216 29.0375 68.3965 30.492 70" stroke="#EE6C4D" stroke-width="1.75012" stroke-linecap="round" stroke-linejoin="round"/>
<path d="M23.7499 55.2497C23.4229 56.5166 23.5199 57.4066 24.0414 57.9186C24.5624 58.4311 25.4504 58.7661 26.7054 58.9236C26.4204 60.5585 26.7679 61.325 27.7469 61.224C28.7259 61.123 29.3144 60.7165 29.5119 60.004C31.0419 60.434 31.8715 60.074 32 58.9241C32.1925 57.1991 31.2625 55.8236 30.8809 55.8236C30.4999 55.8236 29.5119 55.7771 29.5119 55.2497C29.5119 54.7222 28.3579 54.4247 27.3164 54.4247C26.2749 54.4247 26.9014 53.7222 25.4714 53.9997C24.5179 54.1847 23.9439 54.6012 23.7499 55.2497V55.2497Z" stroke="#EE6C4D" stroke-width="1.5" stroke-linejoin="round"/>
</svg>
