<svg width="95" height="96" viewBox="0 0 95 96" fill="none" xmlns="http://www.w3.org/2000/svg">
<path d="M0.698242 46.9662C0.698242 21.0275 21.7257 0 47.6644 0C73.6031 0 94.6305 21.0275 94.6305 46.9662V49.0338C94.6305 74.9725 73.6031 96 47.6644 96C21.7257 96 0.698242 74.9725 0.698242 49.0338V46.9662Z" fill="#E2E8F0"/>
<g clip-path="url(#clip0_630_9247)">
<path d="M48.6982 54.5C60.0607 54.5 69.2697 45.2111 69.2697 33.75C69.2697 22.2889 60.0607 13 48.6982 13C37.3357 13 28.1268 22.2889 28.1268 33.75C28.1268 45.2111 37.3357 54.5 48.6982 54.5ZM63.0982 59.6875H60.4143C56.8465 61.341 52.8768 62.2812 48.6982 62.2812C44.5197 62.2812 40.5661 61.341 36.9822 59.6875H34.2982C22.3732 59.6875 12.6982 69.4465 12.6982 81.475V88.2188C12.6982 92.5146 16.1536 96 20.4125 96H76.984C81.2429 96 84.6982 92.5146 84.6982 88.2188V81.475C84.6982 69.4465 75.0232 59.6875 63.0982 59.6875Z" fill="white"/>
</g>
<defs>
<clipPath id="clip0_630_9247">
<rect width="72" height="83" fill="white" transform="translate(12.6982 13)"/>
</clipPath>
</defs>
</svg>
