<svg width="160" height="55" viewBox="0 0 160 55" fill="none" xmlns="http://www.w3.org/2000/svg">
<g clip-path="url(#clip0_282_2132)">
<path d="M60.6571 43.1839H56.2324V18.8135H60.5869V20.8493C61.7633 19.1658 63.5367 18.1479 65.6261 18.1479C69.805 18.1479 72.7899 21.8867 72.7899 27.211C72.7899 32.5353 69.8401 36.2741 65.6261 36.2741C63.5542 36.2741 61.8335 35.2953 60.6395 33.5728L60.6571 43.1839ZM64.4321 22.5914C62.132 22.5914 60.4815 24.5684 60.4815 27.2306C60.4815 29.8927 62.132 31.8698 64.4321 31.8698C66.7323 31.8698 68.3827 29.8927 68.3827 27.2306C68.3827 24.5293 66.6971 22.5914 64.4321 22.5914Z" fill="black"/>
<path d="M75.3535 30.0101H79.0934C79.0934 31.6935 80.5156 32.868 82.4295 32.868C84.0448 32.868 85.2212 32.0067 85.2212 30.8714C85.1861 27.4849 75.494 30.8322 75.494 23.7462C75.5291 20.4576 78.2857 18.0891 81.973 18.0891C86.0114 18.0891 88.926 20.5164 88.9611 23.9028H85.0632C85.0281 22.5326 83.7464 21.5734 81.973 21.5734C80.5859 21.5734 79.4973 22.3564 79.4973 23.4526C79.4621 26.6824 89.4352 24.0202 89.4528 30.3428C89.4528 33.8271 86.5381 36.3523 82.3417 36.3523C78.2857 36.3523 75.3535 33.6901 75.3535 30.0101Z" fill="black"/>
<path d="M97.3368 35.6281H92.9121V18.8135H97.3368V35.6281Z" fill="black"/>
<path d="M112.98 43.1839V33.5923C111.804 35.2953 110.066 36.2936 107.994 36.2936C103.815 36.2936 100.83 32.5548 100.83 27.2305C100.83 21.9062 103.815 18.1675 107.994 18.1675C110.118 18.1675 111.857 19.1854 113.033 20.8688V18.833H117.405V43.2035L112.98 43.1839ZM109.223 31.8502C111.523 31.8502 113.174 29.8731 113.174 27.211C113.174 24.5488 111.523 22.5718 109.223 22.5718C106.958 22.5718 105.272 24.5097 105.272 27.211C105.272 29.8927 106.923 31.8502 109.223 31.8502Z" fill="black"/>
<path d="M120.952 29.3251V18.8135H125.377V28.4638C125.377 30.4995 126.43 31.9481 128.169 31.9481C129.907 31.9481 131.329 30.4017 131.329 28.268V18.8135H135.754V35.6281H131.452V33.3574C130.399 35.1583 128.625 36.2741 126.641 36.2741C123.235 36.2936 120.952 33.3574 120.952 29.3251Z" fill="black"/>
<path d="M150.801 30.2842L154.664 31.2434C153.874 34.16 150.766 36.2936 147.202 36.2936C142.338 36.2936 138.896 32.5157 138.896 27.0935C138.896 21.8279 142.338 18.1675 147.202 18.1675C152.03 18.1675 155.331 21.8475 155.331 27.1718C155.331 27.6025 155.331 28.2876 155.278 28.6399L143.462 28.6008C143.848 30.9693 145.323 32.5157 147.324 32.5157C148.905 32.5157 150.257 31.5566 150.801 30.2842ZM150.854 25.645C150.59 23.5114 149.115 21.9258 147.114 21.9258C145.165 21.9258 143.813 23.3939 143.427 25.645H150.854Z" fill="#EE6C4D"/>
<path d="M95.1418 11.0227C96.6518 11.0227 97.7053 12.1776 97.7053 13.7827C97.7053 15.427 96.6518 16.5819 95.1418 16.5819C93.6318 16.5819 92.5783 15.427 92.5783 13.7827C92.5608 12.1776 93.6318 11.0227 95.1418 11.0227Z" fill="#EE6C4D"/>
<path d="M24.5976 44.8339C23.8717 42.0874 22.7769 40.0404 21.3124 38.6921C19.1161 36.67 15.6265 37.9272 14.3376 35.8407C13.0487 33.7542 15.2405 29.9181 16.0094 27.6545C16.7791 25.391 13.0613 24.5909 13.4953 23.9481C13.7842 23.5193 15.6635 22.2836 19.1317 20.2392C20.1169 13.7192 23.7561 10.4597 30.051 10.4597C39.4925 10.4597 43.0896 19.7459 43.0896 25.6531C43.0896 31.5594 38.734 37.9221 32.5295 39.2945C31.9747 40.2312 32.7747 42.0788 34.9295 44.8347" stroke="#EE6C4D" stroke-width="1.75012" stroke-linecap="round" stroke-linejoin="round"/>
<path d="M24.9413 19.4825C24.4569 21.6601 24.6006 23.1898 25.3732 24.0698C26.145 24.9506 27.4606 25.5264 29.3198 25.7971C28.8976 28.6072 29.4124 29.9245 30.8628 29.751C32.3132 29.5774 33.1851 28.8787 33.4777 27.6541C35.7443 28.3932 36.9732 27.7744 37.1636 25.7979C37.4488 22.8332 36.071 20.4691 35.5058 20.4691C34.9414 20.4691 33.4777 20.3892 33.4777 19.4825C33.4777 18.5759 31.768 18.0646 30.225 18.0646C28.6821 18.0646 29.6102 16.8572 27.4917 17.3342C26.0791 17.6521 25.2287 18.368 24.9413 19.4825V19.4825Z" stroke="#EE6C4D" stroke-width="1.5" stroke-linejoin="round"/>
</g>
<defs>
<clipPath id="clip0_282_2132">
<rect width="160" height="55" fill="white"/>
</clipPath>
</defs>
</svg>
