<svg width="50" height="45" viewBox="0 0 50 45" fill="none" xmlns="http://www.w3.org/2000/svg">
<path d="M0 3.19966C0 2.35106 0.263392 1.53721 0.732233 0.937159C1.20107 0.337107 1.83696 0 2.5 0H47.5C48.163 0 48.7989 0.337107 49.2678 0.937159C49.7366 1.53721 50 2.35106 50 3.19966C50 4.04826 49.7366 4.86211 49.2678 5.46216C48.7989 6.06221 48.163 6.39932 47.5 6.39932H2.5C1.83696 6.39932 1.20107 6.06221 0.732233 5.46216C0.263392 4.86211 0 4.04826 0 3.19966ZM0 22.5C0 21.6514 0.263392 20.8376 0.732233 20.2375C1.20107 19.6374 1.83696 19.3003 2.5 19.3003H47.5C48.163 19.3003 48.7989 19.6374 49.2678 20.2375C49.7366 20.8376 50 21.6514 50 22.5C50 23.3486 49.7366 24.1625 49.2678 24.7625C48.7989 25.3626 48.163 25.6997 47.5 25.6997H2.5C1.83696 25.6997 1.20107 25.3626 0.732233 24.7625C0.263392 24.1625 0 23.3486 0 22.5ZM2.5 38.6007C1.83696 38.6007 1.20107 38.9378 0.732233 39.5378C0.263392 40.1379 0 40.9517 0 41.8003C0 42.6489 0.263392 43.4628 0.732233 44.0628C1.20107 44.6629 1.83696 45 2.5 45H47.5C48.163 45 48.7989 44.6629 49.2678 44.0628C49.7366 43.4628 50 42.6489 50 41.8003C50 40.9517 49.7366 40.1379 49.2678 39.5378C48.7989 38.9378 48.163 38.6007 47.5 38.6007H2.5Z" fill="#1D1D1D"/>
</svg>
