<svg width="326" height="297" viewBox="0 0 326 297" fill="none" xmlns="http://www.w3.org/2000/svg">
<path d="M262 61.9197C262 91.743 234.466 115.92 200.5 115.92C166.534 115.92 139 91.743 139 61.9197C139 32.0963 166.534 7.91967 200.5 7.91967C234.466 7.91967 262 32.0963 262 61.9197Z" fill="#EE6C4D"/>
<g clip-path="url(#clip0_192_10401)">
<path d="M268.299 187.169C267.988 186.806 267.756 186.375 267.62 185.906C267.484 185.438 267.446 184.944 267.51 184.458C267.574 183.973 267.737 183.508 267.989 183.097C268.241 182.686 268.575 182.338 268.967 182.078L266.456 170.467L271.934 172.636L273.479 183.329C273.847 184.056 273.952 184.901 273.771 185.704C273.591 186.506 273.138 187.211 272.5 187.684C271.861 188.157 271.081 188.366 270.307 188.271C269.532 188.176 268.818 187.784 268.299 187.169Z" fill="#FFB8B8"/>
<path d="M267.92 177.953L263.104 168.1L263.756 143.29L264.065 143.98C264.426 144.783 272.875 163.714 272.272 170.051L273.238 175.843L267.92 177.953Z" fill="#3F3D56"/>
<path d="M264.78 250.771H268.641L270.478 235.008L264.779 235.009L264.78 250.771Z" fill="#FFB8B8"/>
<path d="M263.795 249.437L271.399 249.437H271.4C272.685 249.437 273.917 249.977 274.826 250.939C275.735 251.9 276.245 253.205 276.245 254.565V254.732L263.795 254.732L263.795 249.437Z" fill="#2F2E41"/>
<path d="M226.629 247.665L230.349 248.76L236.109 234.095L230.619 232.479L226.629 247.665Z" fill="#FFB8B8"/>
<path d="M226.017 246.101L233.343 248.257L233.344 248.257C234.582 248.621 235.633 249.491 236.265 250.676C236.897 251.86 237.059 253.261 236.714 254.572L236.672 254.732L224.677 251.203L226.017 246.101Z" fill="#2F2E41"/>
<path d="M260.93 244.626L253.137 185.574L236.306 244.292L223.072 239.51L242.04 160.885L242.165 160.875L262.035 159.413L276.391 239.854L260.93 244.626Z" fill="#2F2E41"/>
<path d="M258.869 133.058C258.869 133.058 251.625 129.058 241.861 130.725C241.861 130.725 236.665 143.994 241.861 149.276L243.279 162.558C243.279 162.558 256.507 170.891 260.916 161.225L260.286 150.225C260.286 150.225 263.436 144.949 260.916 141.087C259.406 138.728 258.685 135.902 258.869 133.058Z" fill="#EE6C4D"/>
<path d="M259.787 193.472L261.058 165.549L257.46 132.332L257.625 132.306C262.345 131.553 263.859 140.159 263.921 140.526L272.137 189.688L259.787 193.472Z" fill="#3F3D56"/>
<path d="M243.769 193.763L229.244 192.055L229.248 191.887C229.299 189.611 230.55 136.105 234.053 132.315C237.576 128.503 244.225 130.153 244.507 130.225L244.647 130.261L243.452 152.902L243.769 193.763Z" fill="#3F3D56"/>
<path d="M246.444 161.784C246.004 161.936 245.537 161.985 245.078 161.927C244.618 161.868 244.176 161.704 243.783 161.445C243.39 161.186 243.055 160.839 242.802 160.428C242.55 160.018 242.385 159.554 242.32 159.068L231.275 156.778L235.374 152.362L245.234 155.214C246.011 155.153 246.783 155.395 247.402 155.896C248.022 156.397 248.447 157.12 248.596 157.93C248.745 158.74 248.608 159.58 248.212 160.29C247.815 161 247.186 161.532 246.444 161.784Z" fill="#FFB8B8"/>
<path d="M240.55 159.103L236.951 158.284C231.638 159.975 222.364 154.022 218.616 151.378C217.911 150.88 217.682 149.894 217.936 148.448C218.311 146.425 219.365 144.613 220.903 143.348L234.103 132.271L237.435 131.681L238.425 137.616L230.014 147.177L242.395 154.309L240.55 159.103Z" fill="#3F3D56"/>
<path d="M239.127 125.7V118.004C239.127 114.748 240.349 111.625 242.525 109.323C244.7 107.02 247.651 105.727 250.728 105.727C253.804 105.727 256.755 107.02 258.931 109.323C261.106 111.625 262.328 114.748 262.328 118.004V125.7C262.328 126.138 262.163 126.557 261.871 126.866C261.579 127.175 261.183 127.349 260.77 127.35H240.685C240.272 127.349 239.876 127.175 239.584 126.866C239.292 126.557 239.127 126.138 239.127 125.7Z" fill="#2F2E41"/>
<path d="M250.261 127.274C254.958 127.274 258.766 123.244 258.766 118.272C258.766 113.301 254.958 109.271 250.261 109.271C245.564 109.271 241.756 113.301 241.756 118.272C241.756 123.244 245.564 127.274 250.261 127.274Z" fill="#FFB8B8"/>
<path d="M241.523 118.237C241.442 118.138 241.382 118.022 241.347 117.896C241.312 117.77 241.303 117.637 241.32 117.507L242.328 110.082C242.348 109.931 242.403 109.787 242.489 109.665C242.574 109.542 242.687 109.444 242.818 109.379C247.96 106.831 253.175 106.828 258.318 109.369C258.454 109.437 258.571 109.542 258.658 109.673C258.745 109.804 258.798 109.956 258.812 110.115L259.485 117.55C259.496 117.677 259.483 117.805 259.445 117.926C259.406 118.048 259.345 118.159 259.264 118.254C259.183 118.348 259.084 118.424 258.973 118.475C258.863 118.527 258.744 118.554 258.623 118.554H256.917C256.753 118.553 256.592 118.503 256.453 118.41C256.314 118.316 256.203 118.183 256.133 118.025L255.397 116.356C255.349 116.248 255.27 116.159 255.17 116.103C255.071 116.047 254.957 116.026 254.845 116.045C254.734 116.064 254.631 116.12 254.553 116.206C254.475 116.291 254.425 116.402 254.411 116.52L254.265 117.751C254.239 117.972 254.137 118.176 253.979 118.324C253.821 118.472 253.617 118.553 253.406 118.554H242.177C242.053 118.554 241.931 118.525 241.818 118.471C241.705 118.416 241.604 118.337 241.523 118.237Z" fill="#2F2E41"/>
<path d="M205.805 47.7939H15V173.543H205.805V47.7939Z" fill="#E6E6E6"/>
<path d="M62.7408 72.019H27.7949V96.0593H62.7408V72.019Z" fill="white"/>
<path d="M106.164 72.019H71.2178V96.0593H106.164V72.019Z" fill="white"/>
<path d="M149.587 72.019H114.641V96.0593H149.587V72.019Z" fill="white"/>
<path d="M193.009 72.019H158.063V96.0593H193.009V72.019Z" fill="white"/>
<path d="M62.7408 106.045H27.7949V130.086H62.7408V106.045Z" fill="white"/>
<path d="M106.164 106.045H71.2178V130.086H106.164V106.045Z" fill="white"/>
<path d="M149.587 106.045H114.641V130.086H149.587V106.045Z" fill="white"/>
<path d="M193.009 106.045H158.063V130.086H193.009V106.045Z" fill="white"/>
<path d="M62.7408 140.072H27.7949V164.112H62.7408V140.072Z" fill="white"/>
<path d="M106.164 140.072H71.2178V164.112H106.164V140.072Z" fill="white"/>
<path d="M149.587 140.072H114.641V164.112H149.587V140.072Z" fill="white"/>
<path d="M193.009 140.072H158.063V164.112H193.009V140.072Z" fill="white"/>
<path d="M64.9724 62.5882C67.8674 62.5882 70.2142 60.1044 70.2142 57.0404C70.2142 53.9765 67.8674 51.4927 64.9724 51.4927C62.0773 51.4927 59.7305 53.9765 59.7305 57.0404C59.7305 60.1044 62.0773 62.5882 64.9724 62.5882Z" fill="white"/>
<path d="M151.638 62.5882C154.533 62.5882 156.88 60.1044 156.88 57.0404C156.88 53.9765 154.533 51.4927 151.638 51.4927C148.743 51.4927 146.396 53.9765 146.396 57.0404C146.396 60.1044 148.743 62.5882 151.638 62.5882Z" fill="white"/>
<path d="M67.0695 33H62.876V58.5197H67.0695V33Z" fill="#E6E6E6"/>
<path d="M153.735 33H149.542V58.5197H153.735V33Z" fill="#E6E6E6"/>
<path d="M183.439 84.0395C183.438 86.0479 182.751 87.9883 181.506 89.5039C180.261 91.0196 178.54 92.0088 176.661 92.2897C174.782 92.5706 172.87 92.1245 171.277 91.0332C169.684 89.9419 168.517 88.2788 167.989 86.3494C167.462 84.4201 167.61 82.3541 168.406 80.5311C169.203 78.7081 170.594 77.2505 172.325 76.4262C174.055 75.6019 176.009 75.4662 177.826 76.0441C179.644 76.6219 181.203 77.8746 182.218 79.5718C183.017 80.9083 183.441 82.4578 183.439 84.0395Z" fill="#EE6C4D"/>
<path d="M182.218 79.5716L174.439 87.8029C173.95 87.0019 171.227 83.279 171.227 83.279C171.576 82.9056 171.948 82.5576 172.342 82.2373L174.6 85.4246L181.307 78.3262C181.647 78.7099 181.952 79.1269 182.218 79.5716Z" fill="white"/>
<path d="M96.5937 118.065C96.5919 120.074 95.9053 122.014 94.6601 123.53C93.4149 125.045 91.6947 126.035 89.8156 126.316C87.9365 126.597 86.0248 126.15 84.4316 125.059C82.8384 123.968 81.6709 122.305 81.1435 120.375C80.616 118.446 80.7642 116.38 81.5607 114.557C82.3572 112.734 83.7486 111.276 85.4791 110.452C87.2097 109.628 89.1632 109.492 90.9806 110.07C92.7981 110.648 94.3576 111.9 95.3723 113.598C96.1715 114.934 96.5951 116.484 96.5937 118.065Z" fill="#EE6C4D"/>
<path d="M95.3726 113.598L87.5936 121.829C87.1047 121.028 84.3809 117.305 84.3809 117.305C84.7299 116.932 85.1024 116.584 85.4958 116.264L87.7545 119.451L94.4616 112.353C94.8018 112.736 95.1068 113.153 95.3726 113.598Z" fill="white"/>
<path d="M53.1709 118.065C53.1691 120.074 52.4825 122.014 51.2373 123.53C49.9921 125.046 48.2719 126.035 46.3928 126.316C44.5137 126.597 42.6019 126.15 41.0088 125.059C39.4156 123.968 38.248 122.305 37.7206 120.375C37.1932 118.446 37.3414 116.38 38.1379 114.557C38.9344 112.734 40.3257 111.276 42.0563 110.452C43.7869 109.628 45.7404 109.492 47.5579 110.07C49.3754 110.648 50.9348 111.9 51.9496 113.598C52.7487 114.934 53.1723 116.484 53.1709 118.065Z" fill="#EE6C4D"/>
<path d="M51.9487 113.598L44.1698 121.829C43.6809 121.028 40.957 117.305 40.957 117.305C41.3061 116.932 41.6786 116.584 42.072 116.264L44.3307 119.451L51.0378 112.353C51.3779 112.736 51.683 113.153 51.9487 113.598Z" fill="white"/>
<path d="M314.654 255H182.718C182.627 255 182.538 254.961 182.474 254.893C182.409 254.824 182.372 254.731 182.372 254.634C182.372 254.536 182.409 254.443 182.474 254.374C182.538 254.306 182.627 254.267 182.718 254.267H314.654C314.746 254.267 314.834 254.306 314.899 254.374C314.964 254.443 315 254.536 315 254.634C315 254.731 314.964 254.824 314.899 254.893C314.834 254.961 314.746 255 314.654 255Z" fill="#3F3D56"/>
</g>
<defs>
<clipPath id="clip0_192_10401">
<rect width="300" height="222" fill="white" transform="translate(15 33)"/>
</clipPath>
</defs>
</svg>
