<svg width="345" height="298" viewBox="0 0 345 298" fill="none" xmlns="http://www.w3.org/2000/svg">
<ellipse cx="174" cy="150.5" rx="160" ry="147.5" fill="#EE6C4D"/>
<g clip-path="url(#clip0_192_10394)">
<path d="M333.581 261.927H213.979C213.868 261.927 213.762 261.877 213.684 261.788C213.605 261.699 213.562 261.579 213.562 261.453C213.562 261.328 213.605 261.208 213.684 261.119C213.762 261.03 213.868 260.98 213.979 260.979H333.581C333.692 260.979 333.799 261.029 333.877 261.118C333.956 261.207 334 261.328 334 261.453C334 261.579 333.956 261.7 333.877 261.788C333.799 261.877 333.692 261.927 333.581 261.927Z" fill="#3F3D56"/>
<path d="M277.132 204.467C283.537 204.467 288.73 198.587 288.73 191.334C288.73 184.081 283.537 178.201 277.132 178.201C270.726 178.201 265.533 184.081 265.533 191.334C265.533 198.587 270.726 204.467 277.132 204.467Z" fill="#2F2E41"/>
<path d="M277.367 205.627C282.134 205.627 285.999 201.251 285.999 195.853C285.999 190.454 282.134 186.078 277.367 186.078C272.599 186.078 268.734 190.454 268.734 195.853C268.734 201.251 272.599 205.627 277.367 205.627Z" fill="#A0616A"/>
<path d="M290.487 210.038C290.487 210.038 274.671 206.854 264.479 210.834L267.466 237.697L266.763 242.075L287.851 241.279L286.445 236.901L290.487 210.038Z" fill="#A0616A"/>
<path d="M279.496 239.026C275.855 238.977 272.218 238.716 268.601 238.245C267.858 238.152 267.173 237.747 266.68 237.11C266.188 236.473 265.925 235.65 265.943 234.804L266.2 222.241L266.23 222.192C269.286 217.18 267.797 213.52 266.652 211.549C266.41 211.133 266.282 210.645 266.282 210.147C266.107 209.871 266.067 210.309 266.176 209.996C266.23 209.842 266.317 209.704 266.43 209.598C266.543 209.491 266.677 209.417 266.821 209.384L268.566 208.99C268.776 208.942 268.993 208.983 269.178 209.104C269.363 209.225 269.502 209.418 269.571 209.647C270.157 211.627 272.442 218 277.678 217.999C282.052 217.998 283.684 210.99 283.782 209.371C283.798 209.12 283.897 208.885 284.059 208.714C284.222 208.542 284.436 208.447 284.658 208.447H286.837C286.975 208.443 287.112 208.474 287.238 208.539C287.363 208.603 287.475 208.699 287.563 208.818C287.672 208.971 287.738 209.156 287.753 209.351C287.768 209.546 287.732 209.742 287.649 209.913C285.162 215.091 288.797 223.283 288.834 223.365L288.857 223.417L287.831 235.473C287.769 236.18 287.513 236.848 287.099 237.381C286.684 237.915 286.132 238.288 285.521 238.448C283.935 238.871 281.792 239.026 279.496 239.026Z" fill="#CCCCCC"/>
<path d="M259.426 267C257.064 267 254.902 266.705 253.184 266.009C251.142 265.182 249.86 263.844 249.373 262.032C249.143 261.261 249.074 260.44 249.172 259.634C249.27 258.827 249.532 258.058 249.938 257.386C252.958 252.264 263.441 250.821 264.848 250.649L265.593 243.618C265.681 242.807 266.025 242.059 266.562 241.511C267.098 240.964 267.791 240.654 268.513 240.639L286.168 240.327C286.877 240.308 287.568 240.578 288.116 241.087C288.664 241.597 289.032 242.312 289.154 243.103L290.157 249.352L278.58 255.707L280.331 261.257L280.216 261.343C276.828 263.901 267.084 267 259.426 267Z" fill="#2F2E41"/>
<path d="M288.554 248.443C288.554 248.443 304.722 246.055 303.667 255.606C302.613 265.157 290.311 271.923 271.684 255.606L273.792 250.83C273.792 250.83 284.336 254.014 288.554 251.626V248.443Z" fill="#2F2E41"/>
<path d="M274.144 252.024C274.144 252.024 274.144 247.249 270.63 247.647C267.115 248.045 260.788 248.443 260.788 248.443C260.788 248.443 258.68 250.034 261.491 250.83C264.303 251.626 272.738 255.606 272.738 255.606L274.144 252.024Z" fill="#A0616A"/>
<path d="M280.119 251.228C280.119 251.228 280.119 246.453 283.634 246.851C287.149 247.249 293.475 247.647 293.475 247.647C293.475 247.647 295.584 249.239 292.772 250.034C289.96 250.83 281.525 254.81 281.525 254.81L280.119 251.228Z" fill="#A0616A"/>
<path d="M301.18 250.324L295.935 229.738C295.935 229.738 294.881 222.574 293.827 215.809C292.772 209.043 288.906 209.839 288.906 209.839L288.203 210.237V220.983L288.906 230.932L295.923 252.782C295.717 253.54 295.705 254.349 295.889 255.114C296.073 255.879 296.445 256.569 296.963 257.103C297.48 257.638 298.122 257.994 298.811 258.132C299.501 258.269 300.211 258.181 300.859 257.878C301.506 257.575 302.064 257.07 302.467 256.422C302.871 255.773 303.103 255.008 303.136 254.216C303.17 253.424 303.004 252.637 302.657 251.948C302.311 251.259 301.798 250.696 301.18 250.324Z" fill="#A0616A"/>
<path d="M265.709 210.635C265.709 210.635 261.843 209.839 260.788 216.605C259.734 223.37 258.68 230.534 258.68 230.534L253.435 251.12C252.817 251.492 252.305 252.055 251.96 252.744C251.614 253.433 251.448 254.219 251.482 255.01C251.516 255.802 251.748 256.566 252.151 257.214C252.554 257.862 253.111 258.366 253.758 258.669C254.405 258.971 255.114 259.059 255.804 258.922C256.493 258.785 257.134 258.429 257.651 257.895C258.168 257.362 258.541 256.672 258.725 255.908C258.909 255.143 258.898 254.335 258.692 253.578L265.709 231.728L266.412 221.779V211.923C266.412 211.656 266.346 211.394 266.222 211.166C266.098 210.939 265.92 210.755 265.709 210.635Z" fill="#A0616A"/>
<path d="M268.821 189.848C272.193 192.178 275.993 193.596 279.927 193.991L278.757 192.403C279.609 192.76 280.506 192.961 281.414 193C281.869 193.015 282.32 192.909 282.732 192.691C283.144 192.473 283.505 192.148 283.786 191.743C284.016 191.323 284.152 190.846 284.184 190.353C284.216 189.86 284.141 189.365 283.968 188.912C283.611 188.007 283.056 187.221 282.355 186.628C281.112 185.515 279.646 184.767 278.086 184.452C276.527 184.136 274.923 184.262 273.417 184.819C272.384 185.169 271.458 185.841 270.747 186.758C270.397 187.22 270.154 187.773 270.04 188.368C269.926 188.963 269.944 189.58 270.092 190.165" fill="#2F2E41"/>
<path d="M278.223 179.658C275.5 176.532 272.206 174.12 268.571 172.591C266.237 171.612 263.698 171.007 261.258 171.563C258.819 172.119 256.512 174.03 255.832 176.74C255.275 178.956 255.85 181.342 256.713 183.428C257.577 185.514 258.73 187.448 259.428 189.612C260.141 191.82 260.355 194.195 260.052 196.52C259.748 198.846 258.937 201.049 257.691 202.929C256.445 204.809 254.804 206.307 252.917 207.287C251.03 208.267 248.956 208.698 246.885 208.541C249.282 208.905 251.491 210.18 253.834 210.859C256.176 211.538 258.941 211.492 260.682 209.591C262.524 207.581 262.561 204.311 262.472 201.416C262.34 197.112 262.207 192.808 262.075 188.504C262.008 186.309 261.95 184.043 262.649 181.995C263.348 179.946 265.009 178.152 266.949 178.171C268.419 178.185 269.72 179.193 270.899 180.188C272.078 181.182 273.326 182.243 274.79 182.391C276.254 182.539 277.926 181.312 277.817 179.652" fill="#2F2E41"/>
<path d="M201.123 252.364H46.4771C43.1691 252.36 39.9977 250.87 37.6586 248.222C35.3195 245.573 34.0037 241.982 34 238.236V24.128C34.0037 20.3823 35.3195 16.7913 37.6586 14.1427C39.9977 11.4941 43.1691 10.0042 46.4771 10H201.123C204.431 10.0042 207.603 11.4941 209.942 14.1427C212.281 16.7913 213.597 20.3823 213.6 24.128V238.236C213.597 241.982 212.281 245.573 209.942 248.222C207.603 250.87 204.431 252.36 201.123 252.364Z" fill="#E6E6E6"/>
<path d="M196.554 242.813H51.0463C49.5088 242.811 48.0347 242.118 46.9475 240.887C45.8604 239.656 45.2488 237.987 45.2471 236.246V38.8527C45.2488 37.1117 45.8604 35.4426 46.9475 34.2116C48.0347 32.9806 49.5088 32.2881 51.0463 32.2861H196.554C198.092 32.2881 199.566 32.9806 200.653 34.2116C201.74 35.4426 202.352 37.1117 202.353 38.8527V236.246C202.352 237.987 201.74 239.656 200.653 240.887C199.566 242.118 198.092 242.811 196.554 242.813Z" fill="white"/>
<path d="M150.417 102.515C148.053 96.107 144.382 90.762 139.052 87.2192C133.453 83.497 127.061 80.3975 120.622 79.2795C114.175 78.2011 107.603 78.6176 101.303 80.5037C98.2666 81.3944 94.9189 82.4288 92.3577 84.5611C89.9092 86.5995 88.232 89.9527 86.8667 92.9651C85.5584 95.851 84.7429 99.029 85.451 102.261C86.1035 105.24 87.9279 107.721 90.0146 109.587C91.8787 111.255 94.4857 113.462 96.9791 112.429C97.1207 112.37 97.2559 112.293 97.3817 112.199C101.688 113.682 105.969 111.525 110.389 109.835C113.075 108.809 115.776 108.29 118.474 109.571C121.132 110.834 123.296 113.314 124.882 115.987C126.39 118.531 127.383 121.418 129.038 123.856C129.861 125.111 130.908 126.156 132.11 126.925C133.312 127.694 134.643 128.168 136.018 128.318C141.359 128.995 148.447 128.372 151.524 122.646C154.803 116.544 152.658 108.588 150.417 102.515ZM95.8985 93.1439C96.6906 93.2458 97.4829 93.3475 98.2752 93.449C96.7657 93.7567 95.3537 94.5064 94.1794 95.6235C93.7327 96.0503 93.3186 96.5189 92.9412 97.0242C92.952 96.9832 92.9584 96.9443 92.97 96.9029C93.203 96.0816 93.5834 95.3238 94.0874 94.6769C94.5913 94.03 95.2079 93.5081 95.8985 93.1439ZM122.493 98.872C122.669 99.0214 122.874 99.1205 123.091 99.1606C123.116 99.1653 123.141 99.1707 123.167 99.1754C123.314 99.2712 123.462 99.366 123.61 99.46C123.593 99.4864 123.58 99.5154 123.564 99.5425C123.202 99.5001 122.84 99.4594 122.478 99.4182C122.503 99.2376 122.508 99.0541 122.493 98.872ZM132.08 111.708C131.999 111.804 131.929 111.909 131.869 112.023C131.834 111.964 131.798 111.906 131.762 111.848C131.861 111.782 131.968 111.735 132.08 111.708ZM138.271 119.295C138.63 119.349 138.989 119.402 139.348 119.456C139.281 119.588 139.232 119.73 139.202 119.879C138.948 119.888 138.691 119.893 138.434 119.894L138.271 119.295ZM143.471 115.835C143.615 115.807 143.76 115.779 143.904 115.751C144.131 115.71 144.347 115.612 144.538 115.466C144.538 115.495 144.54 115.524 144.541 115.553C144.545 115.651 144.553 115.773 144.564 115.912C144.528 115.982 144.492 116.052 144.454 116.122C144.127 116.026 143.799 115.931 143.471 115.835V115.835ZM125.006 94.2129C124.833 94.0502 124.638 93.9204 124.429 93.8287C123.412 93.384 122.371 93.0152 121.311 92.7248C121.153 92.556 120.998 92.3827 120.847 92.2048C121.741 92.4046 122.625 92.6594 123.495 92.9681C124.611 93.373 125.705 93.8496 126.773 94.3954C126.184 94.321 125.594 94.2601 125.006 94.2129ZM134.952 94.9675C134.433 94.6002 133.911 94.2397 133.386 93.886C133.924 94.2297 134.455 94.59 134.979 94.9669L134.952 94.9675ZM145.677 100.51C144.285 98.582 142.746 96.7968 141.077 95.175C141.206 94.8397 141.271 94.4774 141.267 94.1118C143.016 95.9783 144.503 98.1358 145.677 100.51V100.51ZM125.676 84.7337C125.456 84.6761 125.236 84.6181 125.016 84.5619C122.925 84.0274 120.795 83.4517 118.645 82.9632C118.761 82.9787 118.876 82.9911 118.991 83.0078C121.262 83.3483 123.499 83.926 125.676 84.7337Z" fill="#EE6C4D"/>
<path d="M123.801 25.3218C126.13 25.3218 128.018 23.1837 128.018 20.5462C128.018 17.9086 126.13 15.7705 123.801 15.7705C121.471 15.7705 119.583 17.9086 119.583 20.5462C119.583 23.1837 121.471 25.3218 123.801 25.3218Z" fill="white"/>
<path d="M80.9066 208.354C80.9052 208.354 80.9035 208.354 80.9018 208.354C80.7467 208.355 80.5969 208.418 80.4791 208.532L76.3882 212.819V208.638C76.3882 208.601 76.3817 208.564 76.3691 208.529C76.3565 208.495 76.3381 208.464 76.3148 208.437C76.2915 208.411 76.2639 208.39 76.2335 208.376C76.2031 208.361 76.1705 208.354 76.1375 208.354H75.1247C75.0917 208.354 75.0591 208.361 75.0287 208.376C74.9983 208.39 74.9707 208.411 74.9474 208.437C74.9241 208.464 74.9057 208.495 74.8931 208.529C74.8805 208.564 74.874 208.601 74.874 208.638V218.659C74.874 218.696 74.8805 218.733 74.8931 218.768C74.9057 218.802 74.9241 218.833 74.9474 218.86C74.9707 218.886 74.9983 218.907 75.0287 218.921C75.0591 218.936 75.0917 218.943 75.1247 218.943H76.1325C76.199 218.943 76.2628 218.913 76.3099 218.86C76.3569 218.807 76.3834 218.734 76.3834 218.659V214.506L80.474 218.77C80.5924 218.883 80.7424 218.944 80.897 218.943C81.073 218.946 81.2428 218.87 81.3691 218.731C81.4954 218.592 81.5678 218.402 81.5705 218.203V209.117C81.5711 209.017 81.5545 208.919 81.5215 208.827C81.4885 208.734 81.4398 208.65 81.3781 208.58C81.3165 208.509 81.2431 208.452 81.1622 208.414C81.0813 208.375 80.9945 208.355 80.9066 208.354Z" fill="#EE6C4D"/>
<path d="M173.435 208.382L173.43 208.382H172.447C172.414 208.382 172.381 208.389 172.351 208.403C172.32 208.418 172.293 208.439 172.269 208.465C172.246 208.491 172.228 208.523 172.215 208.557C172.202 208.592 172.196 208.628 172.196 208.666V212.825L168.105 208.56C167.986 208.445 167.834 208.382 167.678 208.382V208.354C167.59 208.353 167.503 208.372 167.421 208.41C167.34 208.447 167.266 208.502 167.203 208.572C167.141 208.642 167.091 208.725 167.057 208.816C167.023 208.908 167.005 209.006 167.004 209.106C167.004 209.109 167.004 209.113 167.004 209.117V218.214C167.004 218.414 167.074 218.607 167.2 218.749C167.325 218.891 167.495 218.971 167.673 218.971L167.678 218.971C167.834 218.973 167.985 218.912 168.105 218.798L172.196 214.506V218.687C172.196 218.724 172.202 218.761 172.215 218.796C172.228 218.83 172.246 218.861 172.269 218.888C172.293 218.914 172.32 218.935 172.351 218.949C172.381 218.963 172.414 218.971 172.447 218.971H173.43C173.463 218.972 173.496 218.965 173.526 218.951C173.557 218.938 173.585 218.917 173.609 218.892C173.633 218.866 173.652 218.835 173.665 218.801C173.678 218.767 173.685 218.73 173.686 218.693V208.666C173.686 208.628 173.679 208.592 173.667 208.557C173.654 208.523 173.636 208.491 173.612 208.465C173.589 208.439 173.562 208.418 173.531 208.403C173.501 208.389 173.468 208.382 173.435 208.382Z" fill="#EE6C4D"/>
<path d="M122.605 208.577H120.604C120.061 208.577 119.621 209.075 119.621 209.69V218.008C119.621 218.623 120.061 219.121 120.604 219.121H122.605C123.149 219.121 123.589 218.623 123.589 218.008V209.69C123.589 209.075 123.149 208.577 122.605 208.577Z" fill="#EE6C4D"/>
<path d="M127.98 208.577H125.964C125.703 208.577 125.453 208.694 125.268 208.903C125.084 209.112 124.98 209.395 124.98 209.69V218.008C124.98 218.303 125.084 218.586 125.268 218.795C125.453 219.004 125.703 219.121 125.964 219.121H127.98C128.241 219.121 128.491 219.004 128.675 218.795C128.859 218.586 128.963 218.303 128.963 218.008V209.69C128.963 209.395 128.859 209.112 128.675 208.903C128.491 208.694 128.241 208.577 127.98 208.577Z" fill="#EE6C4D"/>
<path d="M182.636 196.858H65.947C65.7086 196.856 65.4804 196.748 65.3123 196.556C65.1442 196.365 65.0498 196.106 65.0498 195.836C65.0498 195.566 65.1442 195.307 65.3123 195.116C65.4804 194.924 65.7086 194.816 65.947 194.814H182.636C182.755 194.814 182.873 194.84 182.983 194.891C183.093 194.942 183.193 195.017 183.278 195.112C183.362 195.207 183.429 195.319 183.474 195.444C183.52 195.568 183.544 195.701 183.544 195.836C183.544 195.971 183.52 196.104 183.474 196.228C183.429 196.353 183.362 196.466 183.278 196.56C183.193 196.655 183.093 196.731 182.983 196.782C182.873 196.833 182.755 196.858 182.636 196.858Z" fill="#EE6C4D"/>
<path d="M100.63 199.085C100.062 199.086 99.5069 198.896 99.0341 198.54C98.5614 198.183 98.1926 197.676 97.9744 197.083C97.7561 196.489 97.6983 195.835 97.8081 195.205C97.918 194.574 98.1906 193.994 98.5914 193.538C98.9923 193.083 99.5035 192.772 100.06 192.646C100.617 192.519 101.195 192.582 101.72 192.827C102.245 193.072 102.694 193.488 103.01 194.022C103.326 194.556 103.496 195.185 103.497 195.828V195.833C103.497 196.695 103.195 197.521 102.657 198.13C102.12 198.74 101.391 199.083 100.63 199.085Z" fill="#CCCCCC"/>
<path d="M99.7771 197.397H65.44C65.0747 197.397 64.7246 197.232 64.4665 196.939C64.2084 196.646 64.0635 196.25 64.0635 195.836C64.0635 195.422 64.2084 195.026 64.4665 194.733C64.7246 194.44 65.0747 194.276 65.44 194.275H99.7771C99.9686 194.275 100.152 194.361 100.288 194.515C100.423 194.668 100.499 194.876 100.499 195.093V196.579C100.499 196.796 100.423 197.004 100.288 197.157C100.152 197.311 99.9686 197.397 99.7771 197.397Z" fill="#CCCCCC"/>
<path d="M127.493 152.387C125.503 152.324 123.026 152.245 121.119 150.668C120.551 150.179 120.085 149.555 119.752 148.84C119.419 148.125 119.228 147.336 119.193 146.529C119.159 145.955 119.242 145.38 119.436 144.849C119.63 144.318 119.93 143.845 120.313 143.467C121.309 142.514 122.764 142.289 124.333 142.812L122.708 129.367L123.901 129.182L125.811 144.988L124.815 144.47C123.66 143.871 122.075 143.566 121.09 144.508C120.848 144.754 120.66 145.06 120.539 145.402C120.419 145.745 120.37 146.114 120.396 146.481C120.425 147.081 120.568 147.668 120.816 148.201C121.063 148.733 121.409 149.199 121.829 149.567C123.314 150.795 125.288 150.953 127.527 151.025L127.493 152.387Z" fill="#3F3D56"/>
<path d="M116.81 130.527H110.326V131.89H116.81V130.527Z" fill="#3F3D56"/>
<path d="M137.275 130.527H130.791V131.89H137.275V130.527Z" fill="#3F3D56"/>
<path d="M99.0609 111.704C93.8397 111.03 89.796 105.365 89.3519 99.6179C88.8235 92.7804 92.3402 86.2864 97.1648 82.4495C102.21 78.437 108.496 76.7614 114.578 76.3925C126.443 75.724 138.103 80.0758 147.291 88.6017C151.849 92.8877 156.105 98.3472 157.718 104.942C159.119 110.669 157.979 117.157 153.911 121.168C152.905 122.151 151.73 122.887 150.46 123.33C149.19 123.772 147.852 123.912 146.532 123.74C143.375 123.369 140.463 121.49 137.942 119.415C133.038 115.377 129.013 109.753 123.038 107.644C118.658 106.097 112.973 107.458 110.296 111.944C109.689 112.971 109.295 114.14 109.145 115.364C109.09 115.626 109.124 115.901 109.241 116.134C109.358 116.368 109.549 116.542 109.776 116.622C110.006 116.692 110.252 116.657 110.46 116.523C110.668 116.39 110.821 116.169 110.886 115.908C111.589 110.258 117.724 108.15 122.029 109.44C128.306 111.322 132.52 117.664 137.67 121.694C140.378 123.812 143.458 125.506 146.779 125.81C149.642 126.065 152.483 125.076 154.726 123.046C159.126 119.112 160.808 112.346 159.836 106.254C158.709 99.1997 154.516 93.1536 149.915 88.4727C140.587 79.0835 128.478 74.0183 116 74.2865C109.636 74.452 102.995 75.9397 97.5122 79.7487C92.1938 83.4433 88.0831 89.6244 87.5458 96.8094C87.0729 103.134 90.0695 109.748 95.2133 112.519C96.4262 113.169 97.7267 113.585 99.0609 113.749C100.214 113.897 100.204 111.852 99.0609 111.704L99.0609 111.704Z" fill="#3F3D56"/>
</g>
<defs>
<clipPath id="clip0_192_10394">
<rect width="300" height="257" fill="white" transform="translate(34 10)"/>
</clipPath>
</defs>
</svg>
